<svg id="Capa_1" data-name="Capa 1" xmlns="http://www.w3.org/2000/svg" viewBox="0 0 750.92 242.91"><defs><style>.cls-1{fill:#fff;}.cls-2{fill:none;}.cls-3{fill:#00b8d9;}</style></defs><path class="cls-1" d="M262,104.38l25.26-56.67h13l25.33,56.67H311.75L291,54.35h5.18l-20.81,50Zm12.63-12.14,3.48-10h29.15l3.56,10Z"/><path class="cls-1" d="M351.18,105a26.66,26.66,0,0,1-12.55-2.88,21.48,21.48,0,0,1-8.62-8,22,22,0,0,1,8.62-31.13,26.78,26.78,0,0,1,12.55-2.87,24.08,24.08,0,0,1,12,2.87,17.57,17.57,0,0,1,7.53,8.22l-9.8,5.26A11.33,11.33,0,0,0,356.64,72a11,11,0,0,0-5.54-1.46A11.68,11.68,0,0,0,345.27,72a10.55,10.55,0,0,0-4.09,4.13,14.73,14.73,0,0,0,0,13,10.55,10.55,0,0,0,4.09,4.13,11.68,11.68,0,0,0,5.83,1.46,11.28,11.28,0,0,0,5.54-1.42,11,11,0,0,0,4.25-4.58l9.8,5.35a17.55,17.55,0,0,1-7.53,8.13A24,24,0,0,1,351.18,105Z"/><path class="cls-1" d="M391.41,105a20.12,20.12,0,0,1-8.74-1.74,13.3,13.3,0,0,1-5.59-4.74A12.86,12.86,0,0,1,377,85a12.45,12.45,0,0,1,6-4.57,29.28,29.28,0,0,1,10.77-1.66h11.58v7.36h-10.2q-4.46,0-6.11,1.46a4.64,4.64,0,0,0-1.66,3.64,4.54,4.54,0,0,0,1.9,3.85,8.54,8.54,0,0,0,5.22,1.42,10.87,10.87,0,0,0,5.67-1.5,8.62,8.62,0,0,0,3.64-4.41l1.94,5.83a11.3,11.3,0,0,1-5,6.39A18,18,0,0,1,391.41,105Zm13.28-.65v-8.5L403.88,94V78.8a8.14,8.14,0,0,0-2.47-6.32q-2.48-2.27-7.57-2.26A21.94,21.94,0,0,0,387,71.31a18.21,18.21,0,0,0-5.71,3l-4.53-8.82a27.34,27.34,0,0,1,8.58-3.89,38.75,38.75,0,0,1,10.2-1.37q10,0,15.46,4.69t5.51,14.66v24.85Z"/><path class="cls-1" d="M447,105a22,22,0,0,1-11.09-2.8A20.44,20.44,0,0,1,428,94.42a23.41,23.41,0,0,1-2.87-11.82A23.64,23.64,0,0,1,428,70.7a20.27,20.27,0,0,1,7.82-7.77A22.44,22.44,0,0,1,447,60.18a18.62,18.62,0,0,1,9.63,2.43A16,16,0,0,1,463,70a30.47,30.47,0,0,1,2.26,12.63,31.39,31.39,0,0,1-2.18,12.59,15.58,15.58,0,0,1-6.28,7.41A18.88,18.88,0,0,1,447,105Zm2.18-10.36a11,11,0,0,0,5.59-1.46,10.67,10.67,0,0,0,4-4.17,14.73,14.73,0,0,0,0-12.91,10.76,10.76,0,0,0-4-4.13,11,11,0,0,0-5.59-1.46A11.07,11.07,0,0,0,443.47,72a10.69,10.69,0,0,0-4,4.13,14.64,14.64,0,0,0,0,12.91,10.6,10.6,0,0,0,4,4.17A11.07,11.07,0,0,0,449.13,94.67Zm11.42,9.71V95.47l.24-13L460,69.65V44.31h12.63v60.07Z"/><path class="cls-1" d="M505.88,105a28,28,0,0,1-13.07-2.92A21.17,21.17,0,0,1,481,82.6a22.14,22.14,0,0,1,3-11.61,21.55,21.55,0,0,1,8.3-7.94,26,26,0,0,1,23.44-.16,20.35,20.35,0,0,1,8.14,7.77,23.4,23.4,0,0,1,3,12.1c0,.49,0,1-.08,1.66s-.11,1.21-.16,1.74H491.31V78.8h28.74L515.19,81a12.23,12.23,0,0,0-1.37-5.91A10,10,0,0,0,510,71.15a11,11,0,0,0-5.67-1.42,11.19,11.19,0,0,0-5.7,1.42,9.85,9.85,0,0,0-3.85,4,12.53,12.53,0,0,0-1.37,6v1.94A12.26,12.26,0,0,0,495,89.36a10.3,10.3,0,0,0,4.46,4.13,15,15,0,0,0,6.76,1.42,16.43,16.43,0,0,0,6.11-1,15,15,0,0,0,4.82-3.16L523.86,98a19.66,19.66,0,0,1-7.53,5.23A28,28,0,0,1,505.88,105Z"/><path class="cls-1" d="M591.13,60.18a19.87,19.87,0,0,1,9.19,2.06,14.86,14.86,0,0,1,6.31,6.32,22.66,22.66,0,0,1,2.31,10.89v24.93H596.31v-23q0-5.26-2.18-7.77A7.71,7.71,0,0,0,588,71.11,9.83,9.83,0,0,0,583,72.36a8.47,8.47,0,0,0-3.4,3.77,14.65,14.65,0,0,0-1.21,6.39v21.86H565.79v-23c0-3.51-.72-6.1-2.14-7.77a7.6,7.6,0,0,0-6.12-2.51,9.83,9.83,0,0,0-4.94,1.25,8.47,8.47,0,0,0-3.4,3.77A14.8,14.8,0,0,0,548,82.52v21.86H535.35V60.83h12.06v11.9l-2.26-3.48a15.53,15.53,0,0,1,6.43-6.76,19.29,19.29,0,0,1,9.51-2.31,18.32,18.32,0,0,1,10.49,3,14.72,14.72,0,0,1,5.95,9.27l-4.45-1.21a17.42,17.42,0,0,1,7-8.1A20.53,20.53,0,0,1,591.13,60.18Z"/><path class="cls-1" d="M626.59,54.75a8,8,0,0,1-5.67-2,6.87,6.87,0,0,1,0-10,8,8,0,0,1,5.67-2,8.32,8.32,0,0,1,5.67,1.9,6.22,6.22,0,0,1,2.18,4.9,6.94,6.94,0,0,1-2.14,5.22A7.88,7.88,0,0,1,626.59,54.75Zm-6.32,49.63V60.83H632.9v43.55Z"/><path class="cls-1" d="M658.08,105a20.12,20.12,0,0,1-8.74-1.74,13.3,13.3,0,0,1-5.59-4.74,12.86,12.86,0,0,1,0-13.52,12.45,12.45,0,0,1,6-4.57,29.21,29.21,0,0,1,10.77-1.66h11.58v7.36h-10.2q-4.46,0-6.12,1.46a4.67,4.67,0,0,0-1.66,3.64A4.55,4.55,0,0,0,656,95.11a8.5,8.5,0,0,0,5.22,1.42A10.81,10.81,0,0,0,666.9,95a8.59,8.59,0,0,0,3.65-4.41l1.94,5.83a11.3,11.3,0,0,1-5,6.39A18,18,0,0,1,658.08,105Zm13.28-.65v-8.5L670.55,94V78.8a8.17,8.17,0,0,0-2.47-6.32q-2.48-2.27-7.57-2.26a21.94,21.94,0,0,0-6.84,1.09,18.21,18.21,0,0,0-5.71,3l-4.53-8.82A27.34,27.34,0,0,1,652,61.55a38.69,38.69,0,0,1,10.2-1.37q10,0,15.46,4.69t5.51,14.66v24.85Z"/><path class="cls-1" d="M288,195.2a46.35,46.35,0,0,1-13-1.82,30.37,30.37,0,0,1-10-4.74l4.45-9.87A32.85,32.85,0,0,0,278,183a31.86,31.86,0,0,0,10.08,1.65,21.2,21.2,0,0,0,6.28-.76,7.41,7.41,0,0,0,3.52-2.15A4.86,4.86,0,0,0,299,178.6a4.26,4.26,0,0,0-1.78-3.6,14.73,14.73,0,0,0-4.69-2.19c-1.95-.56-4.09-1.1-6.44-1.61s-4.7-1.15-7-1.91a29.31,29.31,0,0,1-6.44-2.91,14.39,14.39,0,0,1-4.74-4.7,13.85,13.85,0,0,1-1.82-7.44,15.85,15.85,0,0,1,2.63-8.87,18,18,0,0,1,7.94-6.39A32.31,32.31,0,0,1,290,136.59a44.93,44.93,0,0,1,10.53,1.25,30.36,30.36,0,0,1,9.15,3.77l-4,9.95a34.72,34.72,0,0,0-7.93-3.36,29.6,29.6,0,0,0-7.78-1.09,18.48,18.48,0,0,0-6.23.89,7.41,7.41,0,0,0-3.48,2.31,5.36,5.36,0,0,0-1.05,3.28,4.19,4.19,0,0,0,1.78,3.52,13.81,13.81,0,0,0,4.69,2.14c1.95.55,4.09,1.08,6.44,1.62s4.69,1.16,7,1.87a27,27,0,0,1,6.44,2.83,14.33,14.33,0,0,1,4.73,4.69,13.65,13.65,0,0,1,1.83,7.37,15.23,15.23,0,0,1-2.68,8.74,18.65,18.65,0,0,1-8,6.4A32.24,32.24,0,0,1,288,195.2Z"/><path class="cls-1" d="M340.89,194.87A25.54,25.54,0,0,1,328.55,192a22.19,22.19,0,0,1-8.5-8,23,23,0,0,1,0-23.16,21.94,21.94,0,0,1,8.5-7.93,27.9,27.9,0,0,1,24.65,0,21.65,21.65,0,0,1,8.5,7.89A22.14,22.14,0,0,1,353.2,192,25.64,25.64,0,0,1,340.89,194.87Zm0-10.36a11.08,11.08,0,0,0,5.67-1.45,10.44,10.44,0,0,0,4-4.17,15,15,0,0,0,0-12.92,10.43,10.43,0,0,0-4-4.12,11.72,11.72,0,0,0-11.33,0,10.67,10.67,0,0,0-4,4.12,14.66,14.66,0,0,0,0,12.92,10.67,10.67,0,0,0,4,4.17A11.07,11.07,0,0,0,340.89,184.51Z"/><path class="cls-1" d="M377.49,210.58a22.13,22.13,0,0,1-6.72-1.05,14.72,14.72,0,0,1-5.43-2.92l4.62-9a10.76,10.76,0,0,0,3.36,2,10.37,10.37,0,0,0,3.76.73,6.68,6.68,0,0,0,4.25-1.25,11,11,0,0,0,2.88-4.17l2.26-5.35,1-1.37,15.63-37.57h12.14L395.54,196.9a27.35,27.35,0,0,1-4.82,8.26,15.29,15.29,0,0,1-6,4.21A20.67,20.67,0,0,1,377.49,210.58Zm7.45-14.65-19.43-45.26h13L393.6,187.1Z"/><path class="cls-1" d="M444.19,194.23V137.56H455l24.13,40h-5.75l23.72-40h10.77l.16,56.67H495.76l-.08-37.81H498L479,188.24H473.1l-19.35-31.82h2.75v37.81Z"/><path class="cls-1" d="M534.06,194.87a20.17,20.17,0,0,1-8.75-1.73,13.21,13.21,0,0,1-5.58-4.74,12.8,12.8,0,0,1,0-13.52,12.35,12.35,0,0,1,6-4.57,29.19,29.19,0,0,1,10.76-1.66h11.58V176h-10.2q-4.46,0-6.11,1.46a4.64,4.64,0,0,0-1.66,3.64A4.55,4.55,0,0,0,532,185a8.6,8.6,0,0,0,5.22,1.41,10.82,10.82,0,0,0,5.67-1.49,8.58,8.58,0,0,0,3.64-4.41l2,5.82a11.33,11.33,0,0,1-5,6.4A18,18,0,0,1,534.06,194.87Zm13.27-.64v-8.5l-.81-1.86V168.65a8.14,8.14,0,0,0-2.47-6.32c-1.64-1.51-4.17-2.27-7.57-2.27a22,22,0,0,0-6.84,1.1,18,18,0,0,0-5.7,3l-4.54-8.82A27.55,27.55,0,0,1,528,151.4a38.75,38.75,0,0,1,10.2-1.37q10,0,15.47,4.69t5.5,14.65v24.86Z"/><path class="cls-1" d="M570.57,194.23V150.67h12.06V163l-1.7-3.56a14,14,0,0,1,6.23-7A21.22,21.22,0,0,1,597.61,150v11.65l-1.46-.12c-.43,0-.89,0-1.38,0a11.87,11.87,0,0,0-8.38,3q-3.2,3-3.19,9.19v20.56Z"/><path class="cls-1" d="M625.78,194.87A26.66,26.66,0,0,1,613.23,192a22,22,0,0,1,0-39.1A26.66,26.66,0,0,1,625.78,150a24,24,0,0,1,12,2.87,17.52,17.52,0,0,1,7.53,8.22l-9.8,5.26a11.33,11.33,0,0,0-4.25-4.53,10.9,10.9,0,0,0-5.54-1.46,11.6,11.6,0,0,0-5.83,1.46,10.52,10.52,0,0,0-4.09,4.12,14.75,14.75,0,0,0,0,13,10.61,10.61,0,0,0,4.09,4.13,11.7,11.7,0,0,0,5.83,1.45,11.27,11.27,0,0,0,5.54-1.41,11,11,0,0,0,4.25-4.58l9.8,5.35a17.6,17.6,0,0,1-7.53,8.13A24,24,0,0,1,625.78,194.87Z"/><path class="cls-1" d="M671,194.87a21.54,21.54,0,0,1-9.67-2.1,14.82,14.82,0,0,1-6.6-6.44,23,23,0,0,1-2.35-11.05V150.67H665v22.75q0,5.43,2.31,8a8.34,8.34,0,0,0,6.52,2.55,10.48,10.48,0,0,0,5.18-1.26,8.65,8.65,0,0,0,3.56-3.88,15,15,0,0,0,1.29-6.6V150.67h12.63v43.56h-12v-12l2.19,3.48a15,15,0,0,1-6.44,6.84A19.07,19.07,0,0,1,671,194.87Z"/><path class="cls-1" d="M722.84,194.87a42.44,42.44,0,0,1-10.72-1.33,26.56,26.56,0,0,1-8.14-3.36l4.21-9.07a27.64,27.64,0,0,0,7.09,3,29.14,29.14,0,0,0,8.05,1.17q4.38,0,6.19-1a3.23,3.23,0,0,0,1.83-2.91,2.48,2.48,0,0,0-1.42-2.31,12.8,12.8,0,0,0-3.77-1.18c-1.56-.26-3.27-.53-5.14-.8s-3.73-.64-5.62-1.1a19,19,0,0,1-5.18-2.06,10.53,10.53,0,0,1-3.77-3.73,12.87,12.87,0,0,1,1-13.35,15.72,15.72,0,0,1,6.92-5A29,29,0,0,1,725.19,150a43.81,43.81,0,0,1,9.07,1,24.42,24.42,0,0,1,7.69,2.83l-4.21,9a21.36,21.36,0,0,0-6.35-2.55,29.44,29.44,0,0,0-6.2-.69q-4.2,0-6.15,1.13a3.33,3.33,0,0,0-1.94,2.92,2.61,2.61,0,0,0,1.41,2.42,12.6,12.6,0,0,0,3.77,1.3c1.56.32,3.28.61,5.14.85a47.71,47.71,0,0,1,5.63,1.09,20.63,20.63,0,0,1,5.14,2.07A10.82,10.82,0,0,1,742,175a11.17,11.17,0,0,1,1.46,6A11.35,11.35,0,0,1,741,188.2a15.85,15.85,0,0,1-7,4.89A30.72,30.72,0,0,1,722.84,194.87Z"/><polygon class="cls-2" points="111.97 47.95 131.72 36.57 111.97 25.19 92.22 36.57 72.47 47.95 52.72 59.33 72.47 70.7 92.22 59.33 111.97 47.95"/><path class="cls-3" d="M112,93.46,92.22,82.08,112,70.71l19.75-11.38L151.47,48l19.75,11.38L191,70.71l19.75-11.38L191,48,171.22,36.57,151.47,25.19,131.72,13.81,112,2.43,92.22,13.81,72.47,25.19,52.72,36.57,33,48,13.22,59.33,33,70.71,52.72,82.08,72.47,93.46l19.75,11.38L112,116.22l19.75-11.38ZM52.72,59.33,72.47,48,92.22,36.57,112,25.19l19.75,11.38L112,48,92.22,59.33,72.47,70.71Z"/><polygon class="cls-3" points="66.37 104.33 46.75 92.98 27.13 81.64 7.51 70.3 7.51 93 7.51 115.69 7.51 138.38 27.13 149.73 46.75 161.07 66.37 172.41 85.99 183.75 85.99 206.44 66.37 195.1 46.75 183.76 27.13 172.42 7.51 161.08 7.51 183.77 27.13 195.12 46.75 206.46 66.37 217.8 85.99 229.14 105.61 240.48 105.61 217.78 105.61 195.09 105.61 172.4 85.99 161.06 66.37 149.71 46.75 138.37 27.13 127.03 27.13 104.34 46.75 115.68 66.37 127.02 85.99 138.36 105.61 149.7 105.61 127.01 85.99 115.67 66.37 104.33"/><polygon class="cls-3" points="196.81 81.64 177.19 92.98 157.57 104.33 137.95 115.67 118.33 127.01 118.33 149.7 118.33 172.4 118.33 195.09 118.33 217.78 118.33 240.48 137.95 229.14 137.95 206.44 137.95 183.75 137.95 161.06 137.95 138.36 157.57 127.02 157.57 149.71 157.57 172.41 157.57 195.1 157.57 217.8 177.19 206.46 177.19 183.76 177.19 161.07 177.19 138.37 177.19 115.68 196.81 104.34 196.81 127.03 196.81 149.73 196.81 172.42 196.81 195.12 216.43 183.77 216.43 161.08 216.43 138.38 216.43 115.69 216.43 93 216.43 70.3 196.81 81.64"/></svg>