<?xml version="1.0" encoding="utf-8"?>
<!-- Generator: Adobe Illustrator 24.1.0, SVG Export Plug-In . SVG Version: 6.00 Build 0)  -->
<svg version="1.1" id="Capa_1" xmlns="http://www.w3.org/2000/svg" xmlns:xlink="http://www.w3.org/1999/xlink" x="0px" y="0px"
	 viewBox="0 0 527.9 205" style="enable-background:new 0 0 527.9 205;" xml:space="preserve">
<style type="text/css">
	.st0{fill:#FFFFFF;}
	.st1{fill:#00B8D9;}
</style>
<g>
	<g>
		<path class="st0" d="M29.3,157.3c-0.2,0-0.4-0.3-0.7-0.7v-0.4c0-0.2,0.1-0.3,0.3-0.3h0.3v-2.1c-0.1-0.1-0.1-0.2-0.1-0.3v-0.6
			c0.1,0,0.1,0,0.1,0V109c-0.3-0.2-0.5-0.6-0.5-1.1l0.5-0.2V94.3H29c-0.2,0-0.4-0.2-0.5-0.6l0.9-0.7V71.7H15.7l-0.9,0.2
			c0.4,0.6,0.7,0.9,1.1,0.9c0,0.4-0.2,0.6-0.7,0.6l0.6,0.7v0.4c-0.2,0-0.3-0.1-0.6-0.2l-1,0.2c-0.5-1.4-0.8-2-1.1-2l-0.9,1.1
			c-0.1,0.7-0.3,1.1-0.5,1.1h-0.9L10,74.1v2c0,0.4,0.1,0.6,0.2,0.6L10,77.6v11.8h0.6v0.4c-0.4,0.4-0.6,0.9-0.6,1.3
			c0.5,0.5,0.9,0.7,1.1,0.7v0.9c-0.7,0-1.1,0.1-1.1,0.4v2c0.8-0.9,1.4-1.5,2-1.8c0.2-0.6,0.5-0.9,0.7-0.9h0.2c0.1,0,0.4,0.5,0.7,1.4
			c0.7,0.5,1.2,0.8,1.5,0.8l0.7-1.1c-0.5-1-0.7-1.6-0.7-1.8c0.3,0,0.4-0.1,0.4-0.3v-0.9l-0.8-0.7v-0.4c0.4,0,1-0.4,1.7-1.3h0.2
			c0.4,0.3,0.7,0.4,0.9,0.4c0,0.4-0.5,1.6-1.5,3.6c0,0.4,0.5,1,1.5,1.8c0,0.8,0.6,1.4,1.7,1.8l0.2,0.9h-0.9
			c-0.3-0.3-0.5-0.4-0.7-0.4c-0.9,0.6-1.4,0.9-1.7,0.9c-0.5-1.1-1-1.7-1.5-1.8c-0.4,0.6-1.3,0.9-2.7,0.9L11,96.1l-0.8,0.5
			c0-0.1-0.1-0.2-0.2-0.2v8.6l0.9,0.2h2.2c0.2,0,0.3,0.2,0.3,0.5c0,0.5-0.6,0.9-1.6,1.5h-0.2c-0.5-0.7-1-1.1-1.5-1.1l-0.2,0.4v14
			c0,0.1,0.1,0.2,0.2,0.2l-0.2,0.3v1.3h0.4v0.6l-0.4-0.2v2.9c0,0.1,0.1,0.2,0.2,0.2l-0.2,0.4v11.1c0.3,0,0.6,0.1,0.8,0.3
			c-0.1,0.5-0.4,0.8-0.8,0.8v60.1l0.2,0.9h0.2c8.5-8.3,14.8-14.6,18.9-19L29.3,157.3L29.3,157.3z M20.2,82.3l-0.8,1.5
			c0.3,0.5,0.4,0.9,0.4,1.1l-0.6,0.4H19c-0.3-1.3-0.4-2.3-0.4-2.9c0.1-0.4,0.3-0.5,0.4-0.5c-0.4-0.6-0.6-1.1-0.6-1.5
			c0.4-0.3,0.7-0.4,0.9-0.4l0.4,0.6l-0.2,0.9C20,81.6,20.2,81.9,20.2,82.3z M17.3,78.6c0-0.9-0.4-1.3-1.1-1.3s-1.1,0.5-1.1,1.5
			c-0.3,0-0.6-0.6-0.7-1.8c0.4-0.6,1.2-0.9,2.2-0.9v-0.3c0-1.2,0.4-1.8,1.3-1.8c0.5,0,1,1,1.4,2.9v0.9c-0.4,0-1,0.3-1.6,0.9
			L17.3,78.6L17.3,78.6z M19.1,90.1L19,89.8v-0.9c0-0.9,0.1-1.3,0.3-1.3c-0.1-0.3-0.2-0.4-0.2-0.6H19v0.4h-1.1
			c-0.3,0-0.4-0.1-0.4-0.4v-0.4l0.9-0.1l0.8,0.3v-0.3h0.5c0.4,0.9,0.6,1.4,0.6,1.6v0.2C20.2,89.3,19.9,89.9,19.1,90.1z M20.8,98.7
			h-0.5l-1.1,0.2c-0.2-0.1-0.5-0.2-0.8-0.2c-1.2,0.4-2.1,0.6-2.7,0.6c-0.1-0.4-0.3-0.6-0.4-0.6c0.2-0.5,0.4-0.7,0.5-0.7H16l0.8,0.5
			c0.1,0,0.3-0.1,0.5-0.2l1.1,0.2l0.8-0.5l0.7,0.5l0.6-0.3c0.2,0,0.3,0.1,0.3,0.3V98.7z M24.4,97.2H24c-0.2,0-0.4-0.2-0.5-0.5
			c0-2.1,0.3-3.1,0.9-3.1h0.2c0.6,0.2,0.9,0.5,0.9,0.7C24.9,94.9,24.5,95.8,24.4,97.2z M24.8,83.4V84h-0.4c-0.1,0-0.6-0.7-1.3-2
			c0.3,0,0.6-0.2,1.1-0.5c0.6,0,0.9,0.1,0.9,0.4l0.9-0.2h0.2c0.7,0.1,1.1,0.3,1.1,0.5C26,82.6,25.1,83.1,24.8,83.4z"/>
		<path class="st0" d="M142.9,72.1h11.5l-0.2,0.3v0.2h0.7v-0.5h5.8l0.9,0.2V136c0,0.3-0.3,1-0.9,2.2l0.4,0.2c0-0.2,0.2-0.3,0.5-0.5
			v8c-5.4,5.7-9.9,10.3-13.5,13.7H148l-1.5-1.5c-0.6,0.3-0.9,0.9-0.9,1.6H145v0.4c0.3,0.6,0.8,0.9,1.5,0.9v0.2l-3.1,3.3l-0.4-0.2
			c-0.7,1.2-1.4,2-2,2.4v-0.2c0.1-0.2,0.2-0.5,0.2-0.8c-0.2,0-0.7-0.3-1.5-0.9c-0.5,0.1-0.8,0.5-0.8,1.1v0.4
			c0.6,0.6,0.9,0.9,0.9,1.1c0,0.5-1.1,1.7-3.3,3.6l-0.5-0.8v-0.5c0.2-0.6,0.8-0.9,1.6-0.9v-0.3l-1.8-1.8c0.4-0.6,0.6-1.1,0.6-1.5
			c-0.2,0-0.6-0.5-1.1-1.5l0.2-1.8l-0.5-0.4c-0.3,0-0.4,0.2-0.4,0.4v0.2l0.2,1.1l-0.7,0.9c0.2,0,0.5,0.4,1.1,1.1
			c-0.1,0.7-0.2,1.1-0.2,1.5c0.1,0.4,0.3,0.5,0.4,0.5c-0.1,2.6-0.4,3.8-0.8,3.8h-27v-0.2c0-0.2,0.6-0.8,1.8-1.8h0.2
			c0,0.4,0.1,0.5,0.4,0.5c0-0.3,0.2-0.4,0.6-0.4l-0.6-0.9l8-7.8c0.9,0.6,1.3,0.9,1.3,1.1v0.4c0,0.1-0.1,0.2-0.2,0.2l0.6,0.9
			c-0.4,0.1-0.6,0.5-0.6,1.1c0.2,0,0.5,0.4,0.9,1.1c-0.2,0.9-0.3,1.5-0.3,1.8c0.5,0.5,0.8,0.8,0.9,0.8c0.4,0,0.6-0.6,0.6-1.7
			c-0.3-0.4-0.4-0.7-0.4-0.9c0.7-0.5,1.1-1.1,1.1-1.8h-1.1c-0.3,0-0.4-0.3-0.4-0.9c0.4-0.3,0.8-0.4,1.1-0.4c0.3,0.6,0.6,0.9,0.8,0.9
			l0.9-0.6c0.2,0.9,0.3,1.3,0.5,1.3h0.6c0.4,0,0.5-0.7,0.5-2c-0.2-0.6-0.5-0.9-0.7-0.9l-0.4,0.2c0-0.1-0.1-0.3-0.2-0.5
			c0.2,0,0.4-0.3,0.7-0.8v-0.3l-0.7-0.2l-1.1,0.2l-0.2-0.4v-0.5c0-0.2,0.2-0.4,0.7-0.5l1.1,0.2h0.4l0.3-1.7
			c-0.2-0.8-0.3-1.6-0.3-2.2v-0.2l2-2.2l1.1,0.2c1.7-0.1,2.6-0.4,2.6-0.9c-0.6-0.8-0.9-1.4-0.9-1.8c5.4-5.7,8.4-8.6,8.9-8.6
			c0.5-0.2,0.9-0.3,1.5-0.3h0.5c0.9,0,1.6,0.3,2,0.9c0.4,0.3,0.7,0.4,0.9,0.4c2-0.1,2.9-0.4,2.9-0.9l-0.6-0.3h-0.9l-0.4,0.2
			c-0.9-0.8-1.3-1.4-1.3-1.7l-2.6,0.4c-0.5-0.2-0.7-0.4-0.7-0.6c0.2,0,1-0.8,2.4-2.4V115l0.5,0.4c0.1-0.4,0.2-0.8,0.2-1.3
			c-0.2-0.1-0.4-0.2-0.5-0.2c0,0.1-0.1,0.2-0.2,0.2V107h0.4l-0.4-0.5v-2.9c0.1,0,0.6-0.1,1.5-0.2v-0.2l-1.5-1.1v-8.3h0.4v-0.4H142
			V82.1h0.4v-0.2H142v-9.6L142.9,72.1z M137.9,156.1c0.3,0.9,0.6,1.3,0.8,1.3l-0.6,1.1c0.1,0.3,0.2,0.4,0.4,0.4h0.2
			c0.2,0,0.4-0.2,0.7-0.7v-0.4l-0.2-0.4c1.1-0.6,1.7-1,1.7-1.3c-0.1-1-0.4-1.4-1.1-1.4v0.2c-0.3-0.1-0.4-0.2-0.6-0.2
			C138.4,154.9,137.9,155.4,137.9,156.1z M140.9,149.5c-0.1,0.3-0.6,0.6-1.7,0.9c0.3,0.6,0.5,0.9,0.8,0.9c0.2,0,0.3-0.2,0.3-0.6h0.6
			l1.1,0.7c0.2,0,0.9-0.2,2.2-0.5h1.5c0.3,0,0.4-0.1,0.4-0.4V150c-0.2,0-1-0.1-2.4-0.4c-0.3,0-0.8,0.2-1.5,0.5
			C142,149.8,141.6,149.5,140.9,149.5z M140.7,159.7v0.2c0.6,0.9,1.2,1.3,1.8,1.3c1-0.4,1.6-0.8,1.8-1.3c-0.2-0.5-0.7-0.8-1.5-1.1
			v-0.2h-0.4C141.9,159.4,141.3,159.7,140.7,159.7z M141.8,153.2l-0.5,1.5c0.2,1.2,0.5,1.8,0.7,1.8h0.4l0.2-0.7
			c-0.2,0-0.3-0.1-0.3-0.4c0.1-0.9,0.2-1.3,0.2-1.5C142.1,153.4,142,153.2,141.8,153.2z M146,102.5c0,0.2-0.6,0.4-1.7,0.7l-0.2,0.4
			c1.6,0.3,2.5,0.4,2.9,0.4c0.2-0.1,0.4-0.2,0.5-0.2C147.6,103.4,147.1,103,146,102.5z"/>
		<path class="st0" d="M180.2,72.4h4.4c0.6,0.1,0.9,0.2,0.9,0.4c0.4-0.3,0.8-0.4,1.1-0.4h2.9V73c0.8-0.1,1.4-0.3,1.6-0.6h0.9
			c0.5,0.5,1,0.8,1.6,0.9c0,0.2,0.2,0.3,0.4,0.3h0.4v-0.5h-0.8v-0.8h9.9c0.3,0,0.4,0.2,0.4,0.6h0.5c0.3,0,0.4-0.2,0.4-0.6h1.8
			c1,0.7,4.4,4,10.2,10c-0.2,0-0.4,0.2-0.6,0.5v0.6c0.1,0.3,0.2,0.4,0.4,0.4h0.3l0.6-0.4h0.4c0.2,0,1.1,0.9,2.7,2.7v1.4
			c0,0.6-0.1,1-0.3,1.5h0.2c0.2,0,0.6-0.5,1.2-1.5l0.4-0.2c0.7,0.8,1.1,1.2,1.1,1.3l-0.3,0.7c0.3,0,0.5,0.4,0.7,1.3
			c-0.1,1-0.3,1.5-0.6,1.5h-26v-0.4h-0.2l-0.6,0.4h-9.3v2.7h8.8c0.2,0,1.8,1.7,4.9,4.9h-0.3c-0.3-0.1-0.4-0.2-0.6-0.2
			c-0.4,0.5-0.5,0.9-0.5,1.3v0.2h0.7c0.7-0.6,1.1-0.9,1.3-0.9l3.3,3.5l-0.2,0.4c0.9,0.4,2.1,1.4,3.8,3.1l7.1,7.3v0.2h-4.6
			c0-0.4-0.1-0.6-0.4-0.6h-0.5c0,0.4-0.1,0.6-0.4,0.6h-0.9l0.2-0.4c0-0.2-0.3-0.4-0.8-0.7c-0.4,0-0.5,0.4-0.5,1.1H205v-0.2
			c0.7-0.5,1.1-0.9,1.1-1.1h-0.8c-0.2,0-0.3,0.1-0.3,0.3l0.2,0.4l-0.8,0.2c0-0.2-0.4-0.5-1.1-0.9H202l-0.4,0.2
			c-0.5-0.3-0.7-0.6-0.7-0.9v-0.1h-0.4v0.4c-0.3,0-0.7-0.1-1.1-0.4c-0.9,0-1.6,0.5-2.2,1.5c-0.2,0.1-0.4,0.2-0.7,0.2H195
			c-0.2,0-0.5-0.3-0.9-0.9v-0.4c0.4-0.5,0.5-0.8,0.5-1.1h1.8l0.2-0.7c-1.4-0.1-2-0.3-2-0.4c-1.1,0.5-1.6,1.4-1.6,2.6
			c-0.3,0-0.5,0.4-0.8,1.1c0.3,0,0.4,0.2,0.4,0.4H191v-0.2h0.3v-0.4h-0.5v0.6H187v0.7c-0.2-0.1-0.5-0.2-1.1-0.2v-1.6
			c0-0.3-0.1-0.4-0.4-0.4h-0.2c-0.2,0-0.3,0.1-0.3,0.4v0.9c0,0.1,0.1,0.2,0.2,0.2c-0.1,0.2-0.2,0.4-0.2,0.5h-1
			c-0.1,0-0.2-0.1-0.2-0.2c-0.5,0.2-0.8,0.4-0.8,0.6v0.3c0,0.2,0.3,0.5,0.8,0.8h0.3c0.6,0,1.5-0.1,2.7-0.2v3.6l-0.4-0.2h-0.2
			c-0.2,0.4-1.6,0.7-4.2,0.9c-0.1,0-0.5-0.1-1.1-0.2c-0.4,0.1-0.6,0.3-0.6,0.4l-0.9-0.5H179c-0.5,0.4-0.8,0.5-1.1,0.5
			c-0.8,0-2-0.2-3.8-0.5c-0.6,0.2-1.5,0.5-2.6,0.7c-0.7-0.5-1.2-0.7-1.5-0.7l-0.9,0.2c-0.4-0.2-0.8-0.3-1.1-0.3h-0.2
			c-0.2,0-0.4,0.4-0.6,1.1l-0.7,0.5v-3.3h1.1c0.7,0.6,1.6,0.9,2.7,0.9l0.5-0.9c-0.1-0.7-0.2-1.3-0.2-1.8c0.3-0.1,0.4-0.2,0.6-0.2
			c0.4,0.1,0.6,0.3,0.6,0.4c0.5-0.3,1.3-0.4,2.4-0.4c0.5,0.2,0.7,0.4,0.7,0.5c0,0.5-0.1,1-0.4,1.5c0.5,0.1,0.8,0.2,0.8,0.4
			c0.5-0.1,0.7-0.2,0.7-0.4l0.4,0.2c0.4,0,0.7-0.2,1.1-0.6c-0.1-0.5-0.5-1.1-1.1-1.8v-0.4c0.1,0,0.4-0.1,1.1-0.3v-0.4
			c0-0.2-0.2-0.4-0.6-0.6h-0.4c-1.8,0.3-2.7,0.4-2.9,0.4c-0.1,0-0.2-0.1-0.2-0.2l-0.4,0.2h-0.9c-0.3-0.3-0.5-0.4-0.7-0.4l0.2-0.3
			v-0.2c0-0.3-0.1-0.4-0.4-0.4c-0.4,0-0.9,0.3-1.7,0.8v-0.4H169l-0.8,0.5v-0.1l-0.3,0.1c-0.5,0-0.7-0.5-0.8-1.4h-0.3l-0.4,0.2v-10.4
			c0-0.6,0.2-0.9,0.4-0.9c-0.3-0.4-0.4-0.8-0.4-1.1l0.4-1.3c-0.3,0-0.4-0.1-0.4-0.4v-2.9h0.2V98c0.4,0,0.9,0.2,1.5,0.5
			c0.4-0.1,0.5-0.5,0.5-1.1S168.1,96,167,95c0.4-0.4,0.7-0.5,0.9-0.5c0-0.9-0.1-1.3-0.4-1.3l0.2-0.4v-0.5c-0.1-0.4-0.5-0.6-1.3-0.6
			v-0.5l0.4-0.6c-0.3-0.9-0.4-1.6-0.4-2.2v-1.3c0.3,0,0.5,0.6,0.7,1.7c0.3,0,0.4,0.2,0.4,0.5c0,0.1-0.1,0.3-0.2,0.7
			c0.3,0.8,0.7,1.1,1.5,1.1h0.2v-0.6l-0.9-1.7c0.1-1.5,0.2-2.2,0.3-2.2l-0.5-0.9v-0.2c1,0,1.5-0.8,1.5-2.4c0.3,0,0.5-0.3,0.5-0.9
			c-0.5-1.6-1.1-2.4-2-2.4v-0.2l0.9-0.2h0.7c0.5,0,1,0.1,1.7,0.2c0.2-0.1,0.5-0.2,0.9-0.2l0.4,0.6c0,0.3-0.6,0.5-1.7,0.7l-0.2,0.4
			c0.4,0.3,0.7,0.4,0.9,0.4c1.1-0.1,1.6-0.4,1.6-0.8c-0.1-0.4-0.2-0.5-0.3-0.5c0.1-0.4,0.3-0.6,0.7-0.8c0.6,0.4,1.1,0.6,1.7,0.6v0.7
			c0,0.3-0.1,0.4-0.4,0.4c0-0.1-0.1-0.2-0.2-0.2l-0.5,0.7c0.6,0,0.9-0.2,0.9-0.5l0.5,0.4h0.9c0-0.1-0.1-0.6-0.3-1.5
			c0.4-0.3,0.8-0.4,1.1-0.4l0.9,0.2l0.7-0.9l-0.3-0.6v0.2l0.3-0.5v-0.9c0-0.6-0.4-1.2-1.2-1.8v-0.2c0-0.2,0.5-0.5,1.4-0.7
			c0.5-0.7,0.8-1.1,0.8-1.3v-0.7H180.2z M167.3,72.4h4.7l1.6,1.7c0.6-0.2,1-0.5,1.3-1.1c0-0.3-0.2-0.4-0.5-0.4v-0.2h4.9
			c-1,1.1-1.4,1.7-1.4,2v0.2c0.1,0,0.2,0.1,0.2,0.2c-0.6,0-0.9,0.3-0.9,0.8c0.1,0.2,0.2,0.4,0.2,0.5l-0.9,0.8H176
			c0-0.6-0.1-0.9-0.3-0.9c-0.7,0-1.5,0.7-2.6,2.2c-0.6,0.4-1.2,0.5-1.8,0.5c-0.8-0.3-1.7-0.4-2.7-0.5v0.3h-1.7V78
			c0-0.4,0.1-0.6,0.2-0.6l-0.2-0.9v-3.6C167,72.6,167.1,72.4,167.3,72.4z M182.8,121.7c1.1,0.6,1.9,0.9,2.4,0.9
			c0.6-0.4,1.2-0.6,1.8-0.6v29.4h19.7c0.5,0.2,7.1,6.7,19.9,19.7v0.2h-8c-0.4,0-0.5-0.1-0.5-0.2l-0.9,0.2H197l-2-1.3h-0.3
			c-0.1,0-0.4,0.4-1.1,1.1c0-0.2-0.3-0.5-0.9-0.9c-0.2,0-0.3,0.1-0.3,0.3v0.4l0.2,0.4H188v-0.4h-0.2v0.4h-20.6v-3.8
			c0-0.1,0.1-0.2,0.2-0.2l-0.2-0.4V164h0.4v-0.4c-0.3,0-0.4-0.1-0.4-0.2c0-0.2,0.3-0.5,0.9-1.1c-0.3-0.5-0.6-0.7-0.9-0.7v-0.9
			c0-0.4,0.1-0.6,0.2-0.6l-0.2-0.9v-24.3c0.4,0,1.8,0.6,4.2,1.8h0.4c0.6,0,1-0.2,1.1-0.6l0.4,0.2h0.9c0.3,0,0.4-0.2,0.4-0.5
			c0-0.6-0.6-1.4-1.8-2.2h-0.2c-0.1,0-0.6,0.1-1.5,0.3h-0.2c-0.1,0-0.2-0.1-0.2-0.2l-0.4,0.2l-0.3-0.2l-0.4,0.2
			c-0.4-0.2-0.8-0.3-1.1-0.3c0,0.2-0.1,0.3-0.4,0.3l-0.9-0.2v-2.7c0-0.4,0.1-0.6,0.2-0.6l-0.2-0.9v-7.1l0.7,0.4
			c0-0.3,0.2-0.4,0.4-0.4c0.1,0,0.2,0.1,0.2,0.2c1.8-0.2,3-0.4,3.5-0.6l0.4,0.6c0,0.1-0.1,0.2-0.2,0.2l0.2,0.3v0.2l-0.4-0.2
			l-0.4,0.2v-0.2c-0.4,0-1,0.6-1.8,1.7c-0.5,0.1-0.8,0.2-0.8,0.5l0.4,0.6l0.9-0.2h0.6c0.2,0,0.4,0.3,0.7,0.8v0.9l2.4,0.5
			c0-0.1,0.3-0.5,0.8-1.1v-0.2c0-0.2-0.1-0.3-0.4-0.3l0.2-0.9v-0.2l-1.1-2c-0.1-0.2-0.2-0.4-0.2-0.7l0.5-0.4h0.8l0.7,0.6l-0.2,0.9
			v0.2c1.2,0.2,1.8,0.5,1.8,1.1c2-0.2,3.2-0.7,3.5-1.5c-0.1-0.2-0.2-0.4-0.2-0.7v-0.2C181,122.4,182,122.1,182.8,121.7z M169.8,98.9
			l-1.3-0.2h-0.4c0,0.3-0.2,0.7-0.7,1.3c0.2,0.9,0.6,1.3,1.2,1.3c0.1-0.5,0.8-0.9,2.4-1.3c0.8-1.1,1.1-1.9,1.1-2.2
			c-0.1,0-0.2-0.1-0.2-0.2C171.1,97.6,170.4,98,169.8,98.9z M168.7,142.1c0.3,0.4,0.4,0.7,0.4,0.9c-1,0.3-1.5,0.8-1.5,1.4
			c0.5,0.3,1.2,0.5,2,0.8c1-0.6,1.4-1.1,1.4-1.7c0-0.4-0.6-1-1.8-1.8H169C168.8,141.7,168.7,141.9,168.7,142.1z M176.9,95
			c-0.2,0.4-0.3,0.8-0.3,1.1V97l0.3,0.5l-0.3,0.7c0,0.4,0.2,0.6,0.7,0.6V99l-0.2,0.4l1.1,0.5c0.1-0.2,0.2-0.4,0.2-0.5
			c-0.2-0.4-0.3-0.7-0.3-0.9l-0.4,0.2h-0.2c0-0.6-0.1-0.9-0.2-0.9c0.1-0.7,0.8-1.3,2-1.7h0.6l0.7,0.2l-0.2-0.3
			c0-0.1,0.1-0.2,0.2-0.2c-0.1-0.3-0.2-0.4-0.2-0.6c-0.4,0-0.6,0.1-0.6,0.2C178.5,95.2,177.5,95,176.9,95z M178.4,153.7
			c-0.2,0.7-0.3,1.2-0.3,1.5l0.2,1.1c-0.1,0.5-0.2,0.9-0.2,1.3h0.2l-0.2,0.4v0.2l0.2,0.3c-0.2,0.1-0.3,0.2-0.3,0.4
			c0,0.3,0.1,0.4,0.3,0.4l0.8-1.8h0.2c-0.2-0.6-0.4-1.3-0.6-2.2c0.1-0.2,0.2-0.4,0.2-0.7v-0.4C178.7,153.8,178.6,153.7,178.4,153.7z
			 M180,141.3c0,0.2,0.2,0.4,0.7,0.7c0.7,0,1.2-0.5,1.5-1.6c0.9-0.1,1.3-0.3,1.3-0.6l-0.2-0.3l-0.4,0.2h-0.5c0.3-0.6,0.4-1,0.4-1.3
			l-0.2-0.3c0.1-0.3,0.2-0.4,0.2-0.6l-0.4-0.2c-0.9,0.8-1.3,1.6-1.3,2.4C180.6,139.7,180.2,140.2,180,141.3z M182,79.2h-0.7v0.5
			c0.1,0.4,0.5,0.6,1.1,0.6h0.4c0.2,0,0.3-0.1,0.3-0.4c0.5,0.3,0.9,0.4,1.3,0.4c0.5-0.3,0.9-0.4,1.1-0.4v-0.4c0-0.2-0.3-0.4-0.9-0.5
			C183.6,79.2,182.7,79.2,182,79.2z M186.8,96.9c-0.9-0.1-1.3-0.3-1.3-0.6c-0.4,0.3-0.8,0.4-1.1,0.4h-0.2v-0.4
			c-0.2,0-0.4,0.2-0.5,0.6v0.2h0.2c0-0.3,0.1-0.4,0.2-0.4c0.5,0.3,1.1,0.5,1.8,0.7c0.2-0.1,0.4-0.2,0.5-0.2l0.4,0.2
			c0.5-0.2,0.9-0.3,1.5-0.3h0.2c0.4,0.4,0.9,0.5,1.3,0.5c0-0.6,0.4-0.9,1.1-0.9v-0.4c-0.7,0-1.1-0.2-1.1-0.5
			C187.7,96,186.8,96.4,186.8,96.9z M191.5,102.9v1.1c0,0.2,0.2,0.4,0.6,0.5h0.2c2.1-1.2,3.1-1.8,3.1-2v-0.2c0-0.2-0.2-0.4-0.6-0.5
			C194.2,101.8,193.1,102.2,191.5,102.9z M197.7,102.2c0,0.7,0.2,1.1,0.7,1.1v0.2l-0.3,0.6v0.3c0.1,0.4,0.5,0.6,1.1,0.6h0.7
			c0.4,0,0.6-0.2,0.6-0.7l-0.6-0.9c0.4,0,0.7-0.2,0.9-0.7c0-0.3-0.1-0.4-0.3-0.4l-1.1,0.2l-0.9-0.7
			C197.9,101.8,197.7,102,197.7,102.2z M202.4,77.7l-0.2,0.4c0,0.4,0.2,0.8,0.6,1.1l0.3-0.2c0.4,0,1,0.3,1.8,0.9
			c0.2,0.1,0.5,0.2,0.9,0.2h0.4c0.2,0,0.4-0.2,0.7-0.7c-0.7-1.1-1.3-1.7-1.7-1.7c-0.9,0.4-1.3,0.5-1.4,0.5
			C203.3,77.9,202.8,77.7,202.4,77.7z"/>
		<path class="st0" d="M231.9,72.6h27.2l0.4,1.1l-0.6,0.9v0.7c0,0.3,0.1,0.4,0.4,0.4h0.5c0.1,0,0.2-0.1,0.2-0.2
			c0.2,0.1,0.4,0.2,0.6,0.2v0.8c-0.9,0-1.9,0.6-3.1,1.7h-0.3c-0.5-0.4-1.2-0.6-2.2-0.6c-0.2,0-0.6,0.1-1.1,0.4l-1.1-0.2
			c-0.2,0-0.3,0.2-0.3,0.4c0,0.2,1.3,0.4,3.8,0.7c0.5-0.1,0.8-0.2,0.8-0.6c0.9,0.6,1.8,1.1,2.7,1.5l0.9-0.2v0.2
			c0.5-0.1,0.9-0.6,1.2-1.5l-0.2-0.9l0.2-0.9c-0.6-0.3-0.9-0.9-0.9-2c0.3,0,0.5-0.4,0.8-1.3c-0.1-0.3-0.2-0.4-0.2-0.6H272
			c10,9.6,16.6,16.2,19.7,19.7v0.2h-25.3c0-0.5-0.1-0.7-0.2-0.7l0.2-0.4v-0.3c0-0.2-0.3-0.4-0.9-0.6l-0.2,0.4v0.4l0.5,0.7v0.5H260
			v-0.2c0.7,0,1.1-0.4,1.1-1.1c-0.1,0-0.2-0.1-0.2-0.2c-1.3,0.3-2,0.8-2,1.4H252v17.9l-0.8,0.8l0.8,0.7v34.8l-0.6-0.4
			c0,0.7,0.2,1.1,0.6,1.1v4.2h1.3c0.4,0,0.5,0.1,0.5,0.2l0.9-0.2h6.4c0.4,0,0.6,0.3,0.6,0.8c-0.3,0.4-0.4,0.7-0.4,0.9
			c0.2,0.1,0.8,0.3,1.7,0.4v-0.8c0-0.2-0.3-0.3-0.8-0.3v-1h8.8l-0.2,0.4v0.4c0.1,0.7,0.3,1.1,0.5,1.1v-1.9h0.4
			c0.5,0.1,7.2,6.8,20,19.9l-0.4,0.2h-20.8v-0.2l0.7-1.5v-0.6c0-0.4-0.1-0.5-0.2-0.5l0.2-0.9v-10.2h-0.3c-0.3,0-0.6,2.1-0.9,6.4v1.1
			c-0.6,0.7-0.9,1.3-0.9,1.8c0.4,0.9,0.6,1.4,0.6,1.7c0,0.4-0.3,0.9-0.8,1.6l0.2,0.8c-0.1,0.2-0.2,0.4-0.2,0.5h-37l-0.2-0.9v-8.7
			l0.6-0.8l-0.4-0.7c0.3-0.4,0.4-0.8,0.4-1.1c-0.4-0.1-0.6-0.5-0.6-1.1v-2c0.5-0.4,0.7-0.8,0.7-1.1c-0.3-0.2-0.5-0.3-0.7-0.3v-34.3
			c0.3,0,0.4,0.1,0.4,0.3c0.5-0.2,0.7-0.4,0.7-0.5v-0.2l-0.5-0.7c0-0.6,0.2-1.1,0.7-1.7c-0.2-0.6-0.4-1-0.7-1.3l-0.4,0.2h-0.2V73.6
			L231.9,72.6z M234.3,156.8l0.2,1.1l-0.9,1.1c0,0.4,0.2,0.8,0.6,1.3v0.2c0,0.2-0.4,0.5-1.3,0.9c0.9,1.9,1.6,3.1,2,3.6
			c1.4-0.4,2.1-0.8,2.2-1.1l-0.9-1.1c1.4-0.2,2-0.7,2-1.5c-0.1-1-0.2-1.9-0.2-2.6V158c-0.7-1.4-1.4-2-2.4-2h-0.8
			C234.6,156.1,234.5,156.3,234.3,156.8z M236.1,86.5l0.2,0.3c0,0.3-0.4,0.6-1.1,1.1c-0.6,1-1.1,1.7-1.5,2V90l0.6,0.6
			c0.1,0,0.3-0.1,0.7-0.2c0.7,0.1,1.2,0.2,1.5,0.2l0.2-0.4V90l-0.2-0.9c0.2,0,0.4-0.2,0.7-0.7v-0.2l-0.1-1.3
			c0.6-0.5,0.9-0.8,0.9-0.9l1,0.5l0.2-0.4v-0.4c0-0.6-0.2-1-0.6-1.1c-1.6,0-2.4,0.4-2.4,1.3C236.2,86.2,236.1,86.4,236.1,86.5z
			 M236.9,78.5c0,0.1,0.1,0.3,0.2,0.6l-0.2,1.1v0.2l0.2,0.3c-0.2,0-0.7,0.4-1.3,1.3c-0.9,0-1.3,0.1-1.3,0.4c0.1,0.3,0.5,0.6,1.3,0.9
			c0.2-0.1,0.4-0.2,0.7-0.2c0,0.2,0.2,0.4,0.6,0.6h0.7c0.3-0.1,0.6-0.5,0.9-1.3l-0.5-2c0-0.1,0.3-0.6,0.9-1.3v-0.2l-0.9-0.7V78h0.5
			v-0.6C237.9,77.4,237.3,77.7,236.9,78.5z M234.7,116l-0.2,0.4v0.6c0,0.7,0.4,1.2,1.1,1.4l-0.2,0.9v0.2c0,0.2,0.2,0.3,0.4,0.3h0.1
			c0.4,0,0.6-0.2,0.6-0.7c-0.4-0.5-0.7-1.5-0.9-2.9L234.7,116z M238.1,120.4c0,0.2,0.1,0.6,0.3,1.1c-0.5,0.3-0.7,0.4-0.7,0.5
			c-0.2,0-0.6-0.4-1.3-1.3H236l-0.2,1.3v0.4c0,0.4,0.7,0.6,2,0.6h0.3c1,0,1.8-0.4,2.4-1.3c-0.6-0.9-1.1-1.3-1.4-1.3
			c-0.3,0-0.4-0.2-0.4-0.6h-0.4C238.2,119.8,238.1,120,238.1,120.4z M237,100.3c-0.4,0.4-0.6,1.6-0.8,3.5H236
			c0.1,0.3,0.3,0.9,0.4,1.8c1.4,0,2.1-0.8,2.2-2.4c-0.5-0.6-0.7-1.1-0.7-1.3l0.3-0.7C238.1,100.6,237.7,100.3,237,100.3z
			 M236.9,108.5l0.2,0.4v0.3l-0.6,0.8c0,0.2,0.2,0.3,0.4,0.3h0.9v-0.3l-0.2-0.4l0.9-0.6h0.2l1.1,0.9h0.4c0.2-0.2,1-0.4,2.4-0.6
			c0-0.1,0.1-0.3,0.2-0.5l-0.8-0.6l-1.1,0.2c-0.4-0.3-0.8-0.4-1.1-0.4h-0.3l-0.6,0.4h-0.4c0-0.4-0.3-0.6-0.9-0.6L236.9,108.5z
			 M237.8,137.2c0.6,0.8,1,1.2,1.1,1.2c-0.1,0.4-0.3,0.6-0.4,0.6c0.2,0.5,0.4,0.7,0.6,0.7h0.5c0.2,0,0.4-0.2,0.6-0.5l-0.2-0.9
			c0.7,0,1.1-0.7,1.3-2v-1.6c0-0.3-0.1-0.4-0.4-0.4c-1.4,0.5-2.2,1.1-2.4,1.7C238,136.1,237.8,136.5,237.8,137.2z M240.3,81.9
			c-0.3-0.1-0.4-0.1-0.6-0.1l-0.5,0.7c0.3,0.6,0.5,0.9,0.7,0.9h0.6c0.7-0.4,1.1-0.6,1.1-0.7l1.1,0.3l1.6-0.5v-0.4
			c0-0.2-0.7-0.4-2.2-0.5v-0.2C241.3,81.7,240.7,81.9,240.3,81.9z M240.6,80.3l0.9,0.2c0.9,0,1.4-0.2,1.4-0.6
			c0.7,0.5,1.3,0.7,1.7,0.7h0.2c-0.2-0.8-0.4-1.2-0.8-1.2h-0.3l-0.6,0.3H243c-0.3,0-0.7-0.1-1.1-0.3C241.1,79.7,240.6,80,240.6,80.3
			z M245.6,142.2l-1.1-0.2c-0.1,0.3-0.2,0.4-0.2,0.6c0.4,1.5,0.7,2.2,0.8,2.2c0,1.2-0.5,1.8-1.5,1.8c-0.1,0-0.3-0.1-0.6-0.2
			c-0.5,0.2-0.7,0.4-0.7,0.5v0.2c0,0.2,0.4,0.4,1.1,0.6c0.3-0.5,0.6-0.8,0.9-0.8c0.3,0.1,0.4,0.2,0.6,0.2v1.3c0.7,1.3,1.5,2,2.2,2.4
			c1-0.1,1.5-0.6,1.5-1.3c-0.1-0.2-0.9-0.4-2.2-0.5v-0.2c0-0.9,0.2-1.4,0.5-1.5h1.7c1.5-0.4,2.2-0.7,2.2-1.1c0-0.2-0.4-0.5-1.3-0.8
			l-0.9,0.6h-0.4c-0.1,0-0.3-0.2-0.5-0.7c0.5-0.7,0.7-1.3,0.7-1.7V143c0-0.3-0.3-0.5-0.9-0.5l-1.1,0.5v-0.5c0.4,0,0.5-0.1,0.5-0.4
			v-0.3C246.3,142.1,245.8,142.2,245.6,142.2z M245.6,129.3c-0.3,0.3-0.6,1.1-0.7,2.4c-0.5,0.1-0.8,0.3-0.8,0.8l0.4,0.2h0.4
			c0.7,0,1.1-0.2,1.5-0.7c-0.2,0-0.4-0.3-0.6-0.9c0.5-0.4,1-0.6,1.3-0.6C246.8,129.7,246.3,129.3,245.6,129.3z M246.9,163.2v0.6
			h-0.5c-0.1,0-0.3-0.2-0.6-0.6c-0.7,0.2-1.1,0.6-1.1,1.3c0,0.3,0.7,1.1,2,2.4c0.7,0,1.3-0.7,1.8-2.2c0-0.6-0.2-1-0.6-1.1l1.3-2.6
			H249c-0.1,0-0.2,0.1-0.2,0.2l-0.3-0.2h-0.2C247.3,161.4,246.9,162.2,246.9,163.2z M245.8,137.3c0,0.4,0.6,0.7,1.7,0.9
			c0.5-0.4,1.2-0.7,2-0.9c-0.3-0.7-0.9-1.1-2-1.1C246.5,137,245.9,137.3,245.8,137.3z M249.8,74.3c0.1,0.7,0.2,1.2,0.2,1.5
			c-0.3,0.8-0.4,1.3-0.4,1.4c0.1,0.2,0.2,0.5,0.2,0.8c-1,0.7-1.5,1.1-1.5,1.5c-0.6-0.8-1-1.1-1.3-1.1c0,1.5-0.1,2.2-0.4,2.2
			c0.1,0.2,0.2,0.4,0.2,0.5l-0.2,0.8c0.3,0.7,0.7,1.1,1.5,1.1h0.4c0.2,0,0.4-0.2,0.5-0.6c0-0.2-0.4-0.7-1.3-1.3v-0.2
			c0-0.2,0.1-0.6,0.4-1.1l0.4,0.2h0.9c0-0.5,0.6-1.1,1.8-1.8v-0.4c0-0.9-0.1-1.5-0.3-2c0.4-0.1,0.5-0.5,0.5-1.1v-0.2l-0.5-0.9
			C250.8,73.6,250.4,73.8,249.8,74.3z M252.5,163.6c0,0.1,0.3,0.5,0.8,1.1c-0.4,0.6-0.8,0.9-1.5,0.9v0.4c0,0.2,0.2,0.4,0.6,0.6
			c0-0.6,0.7-1,2.2-1.1l0.2-0.4v-0.6c-0.5-0.3-0.8-0.9-0.9-1.8h-0.2C252.9,162.7,252.5,163,252.5,163.6z M254.5,156.3
			c0,0.6,0.9,0.9,2.6,0.9l0.1,0.3v1.1h0.2c0.3,0,0.4-0.1,0.4-0.3v-0.6c0-0.1-0.1-0.2-0.2-0.2c0.2-0.5,0.5-0.9,0.9-1.1l0.6,0.4h0.7
			c0-0.3,0.1-0.4,0.2-0.4c-0.1-0.5-0.2-0.7-0.4-0.7c-0.3,0-0.7,0.2-1.3,0.5h-0.2c-0.2,0-0.5-0.4-0.9-1.1c-0.5,0.4-1.4,0.6-2.5,0.8
			C254.7,156.2,254.7,156.3,254.5,156.3z M261.3,86.8c0,0.1-0.1,0.3-0.2,0.6h0.6c0,0.3-0.2,0.7-0.6,1.3c-0.3-0.1-0.8-0.3-1.6-0.4
			c-0.2,0-0.8,0.6-1.8,1.8l0.4,0.2h1.1c0-0.4,0.4-0.9,1.1-1.4v-0.2h0.4l0.5,0.3c0.3,0,0.4-0.1,0.4-0.3l0.9,0.2
			c0.2-0.1,0.4-0.2,0.6-0.2c0,0.1,0.1,0.2,0.2,0.2c0.6-0.5,0.9-1,0.9-1.5c-0.1,0-0.2-0.1-0.2-0.2l-0.4,0.2h-0.2
			c-0.1,0-0.2-0.1-0.2-0.2l-0.3,0.2h-0.2l-0.6-0.4h-0.5v-0.2H261.3z M265.8,75.4c0,0.3-0.2,0.4-0.5,0.4V76l0.3,0.5v0.4
			c0,1.1-1.2,2.4-3.5,4.2c-0.1,0-0.3,0.1-0.5,0.2c0-0.1-0.2-0.3-0.6-0.6c-0.5,0.2-0.7,0.4-0.7,0.6s0.3,0.5,0.9,0.9l0.9-0.7
			c0,0.3,0.5,0.6,1.5,0.7v1.3l0.4-0.2h0.2v0.6H264l-0.4-0.2c-0.2,0.1-0.5,0.2-0.7,0.2l0.2,0.7l-0.2,0.4c0,0.5,0.5,0.9,1.6,1.1
			c0.3,0.4,0.7,0.6,1.3,0.6l0.4-0.2v0.3h0.9l0.9-0.7h0.4l-0.2,0.4v0c0,0.2,0.2,0.4,0.7,0.7h0.6c0-0.4,0.2-0.7,0.6-0.9l-0.4-1.1h0.5
			v-1.1c-0.3,0-0.6-0.1-0.9-0.4h-0.4c0,0.4-0.1,0.5-0.3,0.5l-0.9-0.2c0,0.1-0.1,0.2-0.2,0.2c0-0.2-0.1-0.3-0.2-0.3l-0.9,0.2v-0.2
			l0.5-0.8v-0.2c-0.5,0-0.7-0.3-0.7-0.9c0.2,0,0.3-0.1,0.3-0.3v-0.4c-0.5,0-0.7-0.1-0.7-0.4c0.3,0,0.4-0.2,0.4-0.7h0.2l0.5,0.3h0.2
			c0.2,0,0.5-0.3,0.9-0.9l1.5,0.8l-0.2,0.3v0.6c0.1,0.3,0.2,0.4,0.4,0.4c0.2,0,0.4-0.3,0.5-0.9l0.9,0.2h0.2v-4.2
			c-0.3,0-0.6-0.2-0.9-0.6h-0.7c-1,0.4-1.6,0.7-2,1.1h-0.4v-0.2c0-0.2,0.2-0.3,0.5-0.3v-0.2c-0.4-0.3-0.5-0.7-0.5-1.1
			C267.2,75.6,266.7,75.5,265.8,75.4z M264,153.2h0.2c-0.1,0.2-0.2,0.4-0.2,0.5l0.2,0.9c-0.1,0-0.3,0.2-0.7,0.7l0.2,0.4
			c0,0.1-0.1,0.2-0.2,0.2c0.2,0.5,0.4,0.7,0.6,0.7h0.3l1.5-2c0-0.6-0.2-1.5-0.5-2.7h-0.2C264.6,152.2,264.2,152.6,264,153.2z
			 M267.8,152.8l-0.3-0.2c-0.7,1-1.1,1.6-1.1,1.8c0.2,0,0.3,0.2,0.3,0.5c0,0.2-0.5,0.7-1.4,1.5c1.2,0.6,2.1,0.9,2.7,0.9
			c0.9-0.1,1.3-0.3,1.3-0.5v-0.3c-0.4,0-0.5-0.2-0.5-0.5h-0.2l-0.6,0.3c0-0.1-0.1-0.2-0.2-0.2l0.2-0.3v-0.4h-0.5
			c0.2-1.2,0.4-1.8,0.7-1.8c0.3,0,0.4,0.1,0.4,0.3v0.2c0,0.1-0.1,0.2-0.2,0.2l0.2,0.4v0.9h0.3c0.2,0,0.4-0.2,0.6-0.7
			c-0.1-0.3-0.2-0.4-0.2-0.6c0.3-0.4,0.4-0.7,0.4-0.9c-0.2-0.5-0.5-0.9-0.9-1.1h-0.2L267.8,152.8z"/>
		<path class="st0" d="M287.5,72.6h12.2c0,0.2-0.2,0.4-0.6,0.6L298,73l-0.6,0.4c-0.2-0.1-0.4-0.2-0.5-0.2c-0.3,0-0.6,0.4-1.1,1.1
			h-0.4v0.5c0.5,0.5,0.8,0.9,0.8,1.1c-0.1,1.1-0.2,1.7-0.2,2l0.3,0.2c1.2-0.5,2.6-0.8,4-0.8h1.7c0.6,0,0.9-0.2,0.9-0.5h0.7
			c0.1,0,0.2,0.1,0.2,0.2c0.3-0.1,0.6-0.4,0.9-0.9v-0.2c-0.4,0-0.5-0.1-0.5-0.4c0.3-1,0.8-1.5,1.6-1.5c-0.1-0.2-0.2-0.4-0.2-0.7
			c-0.6,0-0.9,0.1-0.9,0.3c-0.4-0.2-0.9-0.3-1.4-0.3h-0.2l-1.3,0.7c-0.3-0.4-0.4-0.8-0.4-1.1v-0.2l0.9-0.2h53.4
			c0,0.7,0.3,1.1,0.9,1.1c0.4-0.4,0.6-0.8,0.6-1.1h5.6c-7.6,7.9-14.2,14.6-19.9,19.9h-8.6v25.5c-1-0.2-1.5-0.5-1.5-1.1h-0.7v0.9
			l-0.4,0.2c-0.5-0.1-0.9-0.2-1.3-0.2c-0.5,0.1-0.7,0.4-0.7,0.9l0.4,0.2c-0.3,0.4-0.4,0.8-0.4,1.1c0.3,0.4,0.4,0.7,0.4,0.9
			c-0.2,0-0.4,0.2-0.6,0.6l0.6,0.4c0.2-0.4,0.3-0.8,0.3-1.1h0.2v0.4h0.9l1.1,0.8h0.7c0-0.4,0.1-0.6,0.4-0.6c0.2,0.1,0.4,0.2,0.5,0.2
			v5.6c0,0.3-0.1,0.4-0.4,0.4s-0.5-0.6-0.7-1.8h-0.4c-0.2,0-0.4,0.6-0.5,1.8c0.1,0.2,0.2,0.4,0.2,0.7l-0.2,0.4l0.4,0.2l-0.4,0.9
			l0.5,0.4h0.6v-0.2c-0.3-0.4-0.4-0.8-0.4-1.1v-0.2c0-0.2,0.3-0.5,0.9-0.9c0.3,0,0.4,0.1,0.4,0.3v8.2c-0.3,0-0.4-0.2-0.4-0.5h0.2
			c-0.2,0-0.6,0.4-1.3,1.3l0.2,0.9c-0.1,0.5-0.2,1-0.2,1.5l0.5,0.3c0.2,0,0.6-0.2,1.3-0.7v5.3L333,143h-0.3c-0.1,1.3-0.3,2-0.4,2
			c0.3,0.4,0.4,0.8,0.4,1.1h0.2c0-0.4,0.4-0.7,1.1-1.1h0.5v17.3l-0.9,0.8c0,0.4,0.3,0.5,0.9,0.5v4.9h-1.3c-0.4,0.8-0.5,1.2-0.5,1.5
			v0.2c0,0.5,0.1,1,0.3,1.4h-18.6v-41.2h0.6c-0.3,0.5-0.4,0.9-0.4,1.3l0.6,0.4c0.4-0.3,0.7-0.4,1.1-0.4c0,0.3,0.2,0.4,0.5,0.4
			c0.7,0,1.3-0.4,1.7-1.3c-0.2,0-0.4-0.2-0.6-0.6v-0.5c0.7,0,1.1-0.4,1.1-1.3c-0.5-0.1-0.8-0.5-1.1-1.3c0.1-0.2,0.2-0.4,0.2-0.7
			c-0.5-0.2-0.7-0.5-0.7-0.8h-0.8l-1.3,0.2c0-0.1-0.1-0.2-0.2-0.2l-0.6,0.9v0.3l0.4,0.6c0,0.2-0.1,0.3-0.4,0.3h-0.2v-22h0.6
			c0.2,0,0.4,0.3,0.7,0.9c0.4-0.2,0.8-0.3,1.1-0.3l0.7,0.2v-0.8c0-0.3-0.6-0.6-1.8-0.9l-1.1,0.2l-0.2-0.4v-4.1
			c0.9-1,1.3-1.8,1.3-2.4c-0.2-0.7-0.6-1.1-1.3-1.1v-1.5l0.6-0.8v-0.2h-0.6v-2h-8.7c-2-1.9-5.7-5.6-11.1-11.1h0.4v-0.6h-0.6v0.4
			c-0.1,0-1.2-1-3.1-3.1c0.6,0,1.2-0.3,1.6-0.8c-0.1-0.5-0.3-0.7-0.7-0.7v-0.7l1.5-0.6c0.1-0.6,0.2-0.9,0.3-0.9
			c0-0.3-0.5-0.8-1.6-1.5h-0.4c-0.1,0-0.6,0.1-1.5,0.4h-0.5c-0.1,0-0.2-0.1-0.2-0.2c-0.8,0.5-1.4,0.7-1.8,0.7l-0.6-0.7v-0.5H287.5z"
			/>
		<path class="st0" d="M369.2,72.1h4.5c2.4,0,4.1,0.1,5.3,0.3l-0.2,1.3l0.6,0.4c0.2,0,0.3-0.1,0.3-0.4v-1.4l0.9-0.2h0.8l1.1,0.2
			l0.4-0.2c0.1,0,0.2,0.1,0.2,0.2l1.8-0.2h2.9c0.2,0,0.4,0.2,0.6,0.5V77c0,0.6-0.1,1.7-0.2,3.1c-0.1,0-0.3,0.1-0.5,0.2
			c0,0.1,0.2,0.6,0.7,1.3v10.2c0,0.3-0.1,0.4-0.4,0.4h-11.8l0.2-0.4v-0.2c0-0.2-0.1-0.3-0.3-0.3c-0.4,0.4-1.2,0.7-2.4,0.9h-1.8
			l-1.1-0.2c-0.2,0.1-0.4,0.2-0.6,0.2V92c0.2-0.9,0.5-1.3,0.9-1.3V90l-0.6-0.8l-1.3,0.2h-0.5c-0.3,0-0.4-0.1-0.4-0.4v-8.9h3.1
			c3.1,0,5,0.1,5.7,0.4c0.2-0.1,0.4-0.2,0.7-0.2h1.1v0.3c0,0.1-0.1,0.2-0.2,0.2l0.2,0.4v1.3c0,0.7-0.2,1.1-0.7,1.3h-0.4
			c-1-1.1-1.5-1.8-1.5-2.4c-0.9,0.2-1.6,0.3-2,0.5c-0.2-0.1-0.5-0.1-0.7-0.1l-0.2,0.3v0.2h2c0.5,0.7,0.8,1.4,0.9,2
			c0.1,0,0.2,0.1,0.2,0.2l0.4-0.2c1.4,0,2.3,0.7,2.7,2c0.4,0,0.8,0.3,1.1,0.9c-0.2,0.6-0.3,1-0.3,1.3l0.7,0.5c0.5,0,0.8-0.7,0.9-2.2
			c0.3,0,0.9-0.7,1.7-2c-0.9,0-1.3-0.9-1.3-2.6l0.4,0.2c0-0.5,0.1-0.7,0.3-0.7h1.1l0.3,0.1v-0.1c0.4,0.1,0.9,0.5,1.5,1.1v0.7
			c0,0.1-0.4,0.4-1.1,1.1v0.2c0,0.3,0.2,0.4,0.5,0.4c0.4-0.3,0.7-0.4,0.9-0.4c0,0.2,0.2,0.4,0.7,0.7c0-0.4,0.1-0.5,0.2-0.5l-0.2-0.9
			c0-0.5,0.1-1,0.4-1.5l-0.4-2l-1.7,0.4c-0.2-0.1-0.5-0.2-0.9-0.2V81c-0.7,0-1.3-0.5-1.8-1.6h-0.2c-0.3,0.4-0.9,0.5-1.8,0.5
			l-1.1-2.9l-0.3-0.2c-1.3,0.1-2.2,0.2-2.9,0.2v-0.9c-0.4,0-0.5,0.3-0.5,0.8h-0.4l-1.1,0.2c-0.2-0.1-0.5-0.2-0.7-0.2
			c-0.1,0-0.2,0.1-0.2,0.2l-0.9-0.2h-1.2l-0.6-0.4c-0.4,0.3-0.8,0.4-1.1,0.4l-0.6-0.4h-0.1l-0.6,0.4v-4.6L369.2,72.1z M369.2,94.7
			h1.7c0.1,0,0.2,0.1,0.2,0.1l0.3-0.1h2.6c-0.1,0.3-0.4,0.6-0.9,0.9v-0.2c-1.1,0-1.7,0.7-1.7,2.2c-1.3,1.1-2,2.1-2,2.9
			c0,0.3-0.1,0.5-0.2,0.7c0.1,0.2,0.2,0.4,0.2,0.6c-0.3,1.1-0.4,1.9-0.4,2.4v0.2h0.6c0-0.3,0.1-0.6,0.4-0.9V102c0-0.2,0.3-0.9,0.9-2
			h-0.2c0-0.9,0.7-1.3,2-1.3c0-0.3,0.2-0.4,0.6-0.4v-0.1h-0.4c0-1.4,0.6-2,1.7-2c0.3-1,0.9-1.4,1.8-1.4h11.5c0.2,0,0.4,0.2,0.6,0.5
			v10.8l-0.7,0.2v0.2l0.7,0.7v2.4c-0.2,0-0.4-0.2-0.7-0.7l0.3-0.6v-0.2c0-0.2-0.2-0.4-0.5-0.5c-0.3,0.1-0.4,0.2-0.6,0.2l-0.2-0.4
			c0.3,0,0.4-0.1,0.4-0.4v-0.2c0-0.4-0.8-0.6-2.4-0.7c-0.4-1-0.7-1.5-0.9-1.5l-1.5,0.9c-0.4-1-0.7-1.4-0.9-1.4h-0.6l-1.6,1.3
			l0.5,0.9v0.5l-0.7,0.2c0,0.4,0.4,0.7,1.1,1.1c0.8-0.2,1.5-0.8,2-2h0.4c0,0.9,0.6,1.5,1.8,1.7h1.5l0.9-0.2v0.3
			c-0.6,1-0.9,1.6-0.9,2v0.2c0,0.2,0.2,0.4,0.6,0.5h0.3c0.2,0,0.8-0.2,1.7-0.5v2.2c-0.4,0-1.1,0.2-2,0.5c0-0.2-0.3-0.4-0.8-0.5
			c-0.1,0.2-0.2,0.4-0.2,0.5c0.5,0.9,1,1.3,1.5,1.3c0.4,0,0.9-0.1,1.5-0.3v23.7l-0.4-0.2h-0.2c-0.2,0-0.4,0.2-0.5,0.6v0.2
			c0,0.2,0.4,0.3,1.1,0.3V171l-0.9,0.2h-8.2l0.2-0.4v-0.3H379l0.4-0.5v-6c-0.2,0-0.4,0.3-0.6,0.9c0,0.2,0.1,0.7,0.4,1.3
			c-0.3,0.5-0.4,1.8-0.6,3.8c0.1,0.2,0.2,0.4,0.2,0.5c-0.2,0.5-0.4,0.8-0.6,0.8h-9.1l-0.9-0.2v-5.8c0.3-0.3,0.4-1,0.6-2.4h0.1
			c-0.1-0.3-0.1-0.4-0.1-0.6c0-0.4,0.7-0.7,2-0.9c0.4-0.7,0.5-1.1,0.5-1.3l-0.5-0.4c-0.4,0-0.7,0.4-0.9,1.1c-0.3,0-0.4-0.4-0.4-1.2
			c-0.6,0.2-1.1,0.3-1.3,0.3v-4.2c1,0,1.6-0.4,1.8-1.3c-0.2-1.8-0.6-2.7-1.4-2.7c0,0.3-0.1,0.4-0.4,0.4v-4h0.4V148h-0.4v-11.7
			c0.5-0.5,0.7-1,0.7-1.3c-0.1,0-0.1-0.1-0.1-0.2l-0.4,0.2h-0.2v-2.5h0.4l0.5,0.3c0.3,0,0.4-0.1,0.4-0.3l0.9,0.2
			c0.3-0.1,0.4-0.2,0.6-0.2c0,0.1,0.1,0.2,0.2,0.2c0.6-0.5,0.9-1,0.9-1.4c-0.1,0-0.2-0.1-0.2-0.2l-0.4,0.2h-0.2
			c-0.1,0-0.2-0.1-0.2-0.2l-0.4,0.2h-0.2l-0.6-0.4h-0.5v-0.2h-0.2c0,0.1-0.1,0.3-0.2,0.6h0.6c0,0.3-0.2,0.7-0.6,1.3
			c-0.2-0.1-0.5-0.2-0.9-0.2v-0.8h0.6v-0.2h-0.6v-2.2c0.4,0,0.6-0.2,0.6-0.5h-0.6v-5.3h0.2c0.1,0,0.2,0.1,0.2,0.2
			c0.5-0.1,0.9-0.6,1.3-1.5l-0.2-0.9l0.2-0.9c-0.6-0.3-0.9-0.9-0.9-2c0.2,0,0.5-0.4,0.8-1.1l-0.2-0.9c0-1.2,1.1-2.4,3.3-3.6v-0.5
			h-0.2c-1.1,0.3-1.9,0.4-2.4,0.4c0-0.5-0.1-0.8-0.3-0.8l-0.6,0.4c-0.4-0.4-0.5-0.7-0.5-0.9l-0.4,0.2l0.2,0.3c0,0.1-0.1,0.3-0.2,0.8
			c0.1,0.2,0.2,0.4,0.2,0.7l-0.4,0.2V94.9L369.2,94.7z M373.9,119.1c0,0.3-0.2,0.4-0.5,0.4v0.1l0.3,0.6v0.4c0,1.1-1.2,2.4-3.5,4.2
			c-0.1,0-0.3,0.1-0.5,0.2c0-0.1-0.2-0.3-0.6-0.6c-0.5,0.2-0.7,0.4-0.7,0.6s0.3,0.5,0.9,0.9c0.6-0.5,0.9-0.7,0.9-0.7
			c0,0.3,0.5,0.5,1.5,0.7v1.3l0.4-0.2h0.2v0.6h-0.2l-0.4-0.2c-0.2,0.1-0.4,0.2-0.7,0.2c0,0.1,0.1,0.3,0.2,0.7l-0.2,0.4
			c0,0.5,0.5,0.9,1.6,1.1c0.3,0.4,0.7,0.5,1.3,0.5l0.4-0.2v0.3h0.9l0.9-0.7h0.4l-0.2,0.4v0.2c0,0.2,0.3,0.5,0.8,0.8h0.5
			c0-0.4,0.2-0.7,0.6-0.9l-0.4-1.1h0.5V128c-0.3,0-0.6-0.1-0.9-0.3H377c0,0.4-0.1,0.5-0.4,0.5l-0.9-0.2c0,0.1-0.1,0.2-0.2,0.2
			c0-0.2-0.1-0.3-0.2-0.3l-0.9,0.1v-0.1l0.5-0.8v-0.2c-0.5,0-0.7-0.3-0.7-0.9c0.3,0,0.4-0.1,0.4-0.4v-0.3c-0.5,0-0.8-0.1-0.8-0.4
			c0.3,0,0.4-0.2,0.4-0.7h0.2l0.5,0.3h0.2c0.2,0,0.5-0.3,0.9-0.9l1.5,0.8l-0.2,0.3v0.6c0,0.2,0.2,0.3,0.4,0.3c0.2,0,0.4-0.3,0.5-0.9
			l0.9,0.2h0.2v-4.2c-0.3,0-0.6-0.2-0.9-0.6h-0.7c-1,0.4-1.6,0.7-2,1.1h-0.4V121c0-0.2,0.2-0.3,0.6-0.3v-0.2
			c-0.4-0.3-0.6-0.7-0.6-1.1C374.5,119.2,374,119.1,373.9,119.1z M371.5,147.7c0.5,0.2,1.3,0.4,2.2,0.5l0.4-0.2h3.1
			c0.6,0.5,1,0.8,1.1,0.8l0.6-0.8v-0.5c0-0.3-0.1-0.4-0.4-0.4l-1.3,0.2c-0.7-0.1-1.2-0.2-1.6-0.2l-0.4,0.2l-0.9-0.4
			C372.4,147.1,371.5,147.3,371.5,147.7z M371.9,157.5c0.3,0.5,0.4,0.9,0.4,1.1l-0.4,0.8c0.3,1.7,0.4,2.7,0.4,2.9
			c-0.4,0.6-0.6,1.1-0.6,1.5v1.1c0.1,0.3,0.2,0.4,0.4,0.4c1.1,0,1.8-0.7,2-2.2v-0.2c0-0.3-0.4-0.5-1.3-0.8c0-0.7,0.2-1.6,0.6-2.7
			c-0.2-1.5-0.5-2.2-0.8-2.2h-0.3C372,157.2,371.9,157.3,371.9,157.5z M373.2,155.2v0.4c0,0.3,0.2,0.4,0.5,0.4v0.1l-1.1,0.2v0.8
			l1.7,0.2c0.6-0.4,1.1-0.6,1.5-0.6v0.2c0.2-0.1,0.4-0.2,0.5-0.2v-0.6h-2V156c0.3-0.3,0.4-0.6,0.4-1.1c-0.2-0.1-0.5-0.2-0.8-0.2
			C373.4,154.8,373.2,155,373.2,155.2z M380.1,96.1c0.3,0.4,0.4,0.8,0.4,1.1c0,0.3-0.1,0.4-0.4,0.4h-0.2l-1.3-0.2
			c0,0.1-0.2,0.3-0.7,0.6c-1.3-0.1-2.1-0.4-2.4-0.8H375l-0.7,0.6c0,0.6,0.8,1,2.4,1.3c0,0.5,0.4,1.2,1.1,2.2
			c0.8-0.6,1.3-0.9,1.7-0.9v-0.6c-0.6,0-0.9-0.2-1.1-0.7v-0.6h1.5c-0.1,0.7-0.2,1.2-0.2,1.5l0.4,0.7c-0.3,0.1-0.4,0.2-0.4,0.4
			c0.9,1.2,1.3,1.9,1.3,2.2h0.2c0-0.5,0.3-1.6,0.9-3.1c0-1.5-0.4-2.2-1.1-2.2l0.8-1.8v-0.5c0-0.2-0.2-0.4-0.6-0.6
			C380.6,95.1,380.3,95.4,380.1,96.1z M375.9,142.2c0,0.5,0.5,0.8,1.6,0.9l-0.2,0.9c0,0.2,0.2,0.3,0.6,0.3c1.2,0,1.8-0.3,1.8-0.9
			c-0.4-1-0.5-1.6-0.5-1.8c0.2,0,0.3-0.1,0.3-0.4v-0.4c0-0.2-0.2-0.4-0.5-0.5c0,0.1-0.3,0.4-0.9,0.9c-0.5,0-0.8-0.4-0.9-1.1h-0.5
			C376.5,140.2,376.2,140.9,375.9,142.2z M377.9,109.4v0.4c1.7,0.5,2.6,1.1,2.6,1.6c-0.2,0-0.6,0.4-1.3,1.3c0.2,1,0.4,1.5,0.7,1.5
			h0.7l0.9-0.2c0,0.1,0.1,0.2,0.2,0.2c0-0.2,0.1-0.4,0.3-0.7l-0.2-0.9h0.2c0-0.4-0.5-0.8-1.5-1.1c0.2-0.6,0.6-1,1.1-1.3
			c0.2,0.1,0.4,0.2,0.5,0.2c0.5-0.1,0.7-0.5,0.7-1.1l-0.5-0.3h-0.4l-1.1,0.2c-1-0.4-1.7-0.5-2-0.5
			C378.5,108.7,378.1,109,377.9,109.4z"/>
		<path class="st1" d="M393.7,71.7h23.1v0.9c0.1,0.3,0.2,0.4,0.4,0.4c0.4-0.5,0.5-0.9,0.5-1.3h15.7c2.2,2,3.3,3.1,3.3,3.5
			c0.5,0,2.5,1.8,5.8,5.5c3.3,3.3,4.9,5,4.9,5.1v4.7c0,0.2-0.2,0.4-0.7,0.6c0-0.1-0.1-0.2-0.2-0.2v0.2c0.1,0.4,0.3,0.5,0.4,0.5
			l-0.2,0.4v0.2h0.4l0.3-0.2v35.2c0,0.3-0.1,0.4-0.3,0.4l0.2,0.9v0.2c-0.5-0.7-0.9-1.1-1.3-1.1l-1.1-0.2v-0.6
			c0.1-0.2,0.2-0.3,0.4-0.3c0.2,0.1,0.4,0.2,0.6,0.2l0.3-0.8l-0.7,0.4l-0.2-0.4l0.2-0.4c-0.7-0.2-1.1-0.3-1.5-0.3l0.2-0.9l-0.4-0.2
			h-0.5l-1.1,1.1c-0.3,0-0.5-0.1-0.8-0.2c-0.7,0.3-1.1,0.7-1.1,1.5l0.4,0.2h0.2c0.6,0,1.5-0.1,2.7-0.2c0.1,0.2,0.2,0.3,0.4,0.3
			c0-0.2,0.2-0.3,0.4-0.3c0.3,0,0.4,0.1,0.4,0.3l-1.5,1.5v0.2c0.2,0,0.7,0.2,1.6,0.7V129c0.4,0.2,0.8,0.3,1.1,0.3h0.6l0.7-0.5
			l0.2,0.3v40.8l-0.2,0.9h-39.9c-0.1,0-3.1-3-8.9-8.9c0.3,0,0.4-0.1,0.4-0.4v-0.2h-1.1c0-0.3-1.4-1.8-4.2-4.6V72.6L393.7,71.7z
			 M413.4,91.6v7.1H413v0.4h0.4v8.7c-0.9,0.1-1.3,0.4-1.3,0.8v0.2c0.3,0,0.4,0.1,0.4,0.2l0.9-0.4v38.6c0,0.8,1.1,2.1,3.3,3.8h10.8
			v-18.4h0.6l0.3,0.2l0.2-0.3v-0.2c0-0.3-0.4-0.4-1.1-0.4v-1.1c0-0.1,0.1-0.2,0.2-0.2l-0.2-0.4V100c0.5,0.3,0.9,0.4,1.5,0.4
			l-0.2,1.3h0.6c0.9-0.4,1.8-0.6,2.6-0.6c0-0.1,0.4-0.4,1.1-0.9c0.7,0,1.1,0.5,1.3,1.5h0.5c0.9-0.9,1.7-1.3,2.2-1.3h0.2l1.3,0.3
			c0-0.2,0.7-0.4,2.2-0.7h0.2c0.3,0,0.5,0.1,0.7,0.2c0.2-0.1,0.5-0.2,0.9-0.2c0-0.3-0.1-0.4-0.4-0.4h-0.9c-0.3,0-0.5,0.1-0.8,0.2
			c-0.4-0.2-0.8-0.3-1.1-0.3H438c-1,0-2.1,0.1-3.5,0.2c-0.2-0.1-0.4-0.2-0.5-0.2c-0.4,0.2-0.8,0.3-1.1,0.3c-0.7,0-1.2-0.5-1.5-1.5
			c-0.7-0.6-1.3-0.9-1.8-0.9c-0.2,0-1,0.3-2.2,0.9v-3.8c-0.2,0-1.2-0.9-2.9-2.6l-0.6-0.4L413.4,91.6L413.4,91.6z M419.4,75.8
			c0,0.6,0.3,0.9,0.9,0.9h0.2v0.4c-0.6,0.5-0.9,1.2-0.9,2h0.5c0-0.5,0.7-1,2-1.7c0.5-0.7,0.7-1.3,0.7-1.8l-1.3-0.9L419.4,75.8z"/>
		<path class="st1" d="M453.3,54.4h0.1c0.2,0,1,0.8,2.4,2.4h-0.3c-0.3-0.1-0.4-0.2-0.6-0.2v0.8c0.1,0.2,0.2,0.3,0.4,0.3l0.9-0.7
			l3.8,4c0,0.8-0.1,1.7-0.2,2.7l0.2,0.8l-0.2,1.1l0.4,0.7c0,1.3-0.5,2-1.5,2.4l-0.2,0.4c0.6,0.5,0.9,1.1,0.9,2h0.8
			c0.4-1.5,0.5-2.7,0.5-3.6c-0.2-0.4-0.3-0.8-0.3-1.1l0.3-0.5c-0.2,0-0.3-0.1-0.3-0.4v-0.8h0.3v-1.2c0.3,0,0.7-0.2,1.3-0.7
			c8.7,8.8,13.1,13.3,13.1,13.5v0.5c-0.4,0.9-1.3,1.6-2.6,2c-1.3,1.1-2,2-2,2.7c0.2,0.5,0.6,0.7,1.3,0.7c0.6,0,1-0.7,1.1-2l0.4-0.2
			h0.5c0.6,0,0.9,0.2,0.9,0.6c0.3-0.1,0.4-0.2,0.6-0.2l-0.2-0.9c0.1-1.7,0.5-2.6,1.1-2.6l15.4,15.6h-0.2l-1.1-0.2l-0.2,0.4v0.2
			c0,0.1,0.7,0.5,2,1.1c0,0.1,0.1,0.1,0.2,0.1l0.6-0.3c0.2,0,1.9,1.6,5.1,4.7v-4.9h1.1c0.2,0,0.4-0.2,0.5-0.6l-0.9-0.7
			c-0.2,0.1-0.4,0.2-0.7,0.2v-1.7c0-0.4,0.1-0.5,0.2-0.5l-0.2-0.9V71.6c0-0.2,0.2-0.4,0.5-0.6h13.8l0.9,0.2
			c-0.4,0.6-0.7,0.9-1.1,0.9c0,0.4,0.2,0.6,0.7,0.6l-0.6,0.7v0.4c0.2,0,0.3-0.1,0.6-0.2l0.9,0.2c0.5-1.4,0.8-2,1.1-2l0.9,1.1
			c0.1,0.7,0.3,1.1,0.5,1.1h0.9l0.8-0.6v2c0,0.4-0.1,0.6-0.2,0.6l0.2,0.9v11.8h-0.6v0.4c0.4,0.4,0.6,0.9,0.6,1.3
			c-0.5,0.5-0.9,0.7-1.1,0.7V92c0.7,0,1.1,0.1,1.1,0.4v2c-0.8-0.9-1.4-1.5-2-1.8c-0.2-0.6-0.5-0.9-0.7-0.9H515
			c-0.1,0-0.4,0.5-0.7,1.4c-0.7,0.5-1.2,0.8-1.5,0.8l-0.7-1.1c0.5-1,0.7-1.6,0.7-1.8c-0.3,0-0.4-0.1-0.4-0.3v-0.8l0.8-0.7v-0.4
			c-0.4,0-1-0.4-1.7-1.3h-0.2c-0.4,0.3-0.7,0.4-0.9,0.4c0,0.4,0.5,1.6,1.5,3.6c0,0.4-0.5,1-1.5,1.8c0,0.8-0.6,1.4-1.7,1.8l-0.2,0.9
			h0.9c0.3-0.3,0.5-0.4,0.7-0.4c0.9,0.6,1.4,0.9,1.7,0.9c0.5-1.1,1-1.7,1.5-1.8c0.4,0.6,1.3,0.9,2.7,0.9l0.9-0.2l0.8,0.4
			c0-0.1,0.1-0.2,0.2-0.2v8.6l-0.9,0.2h-2.2c-0.2,0-0.3,0.2-0.3,0.5c0.1,0.5,0.6,0.9,1.6,1.5h0.2c0.5-0.7,1-1.1,1.5-1.1l0.2,0.4v14
			c0,0.1-0.1,0.2-0.2,0.2l0.2,0.3v1.3h-0.4v0.6l0.4-0.2v2.9c0,0.1-0.1,0.2-0.2,0.2l0.2,0.4v11.1c-0.3,0-0.6,0.1-0.8,0.3
			c0.1,0.5,0.4,0.8,0.8,0.8v60.1l-0.2,0.9h-0.2c-9-8.8-15.6-15.4-19.7-19.9v-2.9c0-0.1,0.1-0.2,0.2-0.2l-0.2-0.3v-18.8l0.3,0.1h0.4
			c0.2,0,0.4-0.2,0.7-0.7v-0.4c0-0.2-0.1-0.3-0.3-0.3h-0.8l-0.3,0.1v-2c0.6,0,0.9-0.2,0.9-0.5v-0.6c-0.6,0-0.9-0.1-0.9-0.4v-23.7
			c-4-4.2-6-6.4-6-6.6c-0.9-0.5-2.7-2.3-5.5-5.3c0.5-0.8,0.8-1.4,0.8-1.8H487c0-0.5,0.6-1.1,1.7-1.8V112c-0.8-0.1-1.1-0.3-1.1-0.5
			v-0.6c0-0.4,0.6-0.6,1.8-0.7v-0.8c-1.1-0.4-1.8-0.5-2-0.5c-0.5,0.7-0.9,1.2-1.3,1.3c-0.4,0-0.8-0.4-1.3-1.1
			c0.1-0.4,0.6-0.8,1.6-1.3v-0.2l-0.5-1.1h0.2l0.9,0.2c0.3-0.4,0.6-1.1,0.9-2.4v-0.4c0-0.2-0.2-0.4-0.5-0.6c0,0.3-0.6,0.8-1.8,1.5
			c-0.2,0.5-0.4,0.8-0.5,0.8c-0.6-0.6-0.9-1-0.9-1.5l0.2-0.8c-0.1-0.4-0.2-0.5-0.3-0.5l-0.9,0.5c0.1,0.2,0.2,0.5,0.2,0.9
			c-0.7,0-1.1,0.4-1.1,1.3c-0.2,0-0.4-0.3-0.5-0.9c-0.2,0-0.5-0.2-0.8-0.7v-0.4h0.9v0c-0.5,0-0.8-0.1-1.1-0.4
			c-0.1,0.2-0.2,0.4-0.2,0.5l-0.4-0.2h-0.6c-0.4,0-1,0.2-1.8,0.5v0.9c0,0.2,0.2,0.5,0.7,0.8c0.3,0,0.6-0.5,0.8-1.5h0.7v0.4
			c0,0.1-0.1,0.2-0.2,0.2c0.6,0.7,0.9,1.3,0.9,1.7c0,0.6-0.3,1.1-0.9,1.5h-0.2l-0.7-0.6c0,0.2-0.2,0.5-0.7,0.8
			c-1.8-1.6-2.7-2.4-2.7-2.6c0.1,0,0.3-0.1,0.7-0.2v-1.1l-0.9,0.5h-0.6l-2-1.8v1.8L472,105c-0.1-0.4-0.5-0.5-1.1-0.5
			c-0.2,0-0.5,0.2-0.8,0.7v0.6c1.7,0.3,2.6,0.6,2.6,0.9c-0.1,0.6-0.2,1-0.2,1.1l0.2,1.3h-0.2c-0.1,0-0.2-0.1-0.2-0.2l-2,0.6
			l-0.4-0.2l-0.3,0.2l-1.1-0.6c-0.2,0-1,0.3-2.4,0.9c-1,0-1.6-0.4-1.8-1.1v-0.5c0-0.6,0.3-1,0.8-1.5l-0.2-0.4c0-0.6,0.3-0.9,0.9-0.9
			c0-0.5-0.8-1-2.4-1.5c-0.4,0.2-1.1,0.4-2,0.6l-1.1-0.2h-0.6c0,1.9-0.6,3-1.8,3.3l-0.2,0.4c0,0.2,0.2,0.4,0.5,0.5
			c1.4-0.3,2-0.6,2-0.7c0.5-0.5,1.4-1.1,2.7-1.7c0.3,0.4,0.5,1.1,0.8,2c-0.4,1.6-1.1,2.4-2,2.4v0.3c0,0.4,0.6,0.6,1.8,0.8l2.6-1.1
			h0.2l1.6,1.4l1.1-1.2h0.8c0,0.8,0.4,1.2,1.1,1.2s1.1,0.3,1.1,0.8l0.3,1.5l-0.2,1.1h0.2l0.4-0.2v2c0,0.4-0.1,0.7-0.2,0.9l0.2,1.1
			v1.7c-0.9,0-1.4,0.3-1.6,0.9l-2.9-0.3c-0.7,0.4-1.2,0.5-1.7,0.5c0,0.3,0.6,0.6,1.8,0.9v0.2c-0.5,0.4-0.8,0.6-1.1,0.6
			c0.1,0.2,0.2,0.4,0.2,0.5h0.5c0.3,0,0.6-0.4,0.9-1.3c0.5,0,1.2-0.2,2-0.7c0.2,0.1,0.4,0.2,0.5,0.2v0.2c-0.6,0-0.9,0.1-0.9,0.3v0.2
			c0.1,0,0.3,0.1,0.6,0.2c0-0.2,0.2-0.4,0.5-0.6h0.6c0.2,0.1,0.3,0.2,0.3,0.4l-0.2,0.4h0.4v2.9c-1,0-1.5,0.3-1.5,0.9
			c0.3,0,0.4,0.1,0.4,0.3l1.1-0.5v4.2c-0.5,0.1-0.7,0.3-0.7,0.6v0.2h0.3l0.4-0.2v2.6c-0.4,0-0.5,0.1-0.5,0.3h0.5V170
			c0,0.3-0.1,0.4-0.4,0.4h-0.7l-0.2-1.1c-0.3,0-0.5,0.3-0.5,0.9c0.1,0,0.2,0.1,0.2,0.2h-17.9c-0.3,0-0.4-0.1-0.4-0.4v-47h0.2
			l0.5,0.4h0.4l-0.4-0.8c0.1-0.8,0.2-1.5,0.2-2c0-0.3-0.1-1-0.3-2h-0.4v0.7h-0.2v-5.5c0.5,0,1-0.4,1.3-1.1c-0.3-0.1-0.7-0.5-1.3-1.3
			v-1.1l0.4-0.6c-0.3,0-0.4-0.1-0.4-0.3V109c0.4,0,0.7-0.4,0.9-1.1l-0.2-0.4v-1.1c-0.4,0-0.5-0.1-0.5-0.4l0.2-0.3l-0.4-0.2
			c0.5-1.5,0.7-2.6,0.7-3.3h-0.7v-5.8h0.4l0.3,1.1c0.2,0,0.8-0.6,1.7-1.7c0.6,0,0.9-0.1,1.1-0.2c0.2,0.1,0.5,0.2,0.7,0.2
			c0.3-0.1,0.4-0.2,0.6-0.2v-0.5c-0.5,0-1.2-0.3-2-0.8h-0.4v-0.2c0.6,0,1.1-0.7,1.3-2.2v-0.2H456c-0.4,0-0.8,0.7-1.3,2.2v0.3h0.4
			c0,0.3-0.8,0.6-2.4,0.8v-4.9c0.1,0,0.2,0.1,0.2,0.2l0.4-0.2c0,0,0.8,0.1,2.4,0.2v-0.2l0.3,0.2c2.7-0.1,4-0.4,4-1.1v-0.4
			c-0.9,0-1.3-0.1-1.3-0.4l-3.1,1.3c0-0.5-1-0.8-2.9-1.1v-6.5c0.1-0.3,0.2-0.4,0.4-0.4l0.3,0.2c0.9-0.2,1.3-0.5,1.3-0.8l-0.5-0.3
			c-0.3,0.1-0.4,0.2-0.6,0.2c0-0.1-0.3-0.4-0.9-0.9V63.5c0-0.1,0.1-0.2,0.2-0.2l-0.2-0.4v-5.8l0.7-0.9c-0.2-0.8-0.3-1.2-0.3-1.3
			C453.3,54.7,453.3,54.5,453.3,54.4z M453.1,125.7c0,0.4,0.1,0.7,0.2,0.9c-0.1,1.3-0.2,2.5-0.2,3.5v1.7c0,0.9,0.2,1.5,0.7,1.6
			c0.3,0,0.5-0.5,0.7-1.6h-0.2c0-0.4,0.8-0.9,2.4-1.5l0.1-0.9c-0.3-0.7-0.7-1.1-1.2-1.1c-0.6,0.2-0.9,0.5-0.9,1.1h-0.5v-1.5
			c0-0.2,0.6-0.7,1.8-1.7l0.4-0.5l-0.2-0.9h-0.5c-0.5,0.4-0.9,0.6-1.1,0.6c-0.4-0.5-0.5-1-0.5-1.7
			C453.6,123.6,453.3,124.3,453.1,125.7z M453.7,141.3l0.4,0.2c0-1,0.8-1.6,2.4-1.8c0-0.3,0.2-0.4,0.4-0.4l-0.9-1.8h-0.7
			c-0.9,0.2-1.3,1.1-1.3,2.7C453.7,140.4,453.7,140.8,453.7,141.3z M453.8,159.6c0.2,0.7,0.4,1.1,0.6,1.1c-0.3,0.4-0.4,0.8-0.4,1.1
			v0.4l0.5,0.7c-0.2,0.1-0.3,0.2-0.3,0.4c0,0.1,0.1,0.4,0.2,1.1l-0.2,1.3c0,0.5,0.4,1.1,1.1,1.8l0.2-0.3l-0.2-0.4
			c0.3-0.4,0.4-0.8,0.4-1.1v-0.8c-0.2-0.2-0.5-0.9-0.9-2l0.2-1.8v-1.3c0-0.3-0.1-0.4-0.4-0.4h-0.3L453.8,159.6z M456.8,99.8v0.7
			c0,0.3,0.1,0.4,0.3,0.4h2.4c0.6,0,0.9-0.1,0.9-0.4c0.9,0.4,1.3,0.6,1.4,0.6l1.3-0.4c0.3,0.1,0.4,0.2,0.6,0.2
			c0.9-0.2,1.3-0.4,1.3-0.6l2.7,0.4c0.5-0.2,0.8-0.4,0.8-0.6v-0.2c0-0.4-0.8-0.6-2.4-0.7c-0.4,0.1-0.6,0.3-0.6,0.4
			c-0.5-0.3-1.5-0.4-2.9-0.4H462l-1.8,0.6c0-0.3-0.6-0.5-1.8-0.6C457.3,99.3,456.8,99.5,456.8,99.8z M459.1,150.3l-1.1-0.2l-0.4,0.6
			c0.6,0.2,1.3,0.3,2.2,0.3c0.7-0.3,1.1-0.7,1.1-1.3l-0.4-0.2C460.1,149.5,459.7,149.8,459.1,150.3z M470.1,99.6
			c0,0.6,0.7,1,2.2,1.1c0.1,0.3,0.2,0.4,0.4,0.4c0.6,0,1.1-0.3,1.5-0.9c-0.2-0.5-0.4-0.7-0.6-0.7l-0.9,0.2c-0.3-0.3-0.4-0.6-0.4-0.8
			C471.2,99,470.5,99.3,470.1,99.6z M480.6,98.1c0,0.3-0.5,0.6-1.4,0.7H479c-0.3,0-0.5-0.1-0.8-0.2c-1.3,0.3-2.1,0.6-2.4,0.9
			c0.1,0.4,0.3,0.5,0.4,0.5c0.6,0,1.7-0.3,3.3-0.9c0.4,0.3,0.8,0.4,1.1,0.4h0.4c0-0.4,0.1-0.6,0.4-0.6
			C481.1,98.5,480.9,98.2,480.6,98.1z M482.3,109.8c1.1,0,1.7,0.4,1.7,1.3c0,0.1-0.1,0.3-0.2,0.7c0.6,0.4,1,0.6,1.3,0.6
			c0,0.3,0.3,0.6,0.9,0.9c0.1,0.2,0.2,0.5,0.2,0.8c0,0.2-0.2,0.4-0.6,0.5c-1-0.3-2-0.9-3.1-2l0.2-0.4l-0.2-0.4
			c0.6-0.2,0.9-0.5,0.9-0.7c-0.5-0.3-0.8-0.6-0.9-0.9l-0.4,0.2c-0.3,0-0.4-0.1-0.4-0.4C482,109.9,482.1,109.8,482.3,109.8z
			 M482.6,89.2c0,0.6-0.3,1.3-0.8,2.2c0,0.3,0.8,0.8,2.4,1.5c0.3-0.1,0.4-0.2,0.6-0.2V91C484.8,90.3,484.1,89.7,482.6,89.2z
			 M486.4,96.5l-0.1,0.4v0.9c-1.2,0.1-1.8,0.2-1.8,0.4l-0.4-0.2c-0.4,0-0.9,0.2-1.3,0.6c0.2,0.7,0.6,1.1,1.1,1.1
			c2.2-0.2,3.3-0.6,3.3-1.3v-0.2c-0.2,0-0.4-0.2-0.6-0.6h0.4v-0.5C487,96.9,486.8,96.7,486.4,96.5z M483.9,101.4v0.4
			c0,0.2,0.8,0.6,2.4,1.3c0.6-0.2,0.9-0.3,0.9-0.6c0-0.2-0.6-0.7-1.8-1.3C484.7,101.4,484.2,101.4,483.9,101.4z M494.8,107.4v0.2
			l0.2,0.9h0.6c0.1-0.6,0.3-0.9,0.5-0.9h1.3c0.2,0,0.5,0.3,0.9,0.9c0.6-0.2,0.9-0.6,0.9-1.3l-0.8-0.3c-0.2,0.1-0.4,0.2-0.7,0.2
			l-1.3-0.7h-0.6C495.2,106.3,494.8,106.7,494.8,107.4z M502.8,81l-0.9-0.2h-0.2c-0.7,0.1-1.1,0.3-1.1,0.5c1.4,0.5,2.2,1,2.6,1.3
			v0.6h0.4c0.1,0,0.6-0.7,1.3-2c-0.3,0-0.6-0.2-1.1-0.5C503.2,80.7,502.8,80.8,502.8,81z M502.5,93.6c0.6,0.5,1,1.5,1.1,2.9h0.4
			c0.2,0,0.4-0.2,0.5-0.5c0-2.1-0.3-3.1-0.9-3.1h-0.2C502.9,93.1,502.6,93.3,502.5,93.6z M508.1,97.8l-0.6-0.3
			c-0.2,0-0.3,0.1-0.3,0.3V98h0.5l1.1,0.2c0.2-0.1,0.5-0.2,0.8-0.2c1.2,0.4,2.1,0.6,2.7,0.6c0.1-0.4,0.2-0.6,0.4-0.6
			c-0.2-0.5-0.4-0.7-0.5-0.7H512l-0.8,0.5c-0.1,0-0.3-0.1-0.5-0.2l-1.1,0.2l-0.8-0.5L508.1,97.8z M508.7,79.2l-0.4,0.6l0.2,0.9
			c-0.5,0.3-0.8,0.6-0.8,0.9l0.8,1.5c-0.3,0.5-0.4,0.9-0.4,1.1l0.6,0.4h0.3c0.3-1.3,0.4-2.3,0.4-2.9c-0.1-0.4-0.3-0.5-0.4-0.5
			c0.4-0.6,0.6-1.1,0.6-1.5C509.2,79.3,508.9,79.2,508.7,79.2z M508.3,85.8c-0.4,0.9-0.6,1.4-0.6,1.6v0.2c0,1,0.4,1.6,1.1,1.8
			l0.2-0.3v-0.9c0-0.9-0.1-1.3-0.3-1.3c0.1-0.3,0.2-0.4,0.2-0.6h0.2v0.4h1.1c0.3,0,0.4-0.1,0.4-0.4v-0.4l-0.9-0.1l-0.8,0.3v-0.3
			C508.9,85.8,508.3,85.8,508.3,85.8z M508.7,76.1V77c0.4,0,1,0.3,1.6,0.9h0.4c0-0.9,0.4-1.3,1.1-1.3c0.7,0,1.1,0.5,1.1,1.5
			c0.3,0,0.6-0.6,0.7-1.8c-0.4-0.6-1.2-0.9-2.2-0.9v-0.3c0-1.2-0.4-1.8-1.3-1.8C509.6,73.2,509.1,74.2,508.7,76.1z"/>
		<g>
			<path class="st0" d="M46,128.4c-0.6,0.2-0.9,0.6-0.9,1.1h-0.6V128c0-0.1,0.6-0.7,1.8-1.6l0.4-0.6l-0.2-0.9H46
				c-0.5,0.4-0.8,0.5-1.1,0.5c-0.4-0.5-0.6-1-0.6-1.6c-0.4,0-0.7,0.7-0.9,2c0,0.4,0.1,0.7,0.2,0.9c-0.1,1.3-0.2,2.5-0.2,3.5v1.7
				c0,0.9,0.2,1.5,0.7,1.7c0.3,0,0.6-0.6,0.8-1.7h-0.2c0-0.4,0.8-0.9,2.4-1.5l0.2-0.9C46.9,128.8,46.5,128.4,46,128.4z"/>
			<path class="st0" d="M56.3,99.4c-0.4,0.1-0.6,0.2-0.6,0.3c-0.5-0.2-1.5-0.3-2.9-0.3h-0.6l-1.8,0.5c0-0.3-0.6-0.5-1.8-0.5
				c-1.1,0.1-1.6,0.3-1.6,0.5v0.7c0,0.3,0.1,0.4,0.3,0.4h2.4c0.6,0,0.9-0.1,0.9-0.4c0.9,0.4,1.3,0.6,1.4,0.6l1.3-0.4
				c0.3,0.1,0.4,0.2,0.6,0.2c0.9-0.2,1.3-0.3,1.3-0.5l2.7,0.3c0.5-0.2,0.7-0.4,0.7-0.5v-0.2C58.7,99.8,57.9,99.5,56.3,99.4z"/>
			<path class="st0" d="M45.4,137.7c-0.9,0.2-1.3,1.1-1.3,2.7c-0.1,0.2-0.2,0.5-0.2,1.1l0.4,0.2c0-1,0.8-1.6,2.4-1.8
				c0.1-0.2,0.2-0.3,0.4-0.3l-0.9-1.8L45.4,137.7L45.4,137.7z"/>
			<path class="st0" d="M45.2,161.2v-1.3c0-0.2-0.1-0.3-0.3-0.3h-0.4l-0.4,0.2c0.2,0.7,0.4,1.1,0.6,1.1c-0.3,0.4-0.4,0.8-0.4,1.1
				v0.3l0.6,0.8c-0.3,0-0.4,0.1-0.4,0.3c0,0.1,0.1,0.5,0.2,1.1l-0.2,1.3c0,0.6,0.4,1.2,1.1,1.8l0.2-0.4l-0.2-0.4
				c0.3-0.4,0.4-0.8,0.4-1.1v-0.7c-0.2-0.2-0.5-0.9-0.9-2L45.2,161.2z"/>
			<path class="st0" d="M62.5,100.9c0,0.3,0.1,0.4,0.3,0.4c0.7,0,1.1-0.3,1.5-0.9c-0.2-0.5-0.4-0.8-0.5-0.8l-0.9,0.2
				c-0.2-0.3-0.3-0.5-0.3-0.7c-1.1,0.2-1.8,0.4-2.2,0.7C60.4,100.4,61.1,100.7,62.5,100.9z"/>
			<path class="st0" d="M43.2,109.1h0.4c0-0.7,0.1-1.1,0.3-1.1l-0.2-0.3v-1.1c-0.4,0-0.6-0.1-0.6-0.4l0.2-0.4l-0.4-0.2
				c0.5-1.5,0.8-2.6,0.8-3.3h-0.9c-0.2,0-0.4,0.9-0.7,2.7c0.2,0.4,0.4,0.8,0.7,1.1c-0.1,0.2-0.2,0.8-0.3,1.8
				C42.7,108.7,43,109.1,43.2,109.1z"/>
			<path class="st0" d="M44.1,123.3l-0.3-0.7c0.1-0.8,0.2-1.5,0.2-2c0-0.3-0.1-1-0.3-2h-0.4c0,0.9-0.1,1.3-0.4,1.3l0.2,0.4
				c0,0.1-0.1,0.2-0.2,0.2l0.2,0.3c-0.1,0.7-0.2,1.2-0.2,1.5c0,0.5,0.3,0.8,0.9,1.1h0.3V123.3z"/>
			<path class="st0" d="M50.1,151.2c0.7-0.3,1.1-0.7,1.1-1.3l-0.3-0.2c-0.5,0-0.9,0.2-1.5,0.7l-1.1-0.2l-0.4,0.6
				C48.5,151.1,49.3,151.2,50.1,151.2z"/>
			<path class="st0" d="M88,107.3l-1.3-0.7h-0.5c-0.7,0-1.1,0.4-1.1,1.1v0.2l0.2,0.9h0.6c0.1-0.6,0.3-0.9,0.5-0.9h1.3
				c0.2,0,0.5,0.3,0.9,0.9c0.6-0.2,0.9-0.6,0.9-1.3l-0.8-0.4C88.6,107.2,88.3,107.3,88,107.3z"/>
			<path class="st0" d="M88.2,81.9c-0.7-1.6-1.1-2.4-1.1-2.5c-0.1,0-0.4-0.3-0.8-0.8l0.2-0.4v-0.3c0-0.3-0.1-0.4-0.3-0.4H86
				c-0.3,0.1-0.4,0.2-0.4,0.4c0.3,0.9,0.4,1.3,0.4,1.5c-1,0.6-1.5,1.4-1.5,2.2c-0.1,0-0.2,0.2-0.2,0.5v0.4h0.2
				c1.5,0.1,2.2,0.2,2.2,0.4C87.7,82.7,88.2,82.4,88.2,81.9z"/>
			<path class="st0" d="M64.7,104.9l-0.6-0.4c-0.5,0.3-1.2,0.4-2,0.6c-0.1-0.4-0.5-0.6-1.1-0.6c-0.2,0-0.4,0.3-0.7,0.8v0.5
				c0.3,0,1.2,0.3,2.5,0.8c0.6-0.2,0.9-0.4,0.9-0.8l1.1,0.6c0.5-0.6,1-0.9,1.4-0.9v-1.1l-0.9,0.6L64.7,104.9L64.7,104.9z"/>
			<path class="st0" d="M76.9,97.8c-1.5,0.3-2.2,0.5-2.2,0.5l-0.3-0.1c-0.5,0-0.9,0.2-1.3,0.5c0.2,0.7,0.5,1.1,1.1,1.1
				c2.2-0.1,3.3-0.6,3.3-1.3v-0.2C77.3,98.3,77.1,98.1,76.9,97.8z"/>
			<path class="st0" d="M70.9,98.3c0,0.3-0.5,0.6-1.5,0.8h-0.2c-0.3,0-0.5-0.1-0.7-0.2c-1.4,0.3-2.1,0.6-2.4,0.9
				c0.1,0.4,0.2,0.6,0.3,0.6c0.6,0,1.7-0.3,3.3-0.9c0.4,0.2,0.8,0.3,1.1,0.3h0.3c0-0.4,0.1-0.5,0.4-0.5
				C71.4,98.7,71.2,98.4,70.9,98.3z"/>
			<path class="st0" d="M75.7,101.4c-0.7,0.1-1.2,0.2-1.5,0.2v0.3c0,0.2,0.8,0.6,2.4,1.3c0.6-0.1,0.9-0.3,0.9-0.5
				C77.5,102.5,76.9,102.1,75.7,101.4z"/>
			<path class="st0" d="M72.5,110c-0.1,0-0.3,0.1-0.5,0.2c0,0.3,0.1,0.4,0.3,0.4l0.4-0.2c0.1,0.3,0.4,0.6,0.9,0.9
				c-0.1,0.3-0.4,0.5-0.9,0.7c0,0.1,0.1,0.2,0.2,0.2c0,0.1-0.1,0.3-0.2,0.5c0,0.1,0.4,0.6,1.3,1.5h0.5c0.1,0,0.6,0.2,1.3,0.6
				c0.4-0.2,0.6-0.4,0.6-0.6c0-0.3-0.1-0.5-0.2-0.7c-0.6-0.3-0.9-0.6-0.9-0.9c-0.3,0-0.7-0.2-1.3-0.5c0.1-0.4,0.2-0.7,0.2-0.7
				C74.2,110.4,73.7,110,72.5,110z"/>
			<path class="st0" d="M71.8,112.4c0.2,0,0.3-0.1,0.3-0.4c-0.7,0-1.2-0.3-1.6-0.9l-1.3,0.2v-0.4l0.4-0.6c0.9-0.2,1.3-0.3,1.3-0.5
				l0.5,0.3h0.4v-0.2c-0.2-0.4-0.7-0.8-1.7-1.1c-1,0.7-1.5,1.2-1.5,1.6c-0.5,0.3-0.7,0.7-0.7,1.3c0.1,0,0.2,0.1,0.2,0.2l0.4-0.2h0.3
				v0.2l-0.5,0.7v0.2c0.3,0.5,0.6,0.8,0.9,0.8v0.3c-0.3,0.5-0.5,0.8-0.7,0.8c1.1,1.2,1.7,1.8,1.8,1.8c0-0.4,0.1-0.8,0.4-1.3h-0.2
				c0.1-0.1,0.2-0.6,0.2-1.5c0.6-0.5,0.9-1,0.9-1.6C71.8,112.2,71.8,112.3,71.8,112.4z"/>
			<path class="st0" d="M66.9,109.3l0.2,0.4v0.4c-0.2,0.4-0.4,0.5-0.6,0.5c0,0.6,0.1,0.9,0.4,0.9h0.7l-0.3-0.5
				c0-0.3,0.1-0.9,0.3-1.7v-0.2h-0.3L66.9,109.3z"/>
			<path class="st0" d="M102.4,57.2l-0.7-0.9c0.2-0.8,0.3-1.2,0.3-1.3c-0.1-0.3-0.2-0.4-0.2-0.6h-0.2c-0.2,0-1,0.8-2.4,2.4h0.3
				c0.3-0.1,0.4-0.2,0.6-0.2v0.8c-0.1,0.2-0.2,0.3-0.4,0.3L98.8,57L95,61.2c0,0.8,0.1,1.7,0.2,2.8L95,64.7l0.2,1.1l-0.4,0.7
				c0,1.3,0.5,2.1,1.5,2.4l0.2,0.4c-0.6,0.5-0.9,1.2-0.9,2h-0.8c-0.4-1.5-0.5-2.7-0.5-3.7c0.2-0.4,0.3-0.8,0.3-1.1L94.3,66
				c0.2,0,0.3-0.1,0.3-0.4v-0.8h-0.3v-1.1c-0.3,0-0.7-0.2-1.3-0.7c-3.7,3.7-6.6,6.7-8.8,8.9h-1.5v27.5l-7.5-7.3
				c0,0.6-0.2,0.9-0.6,0.9c-1.6-0.7-2.4-1.1-2.4-1.5c0-0.3,0.3-0.7,0.8-1.3v-0.3c-6-6.1-9.1-9.3-9.5-9.5h-0.2c-0.1,1.3-0.5,2-1.1,2
				c-0.7,0-1.1-0.2-1.3-0.7c0.5-1.5,1-2.2,1.7-2.2l-7.9-7.6H41.9l0.2,0.4v0.5c0,0.6-0.2,1.2-0.6,1.8c0.8,0.9,1.1,1.3,1.1,1.4
				L42,76.9c0.1,0.6,0.2,1,0.2,1.1c-0.1,0.9-0.2,1.3-0.2,1.4l0.2,0.4c1.1,0.7,1.6,1.1,1.6,1.3c0.2,0,0.3-0.1,0.6-0.2l0.6,0.4
				c0,0.3-0.4,0.5-1.3,0.7l-0.4-0.2l-0.7,0.8c-0.5,1.9-0.8,2.9-0.9,2.9h-0.3c0-0.4,0.1-0.7,0.2-0.9l-0.2-1.1v-0.7l0.2-1.8
				c-0.2,0-0.3-0.3-0.3-0.9v-1.6c0-0.4,0.1-1,0.2-1.6c-0.1-0.2-0.2-0.5-0.2-0.9c0-0.3,0.1-0.8,0.2-1.5c-0.2,0-0.4-0.1-0.4-0.4
				l0.2-2.2h-3.6l-0.2,0.9v97c0,0.6,0.2,1,0.6,1.1H57c0.3,0,0.4-0.1,0.4-0.4v-47.9l-0.5-0.7h0.5v-10.6c-0.3-0.5-0.5-0.8-0.7-0.8
				h-0.2l-2.6,1.1c-1.2-0.1-1.8-0.4-1.8-0.7v-0.4c0.9,0,1.6-0.8,2-2.4c-0.3-1-0.5-1.6-0.7-2c-1.3,0.6-2.2,1.1-2.7,1.6
				c0,0.2-0.7,0.4-2,0.8c-0.4-0.2-0.6-0.4-0.6-0.6l0.2-0.3c1.2-0.3,1.8-1.4,1.8-3.3h0.6l1.1,0.2c1-0.1,1.6-0.3,2-0.5
				c1.6,0.5,2.4,1,2.4,1.4c-0.6,0-0.9,0.3-0.9,0.9l0.2,0.3c-0.5,0.5-0.8,0.9-0.8,1.5v0.6c0.3,0.7,0.9,1.1,1.8,1.1l0.9-0.4v-4h-0.5
				v-0.5c0.4,0,0.5-0.4,0.5-1.1c0.5,0.5,1.1,0.7,1.8,0.7v0.9c2.1,2.4,3.5,3.6,4,3.6c0.2,0.7,0.6,1.2,1.1,1.5c0.4,0,0.6-0.2,0.6-0.7
				h0.4v0.5c-0.4,0-0.6,0.1-0.6,0.4v0.4l0.9-0.2v0.5h0.8v-0.3c0-0.3-0.3-0.4-0.8-0.4l0.4-1.5l-0.4-0.2c0-0.5,0.3-1,0.9-1.6
				c0.9,0.2,1.3,0.7,1.3,1.6H68c0-0.4,0.4-0.9,1.1-1.6l0.7,0.5H70c0.6-0.3,0.9-0.8,0.9-1.4c0-0.4-0.3-1-0.9-1.7
				c0.1,0,0.2-0.1,0.2-0.2v-0.4h-0.7c-0.2,1-0.5,1.5-0.8,1.5c-0.5-0.3-0.7-0.5-0.7-0.7v-0.9c0.8-0.4,1.4-0.6,1.8-0.6h0.6l0.4,0.2
				c0-0.1,0.1-0.3,0.2-0.6c0.3,0.3,0.6,0.4,1.1,0.4v0.4h-0.9v0.3c0.3,0.5,0.6,0.8,0.8,0.8c0.2,0.6,0.4,0.9,0.5,0.9
				c0-0.9,0.4-1.3,1.1-1.3c0-0.5-0.1-0.8-0.2-0.9l0.9-0.6c0.1,0,0.2,0.2,0.3,0.6l-0.2,0.7c0,0.4,0.3,0.9,0.9,1.5
				c0.2,0,0.4-0.2,0.5-0.7c1.2-0.7,1.8-1.2,1.8-1.5c0.4,0.2,0.5,0.4,0.5,0.5v0.4c-0.3,1.2-0.6,2-0.9,2.4l-0.9-0.2h-0.2l0.6,1.1v0.2
				c-1,0.5-1.6,0.9-1.7,1.3c0.5,0.7,0.9,1,1.3,1.1c0.4-0.1,0.8-0.6,1.3-1.3c0.2,0,0.9,0.2,2,0.6v0.7c-1.2,0.1-1.8,0.4-1.8,0.8v0.5
				c0,0.3,0.4,0.4,1.1,0.6v0.5c-1.1,0.7-1.7,1.3-1.7,1.8h0.2v0.1c-0.7,2.1-1.7,3.1-3.1,3.1H74c-0.4-0.3-0.9-0.5-1.7-0.8l-0.7,0.6
				c0.9,1.1,1.5,1.7,1.7,1.7h1.1v0.1l-0.2,0.9l8.4,8.5v41.6c0,0.3,0.1,0.4,0.3,0.4H102c0.3,0,0.4-0.1,0.4-0.4V77.2l-0.2-0.3
				c-0.9,0-1.3,0.4-1.3,1.3h-0.4c-0.7-0.6-1.2-0.9-1.6-0.9v-0.9c0.4-1.9,0.9-2.9,1.5-2.9c0.8,0,1.2,0.6,1.2,1.8v0.4
				c0.2,0,0.3,0.1,0.6,0.2h0.2v-3.8V72v-8.2c0-0.1-0.1-0.2-0.2-0.2l0.2-0.4V57.2z M42.1,105.1c0.3-1.8,0.5-2.7,0.7-2.7h0.9
				c0,0.7-0.3,1.8-0.8,3.3l0.4,0.2l-0.2,0.4c0,0.3,0.2,0.4,0.6,0.4v1.1l0.2,0.3c-0.2,0-0.3,0.4-0.3,1.1h-0.4c-0.2,0-0.5-0.4-0.7-1.1
				c0.1-1,0.2-1.6,0.3-1.8C42.5,105.9,42.3,105.5,42.1,105.1z M42.8,122.2c0-0.3,0.1-0.8,0.2-1.5l-0.2-0.3c0.1,0,0.2-0.1,0.2-0.2
				l-0.2-0.4c0.3,0,0.4-0.4,0.4-1.3h0.4c0.2,1.1,0.3,1.7,0.3,2c0,0.5-0.1,1.2-0.2,2l0.3,0.7h-0.3C43.2,123,42.8,122.6,42.8,122.2z
				 M46,165.7c0,0.3-0.1,0.7-0.4,1.1l0.2,0.4l-0.2,0.4c-0.7-0.7-1.1-1.3-1.1-1.8l0.2-1.3c-0.1-0.6-0.2-1-0.2-1.1
				c0-0.2,0.1-0.3,0.4-0.3l-0.6-0.8V162c0-0.4,0.1-0.7,0.4-1.1c-0.2,0-0.4-0.4-0.6-1.1l0.4-0.2h0.4c0.2,0,0.3,0.1,0.3,0.3v1.3
				L45,163c0.4,1.1,0.7,1.8,0.9,2L46,165.7L46,165.7z M46.7,139.9c-1.6,0.2-2.4,0.8-2.4,1.8l-0.4-0.2c0-0.6,0.1-0.9,0.2-1.1
				c0-1.6,0.4-2.5,1.3-2.7h0.8l0.9,1.8C46.8,139.5,46.7,139.6,46.7,139.9z M47.1,130.4c-1.6,0.6-2.4,1.1-2.4,1.5h0.2
				c-0.2,1.1-0.4,1.7-0.8,1.7c-0.5-0.2-0.7-0.7-0.7-1.7v-1.7c0-1,0.1-2.1,0.2-3.5c-0.1-0.2-0.2-0.5-0.2-0.9c0.2-1.3,0.5-2,0.9-2
				c0,0.6,0.2,1.2,0.6,1.6c0.3,0,0.6-0.2,1.1-0.5h0.5l0.2,0.9l-0.4,0.6c-1.2,1-1.8,1.5-1.8,1.6v1.5h0.6c0-0.5,0.3-0.9,0.9-1.1
				c0.5,0,0.9,0.4,1.3,1.1L47.1,130.4z M48.3,150.3l1.1,0.2c0.5-0.5,1-0.7,1.5-0.7l0.3,0.2c0,0.6-0.4,1-1.1,1.3
				c-0.9,0-1.6-0.1-2.2-0.4L48.3,150.3z M58.7,100.3c0,0.2-0.2,0.4-0.7,0.5l-2.7-0.3c0,0.2-0.4,0.4-1.3,0.5c-0.1,0-0.3-0.1-0.6-0.2
				l-1.3,0.4c-0.1,0-0.6-0.2-1.4-0.6c0,0.3-0.3,0.4-0.9,0.4h-2.4c-0.2,0-0.3-0.1-0.3-0.4V100c0-0.3,0.5-0.5,1.6-0.5
				c1.2,0.1,1.8,0.2,1.8,0.5l1.8-0.5h0.6c1.4,0,2.4,0.1,2.9,0.3c0-0.1,0.2-0.2,0.6-0.3c1.6,0.1,2.4,0.3,2.4,0.7L58.7,100.3
				L58.7,100.3z M62.5,99.1c0,0.2,0.1,0.4,0.3,0.7l0.9-0.2c0.2,0,0.4,0.3,0.5,0.8c-0.3,0.6-0.8,0.9-1.5,0.9c-0.2,0-0.3-0.1-0.3-0.4
				c-1.5-0.1-2.2-0.5-2.2-1.1C60.7,99.5,61.5,99.2,62.5,99.1z M66.3,105.4c-0.4,0-0.9,0.3-1.4,0.9l-1.1-0.6
				c-0.1,0.3-0.4,0.6-0.9,0.8c-1.4-0.5-2.2-0.8-2.5-0.8v-0.5c0.3-0.5,0.5-0.8,0.7-0.8c0.6,0,1,0.2,1.1,0.6c0.8-0.1,1.5-0.3,2-0.6
				l0.6,0.4h0.7l0.9-0.6L66.3,105.4L66.3,105.4z M71.3,99.8H71c-0.4,0-0.7-0.1-1.1-0.3c-1.6,0.6-2.7,0.9-3.3,0.9
				c-0.1,0-0.2-0.2-0.3-0.6c0.2-0.3,1-0.6,2.4-0.9c0.2,0.1,0.4,0.2,0.7,0.2h0.2c1-0.2,1.5-0.4,1.5-0.8c0.3,0.1,0.5,0.4,0.7,0.9
				C71.4,99.3,71.3,99.4,71.3,99.8z M76.6,103.2c-1.6-0.7-2.4-1.1-2.4-1.3v-0.3c0.3,0,0.8-0.1,1.5-0.2c1.2,0.6,1.8,1.1,1.8,1.3
				S77.2,103.1,76.6,103.2z M77.5,98.5c0,0.7-1.1,1.1-3.3,1.3c-0.6,0-0.9-0.4-1.1-1.1c0.4-0.4,0.8-0.5,1.3-0.5l0.3,0.1
				c0-0.1,0.7-0.3,2.2-0.5c0.2,0.4,0.4,0.5,0.6,0.5V98.5z M84.4,82.5v-0.4c0-0.4,0.1-0.5,0.2-0.5c0-0.8,0.5-1.6,1.5-2.2
				c0-0.1-0.1-0.6-0.4-1.5c0-0.2,0.1-0.3,0.4-0.4h0.2c0.2,0,0.3,0.1,0.3,0.4v0.3l-0.2,0.4c0.4,0.5,0.6,0.8,0.8,0.8
				c0,0.1,0.4,0.9,1.1,2.5c0,0.5-0.5,0.8-1.5,0.9c0-0.2-0.7-0.3-2.2-0.4L84.4,82.5L84.4,82.5z M88.6,108.7c-0.5-0.6-0.8-0.9-0.9-0.9
				h-1.3c-0.3,0-0.5,0.3-0.5,0.9h-0.6l-0.2-0.9v-0.2c0-0.7,0.4-1.1,1.1-1.1h0.5l1.3,0.7c0.3,0,0.5-0.1,0.7-0.2l0.8,0.4
				C89.5,108.1,89.2,108.6,88.6,108.7z"/>
		</g>
	</g>
	<g>
		<path class="st0" d="M192.1,36.3c-1.2,17-16.1,22-34.2,22c-18.8,0-34.4-5.5-34.3-24.5v-3.7c-0.1-19,15.5-24.4,34.3-24.5
			c18.1,0,32.9,5.1,34.2,22H172c-1.8-4.9-7.4-6.1-14.1-6.1c-8,0.1-14.8,1.5-14.7,9.8v1.2c-0.1,8.2,6.7,9.7,14.7,9.8
			c6.7,0,12.3-1.2,14.1-6.1L192.1,36.3L192.1,36.3z"/>
		<path class="st0" d="M265.5,30.2v3.7c0.1,19-15.4,24.5-34.2,24.5c-18.9,0-34.4-5.5-34.3-24.5v-3.7c-0.1-19,15.4-24.5,34.3-24.5
			C250.1,5.7,265.5,11.2,265.5,30.2z M245.9,31.4c0.1-8.2-6.7-9.7-14.7-9.8c-8,0.1-14.8,1.6-14.7,9.8v1.2c-0.1,8.2,6.7,9.7,14.7,9.8
			c8-0.1,14.8-1.6,14.7-9.8V31.4z"/>
		<path class="st0" d="M315.9,7c13.8-0.2,24,11.4,23.9,25.1c0.1,13.6-10.1,25.3-23.9,25.1h-44.7V7H315.9z M312.2,22.9h-21.4v18.4
			h21.4c5.1,0,8-4.1,8-9.2S317.3,22.9,312.2,22.9z"/>
		<path class="st0" d="M345.6,7h58.7v12.8h-39.2v6.4h39.2v11.6h-39.2v6.4h39.2v12.9h-58.7V7z"/>
	</g>
</g>
<g>
	<path class="st1" d="M787.5,135.4c-0.3,0-0.6-0.5-1.1-1.1v-0.6c0-0.3,0.2-0.5,0.5-0.5h0.5v-3.2c-0.2-0.2-0.2-0.3-0.2-0.5v-0.9
		c0.2,0,0.2,0,0.2,0V62.5c-0.5-0.3-0.8-0.9-0.8-1.7l0.8-0.3V40.3h-0.3c-0.3,0-0.6-0.3-0.8-0.9l1.4-1.1V6.2H767l-1.4,0.3
		c0.6,0.9,1.1,1.4,1.7,1.4c0,0.6-0.3,0.9-1.1,0.9l0.9,1.1v0.6c-0.3,0-0.5-0.2-0.9-0.3l-1.5,0.3c-0.8-2.1-1.2-3-1.7-3L761.7,9
		c-0.2,1.1-0.5,1.7-0.8,1.7h-1.4l-1.2-0.9v3c0,0.6,0.2,0.9,0.3,0.9l-0.3,1.4v17.8h0.9v0.6c-0.6,0.6-0.9,1.4-0.9,2
		c0.8,0.8,1.4,1.1,1.7,1.1v1.4c-1.1,0-1.7,0.2-1.7,0.6v3c1.2-1.4,2.1-2.3,3-2.7c0.3-0.9,0.8-1.4,1.1-1.4h0.3c0.2,0,0.6,0.8,1.1,2.1
		c1.1,0.8,1.8,1.2,2.3,1.2l1.1-1.7c-0.8-1.5-1.1-2.4-1.1-2.7c0.5,0,0.6-0.2,0.6-0.5v-1.4l-1.2-1.1v-0.6c0.6,0,1.5-0.6,2.6-2h0.3
		c0.6,0.5,1.1,0.6,1.4,0.6c0,0.6-0.8,2.4-2.3,5.4c0,0.6,0.8,1.5,2.3,2.7c0,1.2,0.9,2.1,2.6,2.7l0.3,1.4h-1.4
		c-0.5-0.5-0.8-0.6-1.1-0.6c-1.4,0.9-2.1,1.4-2.6,1.4c-0.8-1.7-1.5-2.6-2.3-2.7c-0.6,0.9-2,1.4-4.1,1.4l-1.4-0.3l-1.2,0.8
		c0-0.2-0.2-0.3-0.3-0.3v13l1.4,0.3h3.3c0.3,0,0.5,0.3,0.5,0.8c0,0.8-0.9,1.4-2.4,2.3h-0.3c-0.8-1.1-1.5-1.7-2.3-1.7l-0.3,0.6v21.1
		c0,0.2,0.2,0.3,0.3,0.3l-0.3,0.5v2h0.6v0.9l-0.6-0.3v4.4c0,0.2,0.2,0.3,0.3,0.3l-0.3,0.6v16.8c0.5,0,0.9,0.2,1.2,0.5
		c-0.2,0.8-0.6,1.2-1.2,1.2v90.7l0.3,1.4h0.3c12.8-12.5,22.3-22,28.5-28.7v-34.7H787.5z M773.8,22.2l-1.2,2.3
		c0.5,0.8,0.6,1.4,0.6,1.7l-0.9,0.6H772c-0.5-2-0.6-3.5-0.6-4.4c0.2-0.6,0.5-0.8,0.6-0.8c-0.6-0.9-0.9-1.7-0.9-2.3
		c0.6-0.5,1.1-0.6,1.4-0.6l0.6,0.9l-0.3,1.4C773.5,21.1,773.8,21.6,773.8,22.2z M769.4,16.6c0-1.4-0.6-2-1.7-2
		c-1.1,0-1.7,0.8-1.7,2.3c-0.5,0-0.9-0.9-1.1-2.7c0.6-0.9,1.8-1.4,3.3-1.4v-0.5c0-1.8,0.6-2.7,2-2.7c0.8,0,1.5,1.5,2.1,4.4v1.4
		c-0.6,0-1.5,0.5-2.4,1.4h-0.6V16.6z M772.1,34l-0.2-0.5v-1.4c0-1.4,0.2-2,0.5-2c-0.2-0.5-0.3-0.6-0.3-0.9H772v0.6h-1.7
		c-0.5,0-0.6-0.2-0.6-0.6v-0.6l1.4-0.2l1.2,0.5v-0.5h0.8c0.6,1.4,0.9,2.1,0.9,2.4v0.3C773.8,32.7,773.3,33.6,772.1,34z M774.7,46.9
		h-0.8l-1.7,0.3c-0.3-0.2-0.8-0.3-1.2-0.3c-1.8,0.6-3.2,0.9-4.1,0.9c-0.2-0.6-0.5-0.9-0.6-0.9c0.3-0.8,0.6-1.1,0.8-1.1h0.3l1.2,0.8
		c0.2,0,0.5-0.2,0.8-0.3l1.7,0.3l1.2-0.8l1.1,0.8l0.9-0.5c0.3,0,0.5,0.2,0.5,0.5V46.9z M780.1,44.7h-0.6c-0.3,0-0.6-0.3-0.8-0.8
		c0-3.2,0.5-4.7,1.4-4.7h0.3c0.9,0.3,1.4,0.8,1.4,1.1C780.9,41.2,780.3,42.6,780.1,44.7z M780.7,23.8v0.9h-0.6c-0.2,0-0.9-1.1-2-3
		c0.5,0,0.9-0.3,1.7-0.8c0.9,0,1.4,0.2,1.4,0.6l1.4-0.3h0.3c1.1,0.2,1.7,0.5,1.7,0.8C782.5,22.6,781.2,23.4,780.7,23.8z"/>
	<path class="st0" d="M739.4,112.8c-2.8,40.3-38.2,52.1-81.1,52.1c-44.6,0-81.5-13-81.3-58.1v-8.8c-0.2-45,36.7-57.8,81.3-58.1
		c42.9,0,78,12.1,81.1,52.1h-47.6c-4.3-11.6-17.5-14.5-33.4-14.5c-19,0.2-35.1,3.6-34.8,23.2v2.8c-0.2,19.4,15.9,23,34.8,23.2
		c15.9,0,29.2-2.8,33.4-14.5h47.6V112.8z"/>
</g>
</svg>
