<svg id="Capa_1" data-name="Capa 1" xmlns="http://www.w3.org/2000/svg" viewBox="0 0 527.92 242.91"><defs><style>.cls-1{fill:#fff;}.cls-2{fill:#00b8d9;}</style></defs><path class="cls-1" d="M175.72,2.39h10.67a10.35,10.35,0,0,1,10.35,10.35V25.43l-5.33-3.15a10,10,0,0,0-5.13-1.41h-21a4.67,4.67,0,0,0-4.67,4.67V92.7a4.68,4.68,0,0,0,4.67,4.67h21A10.08,10.08,0,0,0,191.41,96l5.33-3.16v12.7a10.35,10.35,0,0,1-10.35,10.35H152.22a10.07,10.07,0,0,1-10.06-10.07V12.45A10.07,10.07,0,0,1,152.22,2.38h23.5Z"/><path class="cls-1" d="M246.35,2.38a10.36,10.36,0,0,1,10.36,10.36v92.75a10.36,10.36,0,0,1-10.36,10.36H212.49a10.36,10.36,0,0,1-10.36-10.36V12.74A10.36,10.36,0,0,1,212.49,2.38Zm-8.12,90.84V25a4.14,4.14,0,0,0-4.14-4.14h-9.34A4.14,4.14,0,0,0,220.61,25V93.22a4.14,4.14,0,0,0,4.14,4.14h9.34A4.14,4.14,0,0,0,238.23,93.22Z"/><path class="cls-1" d="M302.77,2.39h9.43a9,9,0,0,1,9.05,9V106.8a9,9,0,0,1-9.05,9H262.1l3.3-5.56a9,9,0,0,0,1.27-4.62V12.57A9,9,0,0,0,265.4,8l-3.3-5.57h40.67Zm0,90.69V25.14a4.27,4.27,0,0,0-4.28-4.27H285.15V97.36h13.34A4.28,4.28,0,0,0,302.77,93.08Z"/><path class="cls-1" d="M385.76,2.38V25.43l-5.63-3.33a8.73,8.73,0,0,0-4.48-1.23h-26V43h16.75a8.86,8.86,0,0,0,4.49-1.23l5.62-3.34V66.05l-5.62-3.34a8.86,8.86,0,0,0-4.49-1.23H349.66V97.36h26a8.83,8.83,0,0,0,4.48-1.23l5.63-3.34v23H326.61l3.34-5.62a8.86,8.86,0,0,0,1.23-4.49V12.5A8.86,8.86,0,0,0,330,8l-3.34-5.63Z"/><path class="cls-1" d="M33,137.5v92.58a9.93,9.93,0,0,0,1.4,5.1l3.17,5.34H10l3.18-5.34a10,10,0,0,0,1.39-5.09V137.5a10,10,0,0,0-1.39-5.09L10,127.07H37.58l-3.17,5.34A9.92,9.92,0,0,0,33,137.5Z"/><path class="cls-1" d="M102.18,137.21v93.17a9,9,0,0,0,1.24,4.54l3.32,5.6H79.13l.71-1.2a8.92,8.92,0,0,0,.84-7.2l-14.6-46.76v45a8.93,8.93,0,0,0,1.24,4.54l3.32,5.6H43l3.32-5.6a8.93,8.93,0,0,0,1.24-4.54V137.21a8.93,8.93,0,0,0-1.24-4.54L43,127.07H70.65l-.79,1.32a8.88,8.88,0,0,0-.84,7.2l14.67,47V137.21a9,9,0,0,0-1.24-4.55l-3.32-5.6h27.61l-3.32,5.6a9,9,0,0,0-1.24,4.55Z"/><path class="cls-1" d="M166.82,127.07h4.57l-3.31,5.57a9.05,9.05,0,0,0-1.26,4.59v94.3a9,9,0,0,1-9,9h-36.6a9,9,0,0,1-9-9V202.32a9.5,9.5,0,0,1,4.76-8.24l13.72-7.92v31.31a4.56,4.56,0,0,0,4.57,4.57h8.48a4.56,4.56,0,0,0,4.57-4.57V137.23a8.93,8.93,0,0,0-1.26-4.59l-3.31-5.58h23Z"/><path class="cls-1" d="M235.89,127.06v23.05l-5.62-3.33a8.76,8.76,0,0,0-4.49-1.23h-26v22.12h16.74a8.76,8.76,0,0,0,4.49-1.23l5.63-3.33v27.61L221,187.39a8.76,8.76,0,0,0-4.49-1.23H199.8V222h26a8.86,8.86,0,0,0,4.49-1.23l5.62-3.34v23.05H176.75l3.34-5.63a8.79,8.79,0,0,0,1.22-4.48V137.17a8.84,8.84,0,0,0-1.22-4.48l-3.34-5.63Z"/><path class="cls-1" d="M274.83,127.07h10.66a10.34,10.34,0,0,1,10.35,10.34v12.7L290.51,147a10,10,0,0,0-5.13-1.4h-21a4.67,4.67,0,0,0-4.67,4.67v67.15a4.67,4.67,0,0,0,4.67,4.67h21a10,10,0,0,0,5.13-1.4l5.33-3.16v12.7a10.34,10.34,0,0,1-10.35,10.34H251.33a10.06,10.06,0,0,1-10.07-10.06V137.13a10.07,10.07,0,0,1,10.07-10.07h23.5Z"/><path class="cls-1" d="M355.81,127.06v23.05l-5.51-3.26a9.18,9.18,0,0,0-4.73-1.3h-7.81v84.73a9.27,9.27,0,0,0,1.3,4.73l3.27,5.51H314.72L318,235a9.27,9.27,0,0,0,1.3-4.73V145.54h-7.8a9.25,9.25,0,0,0-4.73,1.3l-5.52,3.27V127.06Z"/><path class="cls-1" d="M384.25,137.5v92.58a9.93,9.93,0,0,0,1.4,5.1l3.17,5.34H361.2l3.18-5.34a10,10,0,0,0,1.39-5.09V137.5a10,10,0,0,0-1.39-5.09l-3.18-5.34h27.62l-3.17,5.34a10,10,0,0,0-1.4,5.09Z"/><path class="cls-2" d="M438.49,127.06a10.36,10.36,0,0,1,10.36,10.36v92.74a10.36,10.36,0,0,1-10.36,10.36H404.63a10.36,10.36,0,0,1-10.36-10.36V137.42a10.36,10.36,0,0,1,10.36-10.36Zm-8.12,90.84V149.69a4.14,4.14,0,0,0-4.14-4.14h-9.34a4.14,4.14,0,0,0-4.14,4.14V217.9a4.14,4.14,0,0,0,4.14,4.14h9.34A4.14,4.14,0,0,0,430.37,217.9Z"/><path class="cls-2" d="M513.39,137.21v93.17a9,9,0,0,0,1.24,4.54l3.32,5.6H490.34l.71-1.2a8.88,8.88,0,0,0,.84-7.2l-14.6-46.76v45a8.84,8.84,0,0,0,1.25,4.54l3.32,5.6H454.24l3.32-5.6a8.84,8.84,0,0,0,1.25-4.54V137.21a8.84,8.84,0,0,0-1.25-4.54l-3.32-5.6h27.62l-.79,1.32a8.92,8.92,0,0,0-.84,7.2l14.68,47V137.21a8.9,8.9,0,0,0-1.25-4.55l-3.32-5.6H518l-3.31,5.6a8.9,8.9,0,0,0-1.25,4.55Z"/></svg>