<?xml version="1.0" encoding="utf-8"?>
<!-- Generator: Adobe Illustrator 24.1.0, SVG Export Plug-In . SVG Version: 6.00 Build 0)  -->
<svg version="1.1" id="Capa_1" xmlns="http://www.w3.org/2000/svg" xmlns:xlink="http://www.w3.org/1999/xlink" x="0px" y="0px"
	 viewBox="0 0 527.9 260" style="enable-background:new 0 0 527.9 260;" xml:space="preserve">
<style type="text/css">
	.st0{fill:#FFFFFF;}
	.st1{fill:#00B8D9;}
</style>
<g>
	<g>
		<path class="st0" d="M175.7,5.9h10.7c5.7,0,10.4,4.6,10.4,10.3c0,0,0,0,0,0V29l-5.3-3.1c-1.6-0.9-3.3-1.4-5.1-1.4h-21
			c-2.6,0-4.7,2.1-4.7,4.7v67.2c0,2.6,2.1,4.7,4.7,4.7h21c1.8,0,3.6-0.5,5.1-1.4l5.3-3.2v12.7c0,5.7-4.6,10.3-10.4,10.3l0,0h-34.2
			c-5.6,0-10.1-4.5-10.1-10.1V16c0-5.6,4.5-10.1,10.1-10.1L175.7,5.9L175.7,5.9z"/>
		<path class="st0" d="M246.3,5.9c5.7,0,10.4,4.6,10.4,10.4V109c0,5.7-4.6,10.4-10.4,10.4l0,0h-33.9c-5.7,0-10.4-4.6-10.4-10.4l0,0
			V16.3c0-5.7,4.6-10.4,10.4-10.4c0,0,0,0,0,0H246.3z M238.2,96.7V28.5c0-2.3-1.9-4.1-4.1-4.1h-9.3c-2.3,0-4.1,1.9-4.1,4.1
			c0,0,0,0,0,0v68.2c0,2.3,1.9,4.1,4.1,4.1h9.3C236.3,100.9,238.2,99,238.2,96.7L238.2,96.7z"/>
		<path class="st0" d="M302.7,5.9h9.4c5,0,9,4,9,8.9c0,0,0,0,0,0.1v95.4c0,5-4,9-9,9c0,0,0,0-0.1,0h-50.1l3.3-5.6
			c0.8-1.4,1.3-3,1.3-4.6V16.1c0-1.6-0.4-3.2-1.3-4.6L262.1,6L302.7,5.9L302.7,5.9z M302.7,96.6V28.7c0-2.4-1.9-4.3-4.3-4.3
			c0,0,0,0,0,0h-13.3v76.5h13.3C300.8,100.9,302.7,99,302.7,96.6z"/>
		<path class="st0" d="M385.7,5.9v23l-5.6-3.3c-1.4-0.8-2.9-1.2-4.5-1.2h-26v22.1h16.8c1.6,0,3.1-0.4,4.5-1.2l5.6-3.3v27.6l-5.6-3.3
			c-1.4-0.8-2.9-1.2-4.5-1.2h-16.7v35.9h26c1.6,0,3.1-0.4,4.5-1.2l5.6-3.3v23h-59.2l3.3-5.6c0.8-1.4,1.2-2.9,1.2-4.5V16
			c0-1.6-0.4-3.1-1.2-4.5l-3.3-5.6L385.7,5.9z"/>
	</g>
	<g>
		<path class="st0" d="M33,151v92.6c0,1.8,0.5,3.6,1.4,5.1l3.2,5.3H10l3.2-5.3c0.9-1.5,1.4-3.3,1.4-5.1V151c0-1.8-0.5-3.5-1.4-5.1
			l-3.2-5.3h27.6l-3.2,5.3C33.4,147.5,33,149.2,33,151z"/>
		<path class="st0" d="M102.1,150.7v93.2c0,1.6,0.4,3.2,1.2,4.5l3.3,5.6H79.1l0.7-1.2c1.3-2.2,1.6-4.8,0.8-7.2L66,198.9v45
			c0,1.6,0.4,3.2,1.2,4.5l3.3,5.6H43l3.3-5.6c0.8-1.4,1.2-2.9,1.2-4.5v-93.2c0-1.6-0.4-3.2-1.2-4.5l-3.3-5.6h27.7l-0.8,1.3
			c-1.3,2.2-1.6,4.8-0.8,7.2l14.7,47v-45.4c0-1.6-0.4-3.2-1.2-4.6l-3.3-5.6h27.6l-3.3,5.6C102.6,147.6,102.1,149.1,102.1,150.7z"/>
		<path class="st0" d="M166.8,140.6h4.6l-3.3,5.6c-0.8,1.4-1.3,3-1.3,4.6v94.3c0,5-4,9-9,9h-36.6c-5,0-9-4-9-9v-29.2
			c0-3.4,1.8-6.5,4.8-8.2l13.7-7.9V231c0,2.5,2,4.6,4.5,4.6c0,0,0,0,0,0h8.5c2.5,0,4.6-2,4.6-4.5c0,0,0,0,0,0v-80.2
			c0-1.6-0.4-3.2-1.3-4.6l-3.3-5.6L166.8,140.6L166.8,140.6z"/>
		<path class="st0" d="M235.8,140.6v23.1l-5.6-3.3c-1.4-0.8-2.9-1.2-4.5-1.2h-26v22.1h16.7c1.6,0,3.1-0.4,4.5-1.2l5.6-3.3v27.6
			l-5.6-3.3c-1.4-0.8-2.9-1.2-4.5-1.2h-16.7v35.8h26c1.6,0,3.1-0.4,4.5-1.2l5.6-3.3V254h-59.2l3.3-5.6c0.8-1.4,1.2-2.9,1.2-4.5
			v-93.2c0-1.6-0.4-3.1-1.2-4.5l-3.3-5.6H235.8z"/>
		<path class="st0" d="M274.8,140.6h10.7c5.7,0,10.3,4.6,10.4,10.3c0,0,0,0,0,0v12.7l-5.3-3.1c-1.6-0.9-3.3-1.4-5.1-1.4h-21
			c-2.6,0-4.7,2.1-4.7,4.7c0,0,0,0,0,0V231c0,2.6,2.1,4.7,4.7,4.7l0,0h21c1.8,0,3.6-0.5,5.1-1.4l5.3-3.2v12.7
			c0,5.7-4.6,10.3-10.3,10.3c0,0,0,0,0,0h-34.2c-5.6,0-10.1-4.5-10.1-10.1c0,0,0,0,0,0v-93.4c0-5.6,4.5-10.1,10.1-10.1c0,0,0,0,0,0
			L274.8,140.6L274.8,140.6z"/>
		<path class="st0" d="M355.8,140.6v23.1l-5.5-3.3c-1.4-0.9-3.1-1.3-4.7-1.3h-7.8v84.7c0,1.7,0.4,3.3,1.3,4.7l3.3,5.5h-27.6l3.3-5.5
			c0.9-1.4,1.3-3.1,1.3-4.7v-84.7h-7.8c-1.7,0-3.3,0.4-4.7,1.3l-5.5,3.3v-23.1H355.8z"/>
		<path class="st0" d="M384.2,151v92.6c0,1.8,0.5,3.6,1.4,5.1l3.2,5.3h-27.6l3.2-5.3c0.9-1.5,1.4-3.3,1.4-5.1V151
			c0-1.8-0.5-3.5-1.4-5.1l-3.2-5.3h27.6l-3.2,5.3C384.7,147.5,384.2,149.2,384.2,151z"/>
		<path class="st1" d="M438.4,140.6c5.7,0,10.4,4.6,10.4,10.4v92.7c0,5.7-4.6,10.4-10.4,10.4h-33.9c-5.7,0-10.4-4.6-10.4-10.4v-92.7
			c0-5.7,4.6-10.4,10.4-10.4H438.4z M430.3,231.4v-68.2c0-2.3-1.9-4.1-4.1-4.1l0,0h-9.3c-2.3,0-4.1,1.9-4.1,4.1v0v68.2
			c0,2.3,1.9,4.1,4.1,4.1l0,0h9.3C428.5,235.6,430.3,233.7,430.3,231.4L430.3,231.4z"/>
		<path class="st1" d="M513.3,150.7v93.2c0,1.6,0.4,3.2,1.2,4.5l3.3,5.6h-27.6l0.7-1.2c1.3-2.2,1.6-4.8,0.8-7.2l-14.6-46.8v45
			c0,1.6,0.4,3.2,1.2,4.5l3.3,5.6h-27.6l3.3-5.6c0.8-1.4,1.3-2.9,1.2-4.5v-93.2c0-1.6-0.4-3.2-1.2-4.5l-3.3-5.6h27.6l-0.8,1.3
			c-1.3,2.2-1.6,4.8-0.8,7.2l14.7,47v-45.4c0-1.6-0.4-3.2-1.2-4.6l-3.3-5.6H518l-3.3,5.6C513.8,147.6,513.4,149.1,513.3,150.7
			L513.3,150.7z"/>
	</g>
</g>
</svg>
