<?xml version="1.0" encoding="utf-8"?>
<!-- Generator: Adobe Illustrator 24.1.0, SVG Export Plug-In . SVG Version: 6.00 Build 0)  -->
<svg version="1.1" id="Capa_1" xmlns:serif="http://www.serif.com/"
	 xmlns="http://www.w3.org/2000/svg" xmlns:xlink="http://www.w3.org/1999/xlink" x="0px" y="0px" viewBox="0 0 874.6 1492"
	 style="enable-background:new 0 0 874.6 1492;" xml:space="preserve">
<style type="text/css">
	.st0{fill:#FFFFFF;}
	.st1{fill:#C99700;}
</style>
<g transform="matrix(1,0,0,1,-3.017374,3.8091)">
	<g transform="matrix(1,0,0,1,497.0125,587.9428)">
		<path class="st0" d="M-308.3,683.9h-0.8c-81.6,0-145.6-64-145.6-150.8c0-49.2,15.2-84,40.8-113.6l54.8,45.6
			c-16.8,20-26.4,40-26.4,67.6c0,40.4,34,71.6,76.8,71.6h0.8c45.2,0,77.6-31.6,77.6-76c0-18.8-4-33.2-11.6-44.8h-34v55.2h-56.8V410
			h126c24.4,29.6,43.2,70.8,43.2,121.6C-163.6,618.7-223.6,683.9-308.3,683.9"/>
	</g>
	<g transform="matrix(1,0,0,1,502.8386,559.2967)">
		<path class="st0" d="M-285.4,235.9l-79.6,31.2l79.6,31.6V235.9z M-456.9,303.9v-74.8L-175,109.9v83.2l-50,20.4v108l50,20V423
			L-456.9,303.9z"/>
	</g>
	<g transform="matrix(1,0,0,1,482.2859,494.7251)">
		<path class="st0" d="M-366.4,120.1v84h-68V-41.4h68v84h211.9v77.6H-366.4z"/>
	</g>
	<g transform="matrix(1,0,0,1,575.6658,632.1553)">
		<path class="st0" d="M1.7,848.6v-72.4L149.6,661H1.7v-76.8h279.9v68L128.1,771.8h153.6v76.8H1.7z"/>
	</g>
	<g transform="matrix(1,0,0,1,575.6658,577.2126)">
		<path class="st0" d="M1.7,594.8V369.7h66V518h42.4V383.7h61.2V518h44.4V367.7h66v227.1H1.7z"/>
	</g>
	<g transform="matrix(1,0,0,1,604.1492,517.1713)">
		<path class="st0" d="M114,404.9h-0.8c-81.6,0-145.6-64-145.6-150.8c0-49.2,15.2-84,40.8-113.6l54.8,45.6
			c-16.8,20-26.4,40-26.4,67.6c0,40.4,34,71.6,76.8,71.6h0.8c45.2,0,77.6-31.6,77.6-76c0-18.8-4-33.2-11.6-44.8h-34v55.2H89.6V131
			h126c24.4,29.6,43.2,70.8,43.2,121.6C258.7,339.8,198.7,404.9,114,404.9"/>
	</g>
	<g transform="matrix(1,0,0,1,602.8543,483.4279)">
		<path class="st0" d="M108.9-2c0-26.4-12.8-41.6-33.2-41.6h-0.8c-22,0-33.2,16-33.2,42v50.8h67.2V-2z M-25.5,126.8V-5.6
			c0-42.8,11.2-72.4,30.4-91.2c16-16.4,37.6-24.8,65.2-24.8h0.8c42.8,0,71.2,22.8,86,57.6l97.6-66.8v89.6l-84.8,56.4v34h84.8v77.6
			H-25.5z"/>
	</g>
	<g transform="matrix(1,0,0,1,525.0471,451.8411)">
		<path class="st1" d="M-197.8-217c-25.7-28.4-74.1-45.7-125.3-56.2c5.7,11.7,10.3,25.2,13.3,39.9c10.2,50.4-28.2,100.6-28.2,100.6
			s-54.9-31.4-65.1-81.7c-5.4-26.6-4.3-51.7,1.6-70.2c-60.1-5.7-108.9-4.5-108.9-4.5s-21,21,9,115c30.1,94,123.3,110.5,123.3,110.5
			s46.6,10.5,84.2,0C-256.5-74.2-127.2-138.8-197.8-217"/>
	</g>
	<g transform="matrix(1,0,0,1,574.1941,410.9905)">
		<path class="st1" d="M-4.1-248.1c16.4-34.6,57.8-65.1,103.8-89.9c-2.1,12.8-2.6,27.1-1.2,42.1c4.8,51.1,56,88.2,56,88.2
			s43.5-45.9,38.8-97c-2.5-27-10.7-50.7-21.8-66.8c55.9-22.8,103-35.8,103-35.8s26.2,14.1,24.5,112.7
			c-1.7,98.7-86.2,141.3-86.2,141.3s-41.6,23.5-80.6,24.3C93.2-128.3-49.2-152.9-4.1-248.1"/>
	</g>
</g>
</svg>
