<?xml version="1.0" encoding="UTF-8" standalone="no"?><!DOCTYPE svg PUBLIC "-//W3C//DTD SVG 1.1//EN" "http://www.w3.org/Graphics/SVG/1.1/DTD/svg11.dtd"><svg width="959px" height="1492px" version="1.1" xmlns="http://www.w3.org/2000/svg" xmlns:xlink="http://www.w3.org/1999/xlink" xml:space="preserve" xmlns:serif="http://www.serif.com/" style="fill-rule:evenodd;clip-rule:evenodd;stroke-linejoin:round;stroke-miterlimit:2;"><g id="Página-1" serif:id="Página 1" transform="matrix(0.887963,0,0,1.381481,0,0)"><rect x="0" y="0" width="1080" height="1080" style="fill:none;"/><clipPath id="_clip1"><rect x="0" y="0" width="1080" height="1080"/></clipPath><g clip-path="url(#_clip1)"><g id="Capa-1" serif:id="Capa 1" transform="matrix(4.692388,0,0,3.016086,-2016.976017,-1088.686327)"><g transform="matrix(-1.031008,0,0,0.766155,1110.650028,129.287605)"><rect x="316.243" y="293.646" width="448.918" height="491.608"/></g><g transform="matrix(1,0,0,1,-3.017374,3.8091)"><g transform="matrix(1,0,0,1,497.0125,587.9428)"><path d="M0,55.428L-0.162,55.428C-16.669,55.428 -29.616,42.482 -29.616,24.922C-29.616,14.97 -26.541,7.93 -21.362,1.942L-10.276,11.166C-13.675,15.212 -15.617,19.258 -15.617,24.841C-15.617,33.014 -8.739,39.325 -0.081,39.325L0.081,39.325C9.225,39.325 15.779,32.933 15.779,23.951C15.779,20.149 14.97,17.236 13.433,14.889L6.555,14.889L6.555,26.055L-4.936,26.055L-4.936,0L20.553,0C25.489,5.988 29.292,14.323 29.292,24.599C29.292,42.239 17.154,55.428 0,55.428" style="fill:white;fill-rule:nonzero;"/></g><g transform="matrix(1,0,0,1,502.8386,559.2967)"><path d="M0,-12.379L-16.103,-6.067L0,0.325L0,-12.379ZM-34.714,1.377L-34.714,-13.755L22.333,-37.869L22.333,-21.037L12.219,-16.91L12.219,4.937L22.333,8.983L22.333,25.49L-34.714,1.377Z" style="fill:white;fill-rule:nonzero;"/></g><g transform="matrix(1,0,0,1,482.2859,494.7251)"><path d="M0,15.698L0,32.69L-13.757,32.69L-13.757,-16.992L0,-16.992L0,0L42.886,0L42.886,15.698L0,15.698Z" style="fill:white;fill-rule:nonzero;"/></g><g transform="matrix(1,0,0,1,575.6658,632.1553)"><path d="M0,53.486L0,38.84L29.939,15.536L0,15.536L0,0L56.643,0L56.643,13.756L25.57,37.95L56.643,37.95L56.643,53.486L0,53.486Z" style="fill:white;fill-rule:nonzero;"/></g><g transform="matrix(1,0,0,1,575.6658,577.2126)"><path d="M0,45.961L0,0.404L13.352,0.404L13.352,30.425L21.929,30.425L21.929,3.236L34.31,3.236L34.31,30.425L43.291,30.425L43.291,0L56.643,0L56.643,45.961L0,45.961Z" style="fill:white;fill-rule:nonzero;"/></g><g transform="matrix(1,0,0,1,604.1492,517.1713)"><path d="M0,55.428L-0.162,55.428C-16.669,55.428 -29.616,42.482 -29.616,24.922C-29.616,14.97 -26.541,7.929 -21.362,1.941L-10.276,11.166C-13.675,15.212 -15.617,19.258 -15.617,24.842C-15.617,33.014 -8.739,39.325 -0.081,39.325L0.081,39.325C9.225,39.325 15.779,32.933 15.779,23.951C15.779,20.149 14.97,17.236 13.433,14.888L6.555,14.888L6.555,26.055L-4.936,26.055L-4.936,0L20.553,0C25.489,5.987 29.292,14.322 29.292,24.599C29.292,42.239 17.154,55.428 0,55.428" style="fill:white;fill-rule:nonzero;"/></g><g transform="matrix(1,0,0,1,602.8543,483.4279)"><path d="M0,0C0,-5.341 -2.589,-8.415 -6.716,-8.415L-6.878,-8.415C-11.328,-8.415 -13.594,-5.179 -13.594,0.081L-13.594,10.357L0,10.357L0,0ZM-27.188,26.056L-27.188,-0.729C-27.188,-9.387 -24.923,-15.374 -21.038,-19.178C-17.802,-22.495 -13.432,-24.194 -7.849,-24.194L-7.687,-24.194C0.972,-24.194 6.717,-19.582 9.71,-12.542L29.454,-26.056L29.454,-7.93L12.3,3.479L12.3,10.357L29.454,10.357L29.454,26.056L-27.188,26.056Z" style="fill:white;fill-rule:nonzero;"/></g><g transform="matrix(1,0,0,1,525.0471,451.8411)"><path d="M0,-18.316C-5.202,-24.071 -14.998,-27.565 -25.353,-29.689C-24.204,-27.325 -23.264,-24.59 -22.661,-21.606C-20.601,-11.417 -28.374,-1.247 -28.374,-1.247C-28.374,-1.247 -39.488,-7.597 -41.549,-17.786C-42.638,-23.171 -42.426,-28.243 -41.224,-31.997C-53.395,-33.157 -63.271,-32.917 -63.271,-32.917C-63.271,-32.917 -67.53,-28.658 -61.446,-9.64C-55.362,9.378 -36.503,12.711 -36.503,12.711C-36.503,12.711 -27.073,14.841 -19.468,12.711C-11.863,10.582 14.297,-2.498 0,-18.316" style="fill:rgb(142,136,99);fill-rule:nonzero;"/></g><g transform="matrix(1,0,0,1,574.1941,410.9905)"><path d="M0,7.976C3.321,0.965 11.694,-5.205 20.996,-10.224C20.578,-7.629 20.467,-4.74 20.75,-1.708C21.715,8.642 32.09,16.139 32.09,16.139C32.09,16.139 40.901,6.853 39.937,-3.497C39.426,-8.968 37.762,-13.763 35.528,-17.011C46.847,-21.631 56.373,-24.25 56.373,-24.25C56.373,-24.25 61.68,-21.4 61.338,-1.435C60.996,18.529 43.899,27.16 43.899,27.16C43.899,27.16 35.483,31.918 27.588,32.072C19.692,32.226 -9.129,27.245 0,7.976" style="fill:rgb(142,136,99);fill-rule:nonzero;"/></g></g></g></g></g></svg>