<svg id="Capa_1" data-name="Capa 1" xmlns="http://www.w3.org/2000/svg" viewBox="0 0 246.92 242.91"><defs><style>.cls-1{fill:#fff;}</style></defs><path class="cls-1" d="M193,2.43H53.88A49.45,49.45,0,0,0,4.43,51.87V191a49.46,49.46,0,0,0,49.45,49.44H193A49.45,49.45,0,0,0,242.48,191V51.87A49.45,49.45,0,0,0,193,2.43Zm31.11,189.41a30.32,30.32,0,0,1-30.31,30.31H53.07a30.32,30.32,0,0,1-30.3-30.31V51.07a30.32,30.32,0,0,1,30.3-30.31H193.84a30.32,30.32,0,0,1,30.31,30.31Z"/><path class="cls-1" d="M50.33,102.12a5.94,5.94,0,0,1-4.21-1.54,5.09,5.09,0,0,1-1.61-4,4.68,4.68,0,0,1,1.61-3.75,6,6,0,0,1,4.21-1.41h2a5.86,5.86,0,0,1,4.21,1.41,4.81,4.81,0,0,1,1.61,3.88,5.05,5.05,0,0,1-1.61,3.88,6,6,0,0,1-4.21,1.54Zm-4.62,49.44V139.65l1.88-28.83h7.56L57,139.65v11.91Z"/><path class="cls-1" d="M79.77,151.43V91.61h10.3v24h16.06v-24h10.3v59.82H106.2v-26.3H90.14v26.3Z"/><path class="cls-1" d="M125.87,151.43V91.61H138l5.88,19.07c.67,1.94,1.14,3.68,1.54,5.15a24.9,24.9,0,0,1,.74,3.48c.13-.73.33-1.87.74-3.48s.87-3.34,1.4-5.15l5.49-19.07h12.11v59.82h-9.64v-18.6c0-2.74.14-5.76.27-9s.33-6.49.54-9.64.4-6.29.73-9.16.54-5.42.74-7.56l-8,28.23h-9.17l-8.23-28.23c.34,2,.54,4.54.87,7.35s.54,5.89.74,9,.4,6.35.67,9.77.27,6.35.27,9.3v18.59h-9.77Z"/><path class="cls-1" d="M194.24,151.56A5.84,5.84,0,0,1,190.1,150a4.76,4.76,0,0,1-1.54-3.88,5.24,5.24,0,0,1,1.54-3.88,5.88,5.88,0,0,1,4.14-1.54h2.48a5.69,5.69,0,0,1,4.15,1.54,5.66,5.66,0,0,1,0,7.76,5.92,5.92,0,0,1-4.22,1.54Zm-2.54-19.4-1.87-29.44V91.48H201v11.24l-1.87,29.44Z"/></svg>