<svg id="Capa_1" data-name="Capa 1" xmlns="http://www.w3.org/2000/svg" viewBox="0 0 768 482.81"><defs><style>.cls-1{fill:none;}.cls-2{fill:#006c9c;}.cls-3{fill:#fff;}</style></defs><path class="cls-1" d="M207.09,73.09a6.48,6.48,0,0,0-3.17,3.37c-6.13,16.59-12.11,33.23-18.12,49.87-.25.67-.4,1.38-.67,2.37,1-.16,1.61-.24,2.23-.39,7.3-1.68,14.56-3.59,21.91-5a244.31,244.31,0,0,1,67.09-3.81c5,.4,5.06.52,6.78-4.25q10.65-29.43,21.23-58.87c.29-.8.51-1.64.89-2.86-1.86-.13-3.28-.29-4.7-.3C267.92,52.86,237,60.47,207.09,73.09Z"/><path class="cls-1" d="M585.56,223.13c-10.17,28.19-20.3,56.26-30.52,84.6,2.64.61,5.14,1.17,7.63,1.76,27.55,6.54,54.93,6.62,82.14-2a6.43,6.43,0,0,0,4.63-4.45q12.36-34.62,24.89-69.19c.31-.88.55-1.78,1-3.2A221,221,0,0,1,585.56,223.13Z"/><path class="cls-2" d="M539.56,150.29a3.28,3.28,0,0,0-1-2.46c-8.67-6.19-17.46-12.21-26.11-18.42-4.19-3-8.16-6.31-12.61-9.76-29,80.48-58,160.65-87.08,241.36-4.5-3.68-8.43-7.19-12.67-10.28-2.74-2-3.06-3.84-1.92-7q42.62-117.62,85.07-235.29c.75-2.08.31-3.18-1.17-4.68C471.34,92.9,460.73,81.9,450.07,71l-3.15-3.26c-28.44,78.84-56.7,157.15-85.1,235.89-.92-.88-1.63-1.48-2.24-2.16-3.26-3.66-6.26-7.61-9.83-10.93-2.64-2.45-2.47-4.56-1.38-7.57Q369.27,225.28,390,167.55q20-55.52,40.15-111c1.16-3.17.61-5-2-7-9.35-7.41-18.89-14.51-29.45-20.15-2.57-1.37-5.19-2.66-8.08-4.14L387,35.45q-46.77,129.62-93.53,259.23c-.52,1.45-.93,2.94-1.51,4.37-.66,1.64-.34,2.66,1.17,3.86a186.24,186.24,0,0,1,38.28,40.94,227.76,227.76,0,0,0,57.52,58.88,270.82,270.82,0,0,0,49.81,27.42c.6-1.65,1.08-3,1.57-4.33q49.17-136.26,98.35-272.52A10.83,10.83,0,0,0,539.56,150.29Z"/><path class="cls-3" d="M368.08,16.8a196.2,196.2,0,0,0-68.86-12c-46.4,0-89.89,11.79-130.85,33.29a7.11,7.11,0,0,0-3,3.52c-3.55,9.25-6.93,18.56-10.29,27.88C121.3,162.87,42.52,381.08,8.78,474.43l-1.1,3.06.7.49c3-2.17,6-4.32,9-6.53C35.55,458,53.57,444.39,72,431.3a19.54,19.54,0,0,0,7.49-10.12c12.81-35.56,70.84-195.93,83.86-231.41a5.89,5.89,0,0,1,2.83-2.89c3-1.45,6.21-2.58,9.36-3.79,26.64-10.2,54.13-16,82.75-16.05,1.95,0,3.9.2,6,.31l-39.33,109c16.34,1.76,31.43,6.92,46.08,14.27L369.58,17.48C368.94,17.19,368.52,17,368.08,16.8ZM304.37,56.35q-10.61,29.45-21.23,58.87c-1.72,4.77-1.77,4.65-6.78,4.25a244.31,244.31,0,0,0-67.09,3.81c-7.35,1.44-14.61,3.35-21.91,5-.62.15-1.26.23-2.23.39.27-1,.42-1.7.67-2.37,6-16.64,12-33.28,18.12-49.87a6.48,6.48,0,0,1,3.17-3.37c29.87-12.62,60.83-20.23,93.47-19.9,1.42,0,2.84.17,4.7.3C304.88,54.71,304.66,55.55,304.37,56.35Z"/><path class="cls-2" d="M758.69,138.35c-13.93,8.54-27.93,17-41.77,25.65-11,6.92-22.25,13.2-35.17,16.14-33.38,7.59-65.68,3.47-97.27-8.5-9.22-3.5-18.14-7.76-27.47-11.79q-50.1,138.89-100.39,278.24c.81.29,1.58.63,2.38.85,13.41,3.73,26.82,7.49,40.26,11.15,3.73,1,3.77.87,5.14-2.92q16.19-44.78,32.39-89.54c.51-1.42,1.17-2.79,1.74-4.12a8.23,8.23,0,0,1,1.14.12,219.44,219.44,0,0,0,65.42,8.87c29.3-.46,56.66-7.65,81.19-24.14a8.93,8.93,0,0,0,3.23-4.12q35.34-97.37,70.5-194.81a13.78,13.78,0,0,0,.31-2.31C759.46,137.77,759.1,138.1,758.69,138.35Zm-84.36,95.54q-12.47,34.59-24.89,69.19a6.43,6.43,0,0,1-4.63,4.45c-27.21,8.58-54.59,8.5-82.14,2-2.49-.59-5-1.15-7.63-1.76,10.22-28.34,20.35-56.41,30.52-84.6a221,221,0,0,0,89.75,7.56C674.88,232.11,674.64,233,674.33,233.89Z"/></svg>