<svg id="Capa_1" data-name="Capa 1" xmlns="http://www.w3.org/2000/svg" viewBox="0 0 246.92 242.91"><defs><style>.cls-1{fill:#212121;}.cls-2{fill:#fff;}</style></defs><path class="cls-1" d="M209,2.38c-.36,0-.71,0-1.07,0H39c-.36,0-.72,0-1.08,0a36.31,36.31,0,0,0-36.3,36.3V204.23a36.3,36.3,0,0,0,36.3,36.29H209a36.3,36.3,0,0,0,36.3-36.29V38.68A36.3,36.3,0,0,0,209,2.38Z"/><polygon class="cls-2" points="156.32 81.72 123.46 114.58 90.6 81.72 57.73 48.86 24.87 81.72 57.73 114.58 90.6 147.45 123.46 180.31 156.32 147.45 189.18 114.58 156.32 81.72"/><polygon class="cls-2" points="187.21 194.05 187.21 147.58 187.21 123.9 140.73 171.25 140.73 194.05 187.21 194.05"/><polygon class="cls-2" points="60.26 194.05 60.26 147.58 60.26 123.9 106.73 171.25 106.73 194.05 60.26 194.05"/></svg>