<svg id="Capa_1" data-name="Capa 1" xmlns="http://www.w3.org/2000/svg" viewBox="0 0 327 160"><defs><style>.cls-1{fill:#fff;}.cls-2{fill:#00b8d9;}</style></defs><path class="cls-1" d="M4.83,81.61h27V91.86H15.22V122H29.47V132.3H15.22v21.37H4.83Z"/><path class="cls-1" d="M38.76,81.61H53.89q13.85,0,13.85,15.17V117.2q0,9.51-8.19,12.53l11.68,23.94H59.84l-9.36-22.11-1.33.19v21.92H38.76ZM49.15,91.86v30.23h2.39a9.86,9.86,0,0,0,3-.3q2.82-1.14,2.82-4.59V96.78q0-4.92-4.51-4.92Z"/><path class="cls-1" d="M77.1,81.61h27V91.86H87.5v30.23h14.25v10.28H87.5v11h16.56v10.25h-27Z"/><path class="cls-1" d="M111.77,81.61h27V91.86H122.17v30.23h14.25v10.28H122.17v11h16.56v10.25h-27Z"/><path class="cls-1" d="M146.44,153.67V81.61h10.39v61.81H173.4v10.25Z"/><path class="cls-1" d="M194.15,98.14l-7.35,55.53H176.34l10.72-72.06h14.25L212,153.67H201.49Z"/><path class="cls-1" d="M218.24,81.61h10.39l9.85,41.8V81.61h9.62v72.06H237.7l-9.47-40.47v40.47h-10Z"/><path class="cls-1" d="M286.77,132.55v7.13q0,15.13-14.95,15.17t-14.91-15.17V95.61q0-15.14,14.91-15.13t14.95,15.13v9.69H276.38V95.61c0-3.24-1.51-4.86-4.52-4.89h-.07q-4.49,0-4.48,4.89v44.07c0,3.26,1.5,4.88,4.51,4.88s4.56-1.62,4.56-4.88v-7.13Z"/><path class="cls-1" d="M295.22,81.61h26.95V91.86H305.61v30.23h14.25v10.28H305.61v11h16.56v10.25H295.22Z"/><path class="cls-2" d="M282.32,36.33,270.6,33.85l-7.44,1.72-6.1,7.81-9.15-11.91L237.8,28.32l-4.57.67L231.7,42l-.09-.09V42L222,35.66l-.48-.28-3.62-2.29L166.68,5.82l-11.63-.67L167.73,18.6l11.15,2L168,20.12l16.49,11.82,20.4,3L187.08,35l13.54,11.25,4.48,6.49,4.39,3.71.38.29L213.68,60l.19.19,2.39,2,.57,1.15.09.09,2,4.2L207.29,79.8l-9.15,7.06-16.2,8.2-9.35,5.81-3.43,6.29L181,104.88h.1l12.39-5.25,9.44-2.1,4.48-2.09,13.92-1.62-1.81,4.86,2.38.86,5.05-5.82,3.25.19v1.62l-4.39,3.34,5.34,1.14,3.34-2.76.57-2.67,3.62-.48,14.78-9,.76-.29h.1v-.38l4.86-6.38h3l8.86-11.64.19-.28L275.17,61l6.68-11.63,2.67-4.67c1.05-.76,13.34-9.73,35.27-13.16H320l2.19-3.43-35.84,8.2Zm-.85.86-1.43,2-6.49-3.72ZM272.5,53l-5.05,3.15-3.14-2.67,4.38-3.72.67.1Zm-1.71-3.24,7.43.19-4.86,2.48ZM260.11,64.93l-4.19-3.81,5.33.09Zm.48,1.43,6.19.38-8.67,2.86Zm-4.67-6.1,7.15-5.82.47-.38,3.63,3.15-.39-.1-5.14,3.24Zm12.87-11.82-6.3,5.34-5.91,4.76,5.15-8,4.48-5.05,5.91-5.34,7.44-.28-2.1,2.86Zm-2.86-4.1-3.44-3.82,8.11-.38Zm4.57-9.44,7.06,4-5.53.19-7.06-3Zm-6.86,1.71,6.19,2.67-8.58.39Zm-2.77,3.53,4.39,5-3.81,4.38-3.82-5.14Zm-.09,10.11-5.63,8.67.19-7.15L254,48.91l.09-.47,1.82-2.29.09-.1.76-.95Zm-36.8,35-1.43-7.92,12.58,1.05Zm10.87-5.53-7.25,9.72-3.15-3.34Zm-13.06-1.15L223,85.71l-4.67,1.62Zm-4.39,8.87-8.1-3.05,11.82-6.58Zm4.29-40.14-11.63,3.34,10-5.05ZM221,45.1l1.72-.86.38,2.67-.38.1Zm1.53,3.15,1.71,1.9-9.53,3.72Zm1.14-4.39v-.1l-.57-4,6.29,11.44.67.76-4.29-1.71-.57-.38-1.91-2.2.76-1ZM225,50.92l4.86,2-.57.19-11.73,4.57Zm28-3.06-14.88-7,15.35,4.49Zm.57,2.2.86,1.9-1.43.48Zm-8.77,9.24,2.19-3.71,2.76,8.67Zm4.76,6-9.24-.76,3.71-4.29.29-.19ZM247,53.78l-1.33-.48h1.62Zm.48-.39,2.48.1-2.29.67Zm-2.76-1,8.1-3.06-.67,3.25Zm1.81,2.28-2.1,3.53-1.62-4.86Zm-2.77,4.58-3.43,3.91,1.91-8.3Zm1.15,10.3-9-.2,3.43-3.81Zm-3.63-14.88L239,64.45l-.86.19-5.72.77ZM237,58.35l-4.39-5,8.77-.28Zm1.05,7.25-3.24,3.52-2.58-2.67Zm-4,4.1-10,5.43,7.25-8.29Zm-3.33-4-9.44,1.24,9.63-8.29Zm-.67,1-7.82,9.06-2.19-7.72Zm-6.48,9.73,10.87-5.92,1.52,7Zm11.91-6.11,9.63.19L237,77.23Zm2.1,7.54L246,71l.1,10.3-.19.19Zm7.44,4.19L240,89l-2.57-10.1ZM241,65.6l9,.66-3.62,3.15Zm6.2,4.38.48-.38h-.1l3.62-3.15,1.72,7ZM253,74.46l-6,5.91-.09-9.53Zm-2.1-10.1-2.76-8.58,5.72,4.86-.29.48Zm-2.38-9.54,4.39-1.33,1.71-.57-.48,6.77Zm6.67-12.29,1.34,1.71-1.05,1.24-.76-.57Zm-.09,3.33-.76,1,.19-1.15Zm-.67-4.38-.57,2.67-12.2-12.21L253,39.47Zm-7-9.16,3.71,4.87-10.48-7Zm-9.73-2.95,11.06,11L234.75,29.75Zm-3.53,1.05,17.74,13.44-18.69-5.43Zm-1.14,9.15,19.26,9-9.35,3.53-.76.09-9.53-9.34ZM232.37,44l8.39,8.19-9.06.29Zm4,15.15-4.67,5.63.19-6.87-.38-.76-3.24-2.67,3-1Zm-5.91-1.62-9.82,3.63L227.41,55Zm1-14.58-.67,8.48-.66-.76-7.25-13.16ZM222.74,44l-2.29.57-1.24-1.43,3.24-1.34Zm-3.34.76L208.92,47.2l9.34-3.82Zm3-3.15-3.91.67-.67-.76,4.1-3.34ZM217.5,34l4.29,2.76.09.38-3.53,3h-1.62l-2.09-2.39h-.2l-7.53-8.58Zm-.1,8.48-10.77,1.91L216.16,41Zm-2.1-2.29-14.2.38L213.4,38Zm-49-33.46,37.09,19.73,6.1,7.06-25.55-16.4L158.86,6.3Zm-8.2.38,23.55,10.2-13.54.38ZM172.4,18.5l11.25-.38,15.83,10.11L186.23,21Zm13.54,3.34L206.25,32.9,172.78,21.27Zm-1.05,9.25-12.3-8.87,34.13,11.92Zm26.6,4.67L213,37.47l-15.73-1.62ZM189.94,36,208.53,38,195.76,40.9Zm6.49,5.53,16.68-.38L201,45.39Zm5.33,4.67,12.4-2.19-10.87,4.39Zm2.1,3,12.78-2.95-11,5.53Zm2.58,3.44,13.63-3.91L210.25,56Zm4.29,3.71,11.82-4.57-8.3,7.53Zm6.19,5.25-2.19-1.91,10.39-4.1-7.72,7.06Zm.67,1.52L229.13,59l-9.54,8.2Zm1.62,5.44,2.29,7.91-13,7.25-.47-3.34ZM207.1,81.14l.48,3.14-7.44,6.39-1.43-3.15ZM182.32,95.91l11.06-5.53-17,11.83-2.67-1Zm-11.35,10,2.1-4,6.2,2.38Zm22-7-4.76,2-7.34,3-3.44-1.33L198,88.29l1.43,3.24Zm9.63-2.1-8,1.81,5.53-6.38,6.2,2.86Zm4.48-2.48-6.29-2.86,7.44-6.38,8.29,3.14Zm1.53.19,8.77-5.81L221.21,93Zm9.82-6.1L223,86.76l-1.14,5.44Zm3.14,10.11-.85-.29,2.09-5.34,1-5.15,2.39,5.53Zm5.53-5.63-2-4.48L229.51,93Zm1-2.67,8.3-11.06,2.67,10.59-8.3,3.33Zm10.2,3-4.1.57-.57,3L230.94,99l-2.86-.57,3-2.38V94l17-6.77Zm2.77-4.29L246,82.28l6.67,2Zm12.11-5.44-6.11-1.81,6.11-6.1Zm.76-10.1-2.1-8.58,2.86-3.34,5,4.48ZM258.59,77l-4.39,5.72V75l5.24,2Zm-4.1-2.86,2.76-3.63L261,76.66ZM262,76.47l-3.72-6,11-3.62Zm12.2-16.12L269.93,66l-9.06-.57,1.34-4.2,4.86-3.05,7.53,1.53Zm.95-1.52-7.72-1.62,5.82-3.53,3.05,3.24Zm1.62-2.77L274,53.2l6.2-3.14Zm3.91-6.86-10.87-.38,8.11-5.25,5.43,1Zm38.61-18.69C297.77,34,285.57,42.62,283.94,43.76l-5.24-1,2.1-3,.09-.09,1.62-2.39h3.82L320,29.37Z"/><path class="cls-1" d="M35.53,63.32H22.94L4.83,31H18.57L29.25,54.11,39.9,31H53.65Z"/><path class="cls-1" d="M71.15,63.32H57.59V31H71.15Z"/><path class="cls-1" d="M100,63.32H78.36V31H100q13.28,0,19.09,3.72a11,11,0,0,1,5.34,8.16,33.88,33.88,0,0,1,.29,4.3,35.87,35.87,0,0,1-.28,4.29,11.52,11.52,0,0,1-1.5,4.35,11.35,11.35,0,0,1-3.87,3.8,22.86,22.86,0,0,1-7.25,2.7A56.34,56.34,0,0,1,100,63.32Zm-1.28-8q10.33,0,11.69-5.23a12.24,12.24,0,0,0,.36-2.93,11.73,11.73,0,0,0-.37-2.94,5.61,5.61,0,0,0-1.58-2.64,8.6,8.6,0,0,0-3.61-1.89A23.93,23.93,0,0,0,98.71,39H91.93V55.33Z"/><path class="cls-1" d="M177.2,63.32H163.46l-3-5.29H140l-3,5.29H123.24L143.93,31h12.59ZM155.85,50l-5.61-9.8L144.6,50Z"/></svg>