<?xml version="1.0" encoding="UTF-8"?><svg id="Graphic_Elements" xmlns="http://www.w3.org/2000/svg" xmlns:xlink="http://www.w3.org/1999/xlink" viewBox="0 0 1200 800"><defs><style>.cls-1,.cls-2,.cls-3,.cls-4,.cls-5,.cls-6{fill:none;}.cls-2{opacity:.31;}.cls-3{clip-path:url(#clippath-1);}.cls-4{stroke-width:.85px;}.cls-4,.cls-5{stroke:#fff;stroke-miterlimit:10;}.cls-5{stroke-dasharray:0 0 0 12.07;stroke-linecap:round;stroke-width:1.51px;}.cls-6{clip-path:url(#clippath);}</style><clipPath id="clippath"><rect class="cls-1" width="1200" height="800"/></clipPath><clipPath id="clippath-1"><rect class="cls-1" width="1200" height="800"/></clipPath></defs><g class="cls-6"><g class="cls-2"><path class="cls-5" d="m1218.52,84.01c-58.5-1.02-105.53-40.65-160.57-54.56-27.96-7.42-57.08-4.87-85.65-4.16-40.69,1.42-81.31,3.99-121.96,6.09-116.74,6.26-238.55,7.93-348.3-37.92-54.62-32.16-106,8.46-145.74,44.94-34.59,29.57-67.1,68.1-113.38,78.1C145.76,124.38,69.63,38.93-25.94,35.35"/><path class="cls-5" d="m1223.54,90.78c-61.44-2.36-112.06-42.63-171.18-54.3-31.91-6.75-64.62-1.82-96.92-2.05-49.86.92-99.71.93-149.56,2.04-105.69,2.06-217.18,4.94-315.44-39.65-56.54-25.38-108.01,24.28-147.05,59.61-30.82,27.03-61.46,60.21-103.34,68.22C142.46,131.89,65.88,46.56-30.2,43.07"/><path class="cls-5" d="m1229.43,96.65c-79.03-4.79-147.18-61.88-228.16-53.29-79.53,2.31-158.92-8.08-238.44-4.1-91.09-1.61-187.18,5.96-272.15-32.99-72.96-30.63-129.34,45.63-179.53,86.6-21.62,18.17-45.51,36.61-74.23,40.67C138.99,139.08,62.08,54.53-34.5,50.9"/><path class="cls-5" d="m1236.08,101.73c-60.38-3.23-114.62-33.06-173.46-43.7-33.52-7.09-67.75-1.79-101.64-4.77-51.37-3.19-102.25-12.05-153.71-14.04-45.98-.81-91.99.48-137.97,1.68-60.67,1.4-124.01.62-180.12-25.28-77.21-30.35-133.43,51.49-186.92,93.34-39.87,34.63-77.27,42.39-127.71,26.13C102.04,114.04,38.34,62.65-38.84,58.84"/><path class="cls-5" d="m1243.39,106.17c-63.44-3.2-122.45-29.73-185.1-37.61-33.95-4.64-68.45-.21-102.36-5.99-52.83-6.88-104.65-21.09-157.99-24.02-93.72-6.09-189.26,21.4-281.57-2.53-19.81-5.17-38-16.74-59.01-16.69-65.16.18-106.53,60.36-153.11,97.5-41.44,36.75-79.16,44.48-131.93,27.23C99.21,122.39,34.69,70.93-43.23,66.91"/><path class="cls-5" d="m1251.25,110.1c-58.73-2.48-115.33-19.57-173.37-27.18-26.91-4.3-54.12-3.06-81.21-4.68-25.38-2.13-50.33-7.57-74.97-13.83-45.38-11.55-90.64-26.02-137.76-27.97-66.08-2.95-130.91,13.24-196.7,15.74-37.08,1.96-73.87-4.04-108.19-18.2-49.59-15.5-95.01,18.84-129.12,51.19-31.87,28.39-61.67,64.05-104.38,75.51-98.77,15.28-193.77-82.84-293.23-85.59"/><path class="cls-5" d="m1259.56,113.67c-57.3-1.72-113.73-12.21-170.7-17.58-40.45-4.7-81.84-.19-121.47-11.16-103.27-28.27-156.8-67.46-270.59-44.24-49.55,8.25-99.03,20.93-149.59,19.37-26.3.29-50.69-8.87-75.47-16.23-36.92-8.7-73.08,9.66-100.64,33.07-40.14,31.69-71.95,78.24-122.68,93.64C150.26,188.5,47.91,86-52.17,83.39"/><path class="cls-5" d="m1268.21,117c-56.15-.82-112.08-5.35-168.14-7.96-38.71-2.85-78.35,1.64-116.15-8.91-79.44-20.68-151.69-78.28-237.24-68.12-67.97,7.18-132.51,35.6-201.25,37.11-66.56,1.77-89.06-39.91-157.9,6.14-45.18,30.14-76.1,79.67-126.56,102.05C167.22,211.1,43.47,92.99-56.72,91.8"/><path class="cls-5" d="m1277.1,120.24c-55.42.16-110.78.89-166.19,1.36-37.06-.85-75.05,4.28-111.31-5.35-78.11-20.26-141.81-82.31-224.17-88.19-76.13.24-145.17,41.21-220.23,49.44-63.33,10.7-90.45-29.98-149.82-1.44-51.53,25.26-82.31,78.2-131.69,106.55C182.27,233.68,40.94,100.77-61.34,100.34"/><path class="cls-5" d="m1286.12,123.52c-59.48,1.26-118.65,7.47-178,11.01-64.06,4.56-98.66,5.53-156.27-27.38-58.56-31.08-113.55-80.03-182.79-82.11-37.68,2.62-73.43,16.24-108.67,28.92-53.05,18.58-109.13,43.81-166.43,32.61-89.11-33.62-134.2,36.87-193.06,88.67-44.74,41.36-92.14,34.19-145.2,14.59C81.68,163.96,13.89,114.61-66.02,109.01"/><path class="cls-5" d="m1295.16,126.99c-60.53,2.39-120.12,13.68-180.22,20.3-62.37,7.24-95.99,9.24-151.41-24.95-60.6-34.86-113.72-91.76-186.27-99.47-30.83.09-60.45,11.96-88.95,22.71-50.91,19.81-100.39,46.6-155.18,53.81-24.7,4.43-48.23-3.45-72.1-8.28-65.06-9.85-108.69,48.28-150.96,87.84-47.48,47.2-91.32,44.25-150.9,22.85C82.14,175.55,12.04,124.01-70.78,117.8"/><path class="cls-5" d="m1304.13,130.77c-61.66,3.49-121.54,19.49-182.33,29.08-56.3,8.7-91.26,13.69-141.72-18.34-65.35-38.11-116.88-105.33-194.21-119.5-25.54-3.07-50.73,7.67-74.4,16.17-51.11,20.3-98.75,49.2-151.53,65.3-22.28,6.61-45.94,10.71-69.08,6.79-10.49-1.88-20.98-5.96-31.7-6.94-53.82-8.26-95.95,32.61-130.03,68.55-43.54,46.16-78.16,68.52-143,49.21C96.27,197.59,18.48,134.41-75.6,126.71"/><path class="cls-5" d="m1312.92,135c-63.04,4.5-123.26,24.9-184.9,37.27-53.7,10.17-88.9,17.41-137.26-14.38-52.82-33.05-93.85-81.85-146.89-114.59-42.18-25.82-70.34-28.58-115.94-9.56-55.87,21.91-106.08,56.27-162.42,77.11-23.71,8.59-49.16,14.89-74.48,11.53-48.5-13.96-86.71-9.22-125.43,25.16-35.54,29.35-62.02,72.9-107.47,87.99-99.09,22.89-232.62-96.14-338.63-99.79"/><path class="cls-5" d="m1321.42,139.82c-64.17,5.32-124.44,29.55-186.61,44.44-56.61,12.75-91.72,20.84-141.88-15.19-50.88-35.12-89.89-84.68-140.53-120.11-40.11-27.43-69.32-35.73-115.17-15.94-58.65,23.23-110.02,61.43-168.16,85.78-23.74,9.78-49.24,17.64-75.17,15.73-46.02-9.81-77.66-14.46-118.32,15.77-39.54,28.32-65.08,75.09-111.15,94.19-95.86,31.79-243.81-96.81-349.9-99.58"/><path class="cls-5" d="m1329.52,145.37c-66.98,6.03-128.67,34.91-193.11,51.85-53.76,13.37-89.03,21.48-136.49-13.81-48.14-34.53-84.55-82.43-129.97-120.14-38.14-31.24-74.38-51.48-123.06-29.76-81.38,28.62-172.34,118.7-259.01,112.09-31.09-7.84-65.06-11.73-94.43,4.27-47.73,23.67-73.13,75.76-119.55,101.14-91.81,46.96-257.71-95.22-364.45-96.79"/><path class="cls-5" d="m1337.13,151.79c-68.12,6.25-129.87,38.23-194.87,56.93-51.8,14.12-90.69,23.66-136.38-11.78-45.22-33.42-79.13-79.21-119.86-117.55-36.18-34.43-79.9-66.16-131.03-43.1-84.89,29.15-172.75,121.71-262.44,121.07-31.49-4.99-59.91-13.44-91.36-.37-51.18,19.48-77.02,73.02-122.06,101.32C188.94,315.34,12.56,164.71-95.69,163.64"/><path class="cls-5" d="m1344.14,159.2c-68.85,5.98-130.42,40.31-195.58,60.31-48.46,14.18-92.63,25.46-135.7-8.57-42.15-31.1-73.49-73.95-109.5-111.49-34.84-37.17-83.37-81.23-137.81-59.16-90.31,28.71-170.7,120.29-265.39,128.1-12.01.73-23.55-2.61-35.24-5.04-17.4-3.23-35.43-3.62-52.66.53-56.8,13.03-84.67,70.19-129.62,101.66C192.99,331.2,9.38,174-100.92,173.2"/><path class="cls-5" d="m1350.44,167.76c-65.84,4.86-124.66,37.8-186.14,58.77-46.58,15.52-103.32,31.5-145.52-2.72-45.55-33.5-77.57-81.32-116.28-121.86-34.36-37.5-79.25-73.59-132.7-53.29-91.84,28.36-173.32,122.51-269.26,130.31-14.16.86-27.57-4.03-41.49-6.05-15.81-2.36-32.01-2.38-47.61,1.12-56.79,11.86-85.05,68.21-128.95,100.23C192.21,343.57,5.66,183.55-106.26,182.9"/><path class="cls-5" d="m1356.18,177.52c-65.81,5.04-124.95,37.13-186.54,57.93-46.46,15.1-102.95,32.31-145.04-2.08-45.18-33.38-76.81-81.01-115.06-121.48-34-37.39-78.46-74.1-131.82-54.36-60.21,19.26-110.58,59.49-164.91,90.54-33.06,18.95-68.02,38.05-106.6,41.56-28.13,1.81-55.71-10.29-84.02-4.87-59.27,6.37-93.46,60.08-137.16,93.79-50.59,41.69-115.6,14.33-169.56-5.6-74.81-27.99-146.42-70.81-227.05-79.04"/><path class="cls-5" d="m1361.96,187.49c-59.83,4.79-114.88,30.7-170.8,50.36-26.8,9.48-54.17,17.85-82.38,21.82-25.54,5.18-51.73.98-73.22-14.2-75.87-44.98-146.58-208.22-244.57-178.19-76.96,22.74-138.12,78.86-209.68,113.25-27.84,13.51-58.09,25.27-89.53,23.76-12.5-.84-24.88-4.24-37.5-4.64-62.29-5.88-107.05,31.45-150.94,69.86-63.33,53.59-103.29,39.88-176.06,16.84-81.21-26.25-158.62-68.23-244.21-78.51"/><path class="cls-5" d="m1367.82,197.56c-55.93,4.46-108.28,26.22-160.82,44.3-30.36,10.49-61.23,20.12-93.1,24.68-23.59,4.57-47.97,2.72-68.63-10.43-77.12-40.94-144.82-195.69-239.58-176.93-87.79,22.7-154.82,90.61-237.28,125.71-29.31,12.89-61.73,21.65-93.74,15.04-41.27-6.15-84.2,1.16-120.22,22.46-44.27,25.44-83.65,64.46-136.81,69.41-117.3-10.46-223.15-73.86-339.99-87.46"/><path class="cls-5" d="m1373.78,207.76c-50.17,3.83-98,20.65-145.45,36.27-45.74,13.77-129.94,46.34-173.49,21.77-79.88-37.9-138.85-174.18-231.1-172.66-65.02,9.46-120.49,56.52-175.85,89.19-48.47,29.13-100.96,63.79-159.84,59.98-34.58-5.23-70.47-5.2-104.24,4.66-61.68,16.68-113.35,66.7-179.34,67.01-112.94-12.29-219.37-58.51-332.28-70.98"/><path class="cls-5" d="m1379.82,218.08c-87.34,1.31-252.11,86.96-319.23,54.87-80.56-35.65-132.28-153.65-222.44-162.69-53.4.57-106.6,42.66-150.89,69.72-56.76,35.6-114.33,80.43-183.39,85.62-30.56-.74-61.15-6.74-91.84-3.04-62.35,3.94-117.68,36.34-178.19,48.49-19.99,4.86-40.33,4.74-60.58,1.51-25.47-2.99-50.82-7.02-76.1-11.39-76.72-13.1-152.9-30.54-230.52-37.63"/><path class="cls-5" d="m1385.95,228.54c-55.45,3.51-108.79,20.2-162.12,34.58-44.71,10.64-120.98,35.14-163.14,14.2-78.24-34.45-130.46-143.61-219.49-148.97-52.67,2.29-104.69,44.72-148.25,72.07-60.77,38.75-123.58,90.53-199.17,89.81-39.35-4.73-79.23-7.33-118.76-3.07-58.5,5.71-115.06,23.85-173.82,27.75-113.6-4.73-226.6-22.59-340.19-29.34"/><path class="cls-5" d="m1392.18,239.15c-60.91,3.31-119.68,20.94-178.79,34.63-42.97,8.43-106.75,26.63-148.02,9.78-52.39-22.02-89.22-67.85-134.06-101.13-64.07-49.87-107.47-42.86-172.8-.74-77.78,46.13-159.02,126.23-251.56,134.63-40.14-1.18-80.07-9.43-120.4-9.42-63.35-2.28-126.47,4.54-189.71,7.11-113.78-2.66-227.73-1.89-341.53-5.23"/><path class="cls-5" d="m1398.51,249.93c-66.15,2.95-130.22,20.96-194.94,33.39-25.8,4.96-51.8,9.06-78.01,10.96-26.85,3.33-54-.75-77.64-14.34-51.28-27.61-89.93-74.01-142.03-100.3-67.65-36.7-123.51,10.02-178.12,47.13-67.12,45.34-135.26,107.93-218.81,116.42-37.43-.31-74.46-10.07-111.68-13.92-63.24-8.87-126.86-15.51-190.77-16.19-119.43-3.68-237.68,19.39-356.98,19.73"/><path class="cls-5" d="m1404.95,260.87c-75.11,2.58-148.09,22.31-222.23,32.74-71.87,9.49-109.04,14.41-170.47-30.25-45-30.03-87.41-72.45-143.68-78.1-56.1-4.39-106.77,44.22-150.58,74.13-52.03,38.07-103.45,79.91-164.78,101.96-40.42,15.53-72.25,7.55-112.77-.79-51.06-10.2-101.32-23.92-152.28-34.56-50.55-10.19-102.43-18.04-154.03-12.45-97.59,9.12-192.24,40.12-290.46,43.76"/><path class="cls-5" d="m1411.49,272c-74.96,1.83-148.4,18.55-222.63,27.41-65.12,6.73-109.24,14.47-167.04-23.21-46.24-27.13-89.29-66.82-144.68-72.42-49.97-5-90.41,30.26-128.36,57.63-42.02,31.66-82.71,65.32-127.35,93.31-36.45,22.42-76.92,43.3-120.7,43.11-21.53-2.37-42.92-8.11-63.95-13.35-90.88-23.4-176.82-68.42-271.67-74.21-112.6,5.05-215.2,63.75-327.43,71.67"/><path class="cls-5" d="m1418.14,283.32c-94.05,1.45-186.43,22.92-280.35,26.32-40.64,3.41-75.2-3.26-110.66-23.7-57.49-30.77-119.35-82.74-188.43-58.63-37.26,13.42-66.97,41.29-98.16,64.79-56.11,43.95-111.06,92.36-177.8,119.52-20.97,7.87-43.42,14.2-66,12.23-39.71-7.17-78.04-20.37-115.23-35.79-75.52-29.89-149.4-75.71-232.43-78.09-111.21,12.06-206.28,84.32-317.49,96.37"/><path class="cls-5" d="m1424.9,294.85c-95.73.75-190.35,18.75-286,20.87-45.28,3.32-80.04-5.05-119.75-26.71-72.54-39.5-140.11-79.18-216.67-22.21-86.81,62.17-164.37,152.11-270.74,179.51-59.58,16.15-162.66-45.23-216.72-72.87-53.87-27.7-109.8-60.15-171.51-63.34-114.35,14.82-204.08,104.15-318.13,120.11"/><path class="cls-5" d="m1431.78,306.59c-100.88.21-201.04,15.79-301.92,15.91-47.15,4.22-90.78-15.03-131.9-35.84-82.08-42.7-143.55-48.36-215.48,16.53-78.42,62.62-162.4,151.91-264.71,169.01-82.62,6.56-202.82-90.77-278.05-127.23-33.17-15.88-69.04-33.87-106.5-32.94-115.55,19.44-198.55,121.85-314.15,141.13"/><path class="cls-5" d="m1438.78,318.56c-94.06-.14-187.75,9.92-281.76,11.27-18.65-.14-37.37.92-55.98-.19-19.55-1.73-38.5-7.37-56.78-14.33-107.73-46.71-168.7-79.29-266.02,11.78-77.24,64.64-163.22,153.18-266.93,167.12-91.8,1.42-208.5-108.89-291.58-150.08-20.55-10.8-41.99-20.21-64.58-25.75-15.52-4.81-31.48-4.41-46.92.53C-.41,349.87-75.06,453.55-187.39,474.84"/><path class="cls-5" d="m1445.9,330.76c-95.84-.21-191.51,6.98-287.33,7.72-18.62-.32-37.32,1-55.88-.5-19.49-1.94-38.42-7.46-56.77-14.13-107.48-44.55-170.07-70.28-264.18,19.25-78.69,67.85-166.67,156.38-273.97,169.99-94.65,2.38-212.54-120.12-297.51-164.04-59.41-31.5-90.3-40.96-152.14-7-85.24,44.27-155.86,134.77-252.07,152.89"/><path class="cls-5" d="m1453.14,343.21c-97.91.02-195.75,4.56-293.65,5.06-16.97-.28-34.01.89-50.93-.51-21.19-2-41.74-8.05-61.71-15.2-110.8-45.31-172.98-61.59-266.15,29.12-79.13,69.39-163.8,150.47-271.92,166.54-95.11,11.19-217.57-124.08-301.25-169.6-33.33-18.58-72.45-39.67-111.35-27.61-109.35,32.14-184.2,162.43-296.87,182.06"/><path class="cls-5" d="m1460.52,355.93c-99.7.63-199.38,2.73-299.08,3.49-36.7,1.96-73.26-2.05-107.63-15.59-111-44.75-174.97-61.16-268.31,29.54-80.76,71.49-168.46,150.3-278.99,166.56-64.1,9.38-119.33-34.94-168.06-70.53-46.29-35.12-90.07-74.06-140.11-103.92-57.96-35.16-103.01-38.72-161.11-.72-78.88,47.35-152.24,151.61-244.79,164.18"/><path class="cls-5" d="m1468.03,369.46c-103.18,2.21-206.39.37-309.56,2.42-41.63,3.55-82.09-7.37-120.49-22.55-71.66-29.05-138.9-46.6-207.42,1.2-26.27,17.99-49.07,40.67-74.03,60.42-75.64,61.01-158.15,126.33-257.82,137.66-58.61,8.55-110.2-26.97-155.04-60.19-49.65-36.91-95.55-79.22-148.73-111.17-63.54-39.73-114.74-35.09-175.23,7.93-73.58,48.18-144.84,145.37-234.31,156.6"/><path class="cls-5" d="m1475.71,386.07c-108.39,3.73-216.81-5.22-325.19-.95-41.41,2.99-81.2-11.22-119.5-25.2-144.76-55.99-178.68-14.51-289.76,70.63-74.67,55.49-153.86,118.13-249.69,127.05-55.65,7.15-105.34-23.31-148.35-55.07-52.59-38.13-100.5-83.1-156.92-115.74-60.4-36.74-111.51-29.67-168.89,8.99-76.75,47.92-147.3,142.24-239.27,155.26"/><path class="cls-5" d="m1483.58,405.69c-112,4.34-223.75-13.19-335.75-6.94-46.44,1.64-90.03-16.97-133.1-31.86-140.52-51.61-180.86,6.04-289.59,81.22-72.44,51.67-148.16,112.03-240.05,119.54-55.12,6.48-104.46-22.49-147.19-54.11-52.05-37.49-99.45-81.76-155.12-114.04-56.91-34.68-106.64-31.17-162.91,3.06-82.45,46.67-152.82,140.3-249.18,154.73"/><path class="cls-5" d="m1491.63,427.91c-116.08,3.76-231.09-22.86-347.23-15.5-45-.6-87.09-18.48-128.98-32.98-75.91-29.03-147.22-31.33-213.07,21.89-28.95,16.59-56.04,35.86-83.04,55.43-72.52,51.05-146.55,113.54-238.21,121.86-55.46,6.46-103.4-20.45-146.65-52.2-53.51-38.13-101.93-83.78-159.33-116.27-153.88-93.3-267.23,134.33-412.06,150.88"/><path class="cls-5" d="m1499.85,452.37c-118.36,2.58-234.28-33.87-352.86-26.21-41.9-1.18-81.43-16.81-120.39-30.82-74.2-29.12-148.42-41.8-217.52,7.35-33.83,19.52-66.99,40.08-98.12,63.86-71.82,50.94-144.02,115.35-235.19,124.13-55.18,6.42-102.99-20.31-146.08-51.83-53.24-37.84-101.42-83.11-158.35-115.61-153.17-93.27-270.56,124.39-416.1,139.46"/><path class="cls-5" d="m1508.25,478.67c-78.84,1.07-155.59-19.59-233.06-31.22-43.16-7.66-86.92-7.89-130.55-7.69-38.72-2.83-75.33-16.95-111.41-30.31-67.97-27.26-144.91-47.71-212.58-8.27-16.04,10.01-33.18,17.72-49.39,27.39-23.91,14.33-46.46,30.83-68.73,47.57-70.76,51.4-140.96,117.81-231.58,127.5-54.26,6.74-103.41-20.67-145.76-51.7-51.47-36.61-98.26-79.91-152.61-112.42-154.87-100.47-276.9,109.52-425.33,123.24"/><path class="cls-5" d="m1516.83,506.44c-81.49-.32-159.52-26.89-238.89-41.93-42.95-9.58-86.83-10.25-130.55-10.78-39.04-3.61-75.88-18.13-112.22-31.99-60.67-24.01-128.75-47.75-193.25-24.33-50.18,19.93-96.89,47.97-139.07,81.68-72.5,53.79-142.65,126.79-236.25,138.36-54.2,7.01-103.32-21-145.66-51.8-51.42-36.57-98.18-79.76-152.3-112.48-152.22-100.47-281.09,97.15-429.54,108.5"/><path class="cls-5" d="m1525.58,535.3c-126.17-4.23-241.88-73-369.38-66.87-37.62-3.08-73.33-16.48-108.21-30.12-127.86-52.98-187.85-64.27-307.95,15.96-86.16,57.98-172.78,165.26-279.27,177.96-56.44,6.93-106.66-25.09-150.36-56.97-47.68-34.67-91.78-74.38-141.83-105.72-149.98-105.73-288.11,81.26-437.82,90.35"/><path class="cls-5" d="m1534.49,564.87c-89.01-4.07-170.33-44.86-255.44-66.93-25.87-6.79-52.27-11.99-79-13.61-30.79-.08-61.58-2.06-91.02-11.93-144.98-48.79-221.03-117.03-368.36-15.81-87.21,59.18-172.62,172.48-278.76,190.44-58.08,9.31-110.4-24.18-155.33-56.93-46.13-33.61-88.96-71.78-136.87-102.94-150.55-112.04-293.91,63.9-447.44,70.73"/><path class="cls-5" d="m1543.57,594.75c-91.94-6.21-173.73-53.67-260.76-79.37-25.7-7.7-52.05-13.68-78.84-15.69-30.9-.42-61.74-3.07-91.17-13.2-138.25-47.27-233.01-126.5-373.9-25.48-87.57,60.59-175.63,184.26-282.11,202.24-58.27,8.77-110.37-26.35-155.41-58.91-44.41-32.56-85.9-69.13-131.71-99.79-152.01-116.16-298.02,47.29-456.06,51.6"/><path class="cls-5" d="m1552.82,624.59c-94.97-8.4-177.09-62.52-266.11-91.77-23.9-7.98-48.46-14.35-73.54-17.05-32.68-1.55-65.41-3.59-96.5-14.86-129.4-44.42-242.74-134.64-375.06-38.05-89.98,62.05-177.81,194.33-284.99,216.49-96.96,18-204.17-102.93-281.81-153.36-29.63-20.39-61.15-40-96.72-47.63-130.42-18.06-244.47,75.83-373.27,76.74"/><path class="cls-5" d="m1562.23,653.98c-127.14-13.34-228.4-112.39-356.08-123.41-47.84.17-93.51-15.8-136.88-34.68-105.14-46.79-220.36-109.53-326.67-29.06-91.89,63.84-176.8,200.4-284.1,228.59-95.52,22.07-202.52-95.78-277.18-146.3-31.5-22.6-64.64-44.74-102.42-55.06-131.43-24.14-252.48,62.74-383.03,61.16"/><path class="cls-5" d="m1571.8,682.56c-116.17-14.46-207.38-100.05-319.11-128.94-26.83-8.07-54.9-6.08-82.24-10.68-33.37-5.91-65.18-18.22-96.18-31.6-99.83-43.88-224.11-117.45-326.8-42.08-96.15,64.87-181.19,212.25-290.66,243.35-83.57,19.23-168.2-63.51-230.59-109.94-46.07-35.53-92.25-74.46-148.4-92.62-40.56-11.49-83.92-5.48-125.03.03-88.87,14.35-174.97,48.3-266,46.89"/><path class="cls-5" d="m1581.52,709.93c-115.64-15.77-204.4-103.34-314.04-136.92-28.32-10.06-58.19-9.4-87.56-13.14-33.53-5.41-65.57-17.4-96.68-30.71-102.93-42.71-230.24-129.03-336.94-51.82-96.97,66.44-180.04,217.45-289.24,252.29-78.44,20.23-156.66-51.39-215.31-95.12-53.03-40.7-104.66-87.39-169-109.09-43.67-12.59-90.43-5.89-134.89-1.12-86.77,12.03-172.03,38.38-260.32,36.47"/><path class="cls-5" d="m1591.4,735.72c-114.97-16.41-201.61-105.24-308.97-142.74-16.84-5.92-34.23-10.47-51.97-12.57-15.32-1.7-30.82-1.15-46.03-4.01-35.48-5.8-69.3-18.73-102.17-32.96-97.59-40.12-231.19-130.7-332.54-59.42-100.78,67.64-177.61,217.81-287.84,261.4-78.92,26.61-160.4-46.68-219.73-90.73-53.48-41.01-105.27-87.68-169.22-111.58-46.45-15.81-97.05-8-144.97-4.42-86.57,9.65-172.23,30.38-259.79,28.47"/><path class="cls-5" d="m1601.44,759.55c-117.92-16.86-204.51-111.53-314.43-150.13-16.8-5.93-34.18-10.39-51.91-12.26-15.34-1.38-30.81-.92-46.02-3.74-37.41-6.04-73.04-19.75-107.66-34.77-92-37.6-232.82-130.61-327.99-65.99-68.79,46.27-116.79,116.01-172.83,175.86-34.43,36.71-70.62,75.5-118.41,94.22-76.88,27.69-156.18-40.71-214.48-83.59-58.56-44.22-114.37-96.39-184.65-121.14-21.17-7.55-43.72-8.05-65.94-7.68-26.36.14-52.69,1.63-78.95,3.94-86.46,7.75-172.41,23.65-259.49,22.31"/><path class="cls-5" d="m1611.62,781.03c-128.1-17.3-217.84-129.21-340.81-161.57-28.49-8.18-58.43-3.9-87.23-10.25-44.82-8.7-87.05-26.92-128.46-45.65-83.31-35.69-216.39-116.09-302.11-57.32-105.48,66.85-182.57,230.92-295.02,275.61-75.66,24.38-152.17-39.97-209.73-81.94-61.83-46.09-120.33-101.8-194.91-126.24-21.31-6.99-43.83-6.66-65.97-6.15-27.96.45-55.88,1.95-83.76,4.06-84.81,6.53-169.36,18-254.56,17.86"/><path class="cls-5" d="m1621.95,799.62c-126.65-16.29-215.79-125.33-335.87-160.47-31.71-10.67-65.34-5.42-97.71-11.95-44.81-8.28-87.18-25.92-128.67-44.27-82.77-34.54-222.53-118.33-306.51-60.09-106.2,66.66-182.73,230.09-295.05,276.42-76.9,25.8-155.52-39.79-214.31-82.26-64.63-47.45-125.96-106.41-205.08-127.94-19.88-5.2-40.51-3.87-60.83-3.36-27.94.79-55.86,2.29-83.75,4.21-84.92,5.91-169.68,15.09-254.87,16.29"/><path class="cls-5" d="m1632.42,814.86c-131.06-17.59-224.96-129.72-351.73-160.36-30.44-7.62-62.25-3.17-92.77-10.57-44.43-9.06-86.51-26.64-127.84-44.88-62.38-27.39-123.93-59.31-191.21-72.84-39.87-8.78-78.88-6.97-113.46,16.67-71.05,46.79-120.84,118.03-178.8,179-34.62,36.37-70.85,74.74-118.35,93.71-76.1,28.02-159.64-39.74-218.68-81.5-66.08-47.39-129.16-106.53-209.96-126.6-19.93-4.7-40.47-3.07-60.74-2.6-27.96.86-55.9,2.38-83.81,4.25-85.21,5.8-170.26,14.53-255.72,15.88"/><path class="cls-5" d="m1643.05,827.6c-131.68-17.56-229.18-125.79-357.21-154.93-28.83-6.92-58.79-3.25-87.73-9.55-45.78-8.57-89.16-26.36-131.67-44.92-82.28-34.14-219.24-112.52-302.79-57.01-73.44,45.61-125.5,117.04-185.57,177.8-36.38,36.75-74.43,75.69-123.86,94-73.56,24.86-155.69-38.3-213.64-77.93-67.94-47.17-132.65-106.13-214.63-126.74-19.93-4.88-40.49-3.58-60.8-3.01-29.69.89-59.36,2.45-89,4.37-85.6,5.62-171.08,13.84-256.91,15.29"/><path class="cls-5" d="m1653.86,838.25c-133.94-16.87-236.32-123.23-367.91-148.2-27.26-5.09-55.31-2.27-82.49-8.26-43.35-8.06-84.62-24.33-125-41.63-83.56-33.97-219.13-111.7-305.13-59.65-76,44.05-130.64,115.43-193.08,175.68-37.23,36-76.07,73.77-125.41,92.17-74.17,26.06-158.73-36.57-218.13-75.83-69.36-46.47-135.91-104.9-219.32-123.34-20-4.22-40.49-2.52-60.76-2.09-29.8.91-59.58,2.43-89.33,4.27-86.1,5.37-172.09,13.05-258.39,14.54"/><path class="cls-5" d="m1664.86,847.21c-149.25-16.57-266.94-142.12-419.9-141.85-57.21-3.53-111.37-24.58-163.61-46.81-84.53-34.4-214.09-106.81-301.61-55.41-76.32,42.84-132.96,111.93-196.73,170.45-38.19,35.12-77.97,71.63-127.35,89.89-74.26,26.22-157.04-31.64-217.7-69.84-69.77-44.82-136.56-100.57-218.69-120.45-21.64-5.24-43.95-3.95-65.99-3.32-29.95.85-59.88,2.26-89.79,3.97-88.34,5.08-176.59,12.45-265.11,13.95"/><path class="cls-5" d="m1676.08,854.89c-152.93-16.07-278.54-134.84-435.73-130.76-52.51-5.19-102.33-24.13-150.63-44.43-85.25-34.31-208.34-102.15-298.01-55.48-77.31,39.75-135.98,106.34-200.72,162.85-40.68,35.63-82.78,72.71-134.3,91.43-76.31,26.48-159.01-28.78-222.35-66.83-71.19-43.65-139.88-98.3-223.28-115.62-21.75-4.42-44-2.67-66.02-2.24-30.12.84-60.22,2.18-90.31,3.77-89,4.76-177.92,11.51-267.08,12.97"/><path class="cls-5" d="m1687.52,861.69c-102.2-8.3-193.18-60.6-289.16-91.98-29.19-9.69-59.07-17.73-89.61-21.67-20.4-3.1-41.05-1.83-61.53-3.78-51.32-4.82-100.19-22.76-147.5-42.34-85.87-34.13-201.49-96.98-293.28-56.58-78.29,35.77-138.93,99.48-204.4,153.69-43.38,36.15-87.9,73.77-141.49,93.58-78.54,28.11-159.81-22.71-226.35-60.47-71.28-41.48-140.1-93.01-222.08-110.66-23.39-5.08-47.37-3.52-71.11-3.01-30.24.77-60.46,1.98-90.67,3.43-91.2,4.4-182.34,10.72-273.67,12.12"/><path class="cls-5" d="m1699.21,868.02c-101.13-6.31-193.47-52.48-289.55-80.32-31.06-9.11-62.75-16.56-94.99-19.86-20.37-2.47-40.93-1.04-61.32-3.05-50.19-4.61-98.11-21.68-144.49-40.58-87.1-34.26-194.84-91.79-288.95-55.99-79.24,32.62-142.03,93.63-208.75,145.67-46.19,36.29-93.36,74.13-149.31,94.03-76.63,26.71-154.96-16.06-221.42-51.5-74.82-40.54-146.61-92.38-231.37-109.56-23.47-4.79-47.48-3.37-71.26-2.91-30.44.69-60.86,1.78-91.28,3.08-93.67,4.03-187.28,9.9-281.06,11.23"/><path class="cls-5" d="m1711.17,874.28c-100.19-4.33-193.76-44.35-289.99-68.51-31.28-7.93-63.04-14.37-95.21-17.21-22.03-2.35-44.23-.64-66.26-2.77-47.49-4.23-93.06-19.57-137.13-37.07-88.96-34.26-186.68-86.69-283.99-58.45-58.44,19.43-108.4,57.24-157.46,93.41-68.14,49.9-133.09,108.19-213.13,138.26-77.08,28.69-157.76-9.41-226.32-44.07-75.07-38.06-147.11-86.79-230.63-104.14-25.17-5.38-50.97-4.2-76.52-3.68-30.64.61-61.28,1.57-91.91,2.73-96.2,3.64-192.34,9.03-288.63,10.27"/><path class="cls-5" d="m1723.4,880.88c-99.18-2.44-193.64-36.24-289.87-56.67-33.12-7.09-66.63-12.73-100.45-14.87-21.94-1.71-43.99.1-65.9-1.96-46.34-3.86-90.96-18.25-134.08-35.03-87.8-33.78-182.13-81.57-278.36-58.15-54.78,15.44-102.92,47.52-149.62,79.09-74.13,49.91-143.89,109.4-227.97,142.12-75.32,30.52-156.73.69-226.12-32.02-78.6-36.33-153.37-84.83-239.15-102.55-25.15-5.39-50.92-4.81-76.48-4.23-32.49.53-64.96,1.41-97.44,2.48-98.56,3.26-197.07,8.12-295.69,9.26"/><path class="cls-5" d="m1735.92,888.23c-98.35-.73-193.55-28.52-289.82-45.25-54.88-10.89-110.71-13.03-166.45-13.16-45.47-2.83-89.51-15.9-131.94-31.87-85.11-32.43-173.75-75.16-267.23-60.99-56.81,10.78-107.41,41.18-156,71.19-78.3,48.52-151.65,107.2-237.92,141.33-74.04,31.39-155.9,9.61-226.43-21.02-82.07-34.23-159.62-82.26-247.63-100.15-26.81-5.72-54.27-5.17-81.51-4.59-32.63.46-65.25,1.23-97.88,2.15-100.94,2.88-201.84,7.2-302.82,8.25"/><path class="cls-5" d="m1747.05,895.52c-99.7.56-197.19-23.14-295.45-36.66-55-8.95-110.66-9.17-166.17-9.54-43.17-2.64-85.16-14.34-125.62-29.1-85.28-31.93-173.31-73.24-266.72-60.81-59,9.62-112.06,39.78-163.07,69.52-78.13,45.86-151.97,100.74-236.79,133.97-73.55,31.23-155.53,15.08-227.17-13.66-83.87-31.94-162.91-78.49-251.55-96.58-28.47-6.17-57.64-5.83-86.6-5.19-32.77.41-65.54,1.07-98.31,1.88-103.32,2.56-206.61,6.45-309.96,7.42"/><path class="cls-5" d="m1758.42,903.95c-99.34,1.64-197.34-17.25-295.77-27.81-55.28-7.06-110.98-6.93-166.56-6.67-44.05-2.01-87.03-13.4-128.38-28.2-84.07-31.23-170.57-69.87-262.42-59.12-59.11,8.16-112.96,36.57-164.69,64.86-79.77,44.01-155.35,96.88-240.67,129.97-74.97,31.72-158.77,19.1-232.91-8.66-85.43-30.1-166.18-75.11-255.82-92.14-28.53-5.79-57.67-5.4-86.62-4.81-34.66.38-69.31,1-103.96,1.76-103.95,2.26-207.88,5.61-311.86,6.51"/></g></g><g class="cls-3"><path class="cls-4" d="m14.44-32.67c64.23-.91,121.66-33.22,183.87-44.52,33.41-6.93,67.52-1.61,101.28-4.63,46.52-2.88,92.61-10.34,139.13-13.12,50.61-2.31,101.32-.05,151.96.95,60.67,1.34,123.98.47,180.07-25.43,79.54-30.91,135.8,55.19,191.52,96.99,35.9,30.25,72.29,37.73,117.34,24.13,76.51-20.26,142.98-76.7,224.28-77.86"/><path class="cls-4" d="m7.06-28.25c65.58-1.25,126.44-28.65,190.75-37.74,35.37-5.46,71.38-.55,106.76-6.53,51.13-6.63,101.29-20.07,152.85-23.47,95.22-7.13,192.34,21.31,286.14-3.01,19.81-5.17,37.99-16.75,59-16.71,65.14.15,106.52,60.31,153.08,97.45,38.99,34.5,75.74,44.55,126.18,29.01,77.12-20.95,144.44-77.46,226.51-78.82"/><path class="cls-4" d="m-.89-24.38c60.8-1.21,119.36-18.77,179.21-27.25,26.64-4.31,53.55-4.01,80.41-4.85,22.06-1.48,43.84-5.55,65.33-10.61,45.74-10.76,90.72-26.01,137.73-30.32,67.51-5.96,134.09,10.31,201.21,14.22,33.07,1.76,66.93.15,98.44-10.81,59.88-29.43,110.54,7.06,152.87,48.11,31.44,28.26,61.84,63.78,105.07,72.57,102.36,9.57,191.23-86.45,293.43-86.6"/><path class="cls-4" d="m-9.3-20.93c59.32-.95,117.73-11.73,176.6-17.67,41.83-5.22,84.68-.34,125.7-11.6,103.04-28.2,156.64-66.98,270.12-43.96,49.54,8.2,99.02,20.81,149.58,19.22,26.31.26,50.69-8.89,75.47-16.27,36.92-8.72,73.09,9.63,100.66,33.04,40.14,31.68,71.95,78.19,122.63,93.65,100.18,18.39,203.6-88.03,305.91-87.09"/><path class="cls-4" d="m-18.06-17.74c58.15-.49,116.07-5.19,174.1-8.08,40.11-3.16,81.23,1.66,120.42-9.19,79.26-20.67,151.44-77.86,236.79-67.78,67.95,7.12,132.51,35.45,201.22,36.91,66.58,1.74,89.08-39.96,157.93,6.08,45.18,30.14,76.12,79.64,126.56,102.06,95.91,34.35,220.42-87.92,323.03-85.47"/><path class="cls-4" d="m-27.07-14.67c57.43.09,114.79.76,172.2,1.2,38.49-.98,77.97,4.5,115.65-5.43,76.45-19.95,138.83-79.36,218.9-87.47,77.81-2.53,148.44,40.81,225,48.87,63.51,10.67,90.4-30.02,149.86-1.49,51.55,25.25,82.34,78.19,131.71,106.56,93.55,51.84,235.65-85.6,340.43-82.24"/><path class="cls-4" d="m-36.22-11.57C25.26-10.78,86.42-4.53,147.73-.75c69.24,4.85,103.29,6.34,165.35-29.78,56.57-30.78,110.56-77.2,177.74-79.22,37.65,2.58,73.4,16.15,108.62,28.79,47.84,16.95,96.91,37.97,148.65,35.06,16.87-.48,32.37-7.83,48.92-10.23,72.57-10.85,116.46,59.59,166.04,99.62,42.5,38.15,91.63,29.81,141.05,11.39,75.69-26.19,145.18-78.04,227.32-80.91"/><path class="cls-4" d="m-45.39-8.28C17.16-6.75,78.77,4.7,140.79,11.78c63.86,7.32,98.81,10.79,155.78-24.49,60.52-34.77,113.6-91.44,185.99-99.21,30.81-.01,60.43,11.86,88.93,22.56,50.94,19.77,100.44,46.54,155.24,53.73,24.71,4.42,48.25-3.43,72.13-8.28,65.09-9.9,108.76,48.27,151.06,87.84,47.44,47.14,91.23,44.28,150.78,22.91,78.69-26.55,150.48-80.68,235.55-84.1"/><path class="cls-4" d="m-54.49-4.66C7.58-2.45,67.94,13.01,128.91,23.32c59.2,9.17,97.63,17.34,151.07-16.85,65.26-38.02,116.77-105,193.94-119.26,25.53-3.17,50.72,7.54,74.38,16.01,51.14,20.25,98.8,49.13,151.59,65.23,40.37,12.55,61.23,9.09,100.84-.14,57.87-8.82,100.7,38.04,137.28,75.75,48.85,51.58,86.31,59.49,153.41,36.79,83.95-26.27,159.9-85.16,249.71-89.22"/><path class="cls-4" d="m-63.4-.57C1.77,2.33,64.05,23.15,127.48,36.34c55.32,10.47,91.74,19.42,141.79-13.46,52.74-32.96,93.74-81.6,146.66-114.3,42.1-25.78,70.29-28.77,115.89-9.79,55.91,21.84,106.13,56.19,162.48,77.04,23.73,8.6,49.2,14.91,74.55,11.57,51.06-14.73,89.32-8.32,129.18,28.32,34.82,29.81,61.95,73.55,108.37,86.08C1110.62,118.63,1237.11,1.43,1346.1.68"/><path class="cls-4" d="m-72.01,4.16C-5.65,7.51,56.69,32.3,120.57,48.14c58.19,13.17,94.58,23.21,146.46-14.01C317.85-.9,356.84-50.33,407.36-85.72c40.01-27.38,69.3-35.97,115.12-16.24,58.69,23.16,110.09,61.35,168.23,85.72,23.77,9.8,49.28,17.67,75.25,15.8,46.08-9.78,77.68-14.53,118.41,15.75,39.56,28.33,65.12,75.12,111.21,94.22,98.19,32.15,247.08-100.7,355.55-99.69"/><path class="cls-4" d="m-80.21,9.67C-12.77,13.2,49.57,41.45,113.78,59.56c26.61,7.49,53.84,13.16,81.49,14.73,21.72-1,42.05-10.74,59.96-22.54,50.52-34.42,87.73-84.3,134.54-123.13,37.75-31.07,74.66-51.78,123.01-30.12,81.78,28.94,167.42,114.51,254.74,112.56,37.55-7.11,67.02-14.32,102.99,5.92,46.64,25.2,71.89,77.58,119.62,101.05,95.76,41.07,257-100.69,366.12-98.89"/><path class="cls-4" d="m-87.91,16.1C-17.49,19.55,46.35,52.47,112.88,72.31c53.28,14.73,93.71,26.4,141.09-10.23,45.18-33.31,79.07-79,119.7-117.29,35.79-34.22,80.23-66.51,130.96-43.53,85.06,29.06,172.82,121.64,262.63,121.14,31.64-4.95,59.78-13.5,91.44-.4,51.22,19.48,77.07,73.07,122.16,101.37,92.57,57.68,269.77-97.72,380.55-94.79"/><path class="cls-4" d="m-94.98,23.61C-25.67,26.31,36.67,60.05,101.36,81.33c51.11,15.61,99.42,31.11,145.58-5.19,42.13-30.99,73.45-73.74,109.37-111.23,34.84-37.12,83.23-81.5,137.75-59.66,90.58,28.62,170.62,120.15,265.6,128.19,12,.74,23.56-2.55,35.24-5,17.42-3.26,35.48-3.66,52.74.49,56.86,13.02,84.74,70.26,129.74,101.72,92.14,66.39,276.57-95.85,389.31-92.49"/><path class="cls-4" d="m-101.32,32.35C4.28,29.09,154.94,157.08,240.98,89.04c45.54-33.37,77.54-81.1,116.16-121.61,34.31-37.43,79.14-73.98,132.63-53.84,92.13,28.27,173.25,122.38,269.49,130.43,14.17.89,27.59-3.97,41.5-6.02,15.84-2.37,32.06-2.42,47.69,1.08,56.86,11.84,85.12,68.28,129.08,100.29,92.76,70.1,280.3-95.12,394.5-91.48"/><path class="cls-4" d="m-107.11,42.07c64.27,1.56,122.76,31.39,182.03,52.96,33,12.12,67.27,22.38,102.61,23.78,20.97,1.06,40.83-8.28,57.61-20.14,45.18-33.24,76.79-80.8,114.94-121.24,33.6-37.18,78.74-74.61,131.74-55,60.29,19.09,110.69,59.38,165.03,90.45,33.12,19.01,68.11,38.18,106.76,41.77,28.17,1.89,55.78-10.29,84.13-4.88,61.02,6.47,95,63.02,140.8,96.45,49.81,38.34,113.98,10.89,166.07-8.24,76.54-28.44,149.94-73.44,232.85-79.32"/><path class="cls-4" d="m-112.97,51.97C-54.78,53.77-.59,77.49,53.26,97.28c31.77,11.73,64.13,22.68,97.76,27.46,25.46,5.16,51.61,1.15,73.08-13.94,75.98-44.74,146.48-207.92,244.37-178.61,75.24,21.91,135.31,76.16,204.69,110.6,29.4,14.75,61.38,28.04,94.86,26.52,12.52-.81,24.89-4.23,37.52-4.64,62.41-5.96,107.19,31.49,151.12,69.99,65.82,55.83,107.53,38.42,182.45,14.6,80.7-26.59,158.1-68.79,243.73-76.86"/><path class="cls-4" d="m-118.93,62.01c52.35,1.79,102.05,20.22,150.89,37.53,35.55,12.62,71.42,25.24,108.77,31.28,25.09,4.99,51.41,4.88,73.61-9.4,77.19-40.74,144.97-195.43,239.39-177.35,87.96,22.4,155.03,90.48,237.52,125.65,31.24,14.31,65.76,21.75,99.81,14.47,43.82-5.72,88.47,5.37,125.25,29.63,39.62,25.26,77.41,58.58,126.12,63.11,119.26-10.68,226.71-76.39,345.9-88.16"/><path class="cls-4" d="m-124.97,72.22c48.28,1.66,94.75,16.46,140.27,31.48,48.56,14.65,142.05,52.76,188.51,27.87,80.76-37.51,137.94-171.88,230.11-173.51,64.54,7.18,125.22,58.26,180.28,90.57,47.06,28.27,97.76,61.11,154.74,58.91,36.06-5.16,73.4-5.92,108.58,4.83,61.38,17.02,113.08,67.27,179.07,66.66,114.57-12.67,222.46-60.39,337.28-71.58"/><path class="cls-4" d="m-131.11,82.58c51.98,1.7,102.07,17.25,151.45,32.27,46.68,12.85,133.93,44.82,178.59,23.43C279.9,102.71,330.85-14.72,421.2-24.69c53.11-.04,106.96,42.39,151,69.29,56.89,35.67,114.53,80.64,183.72,85.95,30.61-.68,61.24-6.75,91.98-3.02,63.99,4.06,120.54,38.2,182.92,49.55,20.39,4.93,41.09,2.8,61.64-.09,25.68-3.18,51.24-7.36,76.74-11.85,76.57-13.28,152.67-30.72,230.25-37.12"/><path class="cls-4" d="m-137.34,93.11c72.2,2.12,140.51,28.06,210.12,44.5,36.08,7.03,80.88,20.26,116.66,8.69,52.52-19.63,88.24-65.98,129.58-101.67,66.29-59.86,108.55-67.2,185.34-19.58,77.94,43.99,156.51,120.38,247.73,130.09,36.87-.28,73.69-7.85,110.75-4.6,66.35,2.78,129.93,25.09,196.1,29.56,115.59-4.94,230.55-23.33,346.15-29.91"/><path class="cls-4" d="m-143.67,103.8c68.25,1.59,133.83,22.52,199.95,37.31,41.03,7.61,97.01,23.37,136.82,8.16,52.44-21.3,89.24-66.92,133.63-100.29,63.21-49.77,106.47-46.05,172.18-3.85,78.67,46.25,158.13,125.32,251.16,136.01,17.14,1.49,34.15-2.55,51.18-4.06,22.97-2.51,46.01-4.26,69.09-5.05,63.07-2.48,125.92,4.23,188.87,6.99,117.13-2.13,234.46-1.97,351.61-5.46"/><path class="cls-4" d="m-150.11,114.67c68.21,1.12,134.34,19.55,200.86,32.66,27.47,5.42,55.15,9.97,83.09,12.03,26.79,3.32,53.92-.45,77.57-13.95,51.37-27.44,90-73.83,141.95-100.34,66.1-36.2,119.93,6.47,173.71,43.08,68.29,45.86,134.95,107.99,219.21,119.67,15.17,1.9,30.25-1.15,45.24-3.33,22.13-3.24,44.24-6.47,66.38-9.53,66.55-9.4,133.51-16.38,200.78-16.78,119.74-3.18,238.3,20.29,357.94,19.59"/><path class="cls-4" d="m-156.65,125.72c76.95.73,151.76,20.89,227.49,32.1,69.01,8.99,110.69,17.56,170.76-25.17,46.92-30.3,89.66-74.84,147.43-82.09,56.92-5.73,106.16,41.85,150.33,71.91,50.81,37.23,100.85,77.79,159.93,101.19,44.69,18.67,76.8,11.12,122,1.58,50.9-10.22,101.01-23.88,151.85-34.39,50.5-10.1,102.33-17.74,153.86-12.02,99.22,9.37,195.53,41.33,295.53,43.66"/><path class="cls-4" d="m-163.3,136.95c76.78.21,152.03,17.27,227.91,26.8,33.94,3.84,68.36,7.91,102.53,5.49,23.15-2.82,44.71-12.72,64.77-24.22,48.19-27.13,91.67-68.85,148.53-75.92,51.59-6.39,93.43,30.43,132.48,58.65,41.94,31.66,82.63,65.25,127.32,93.06,35.21,21.51,74.09,41.32,116.18,42.07,23.14-1.47,46-8.39,68.52-13.8,90.63-23.56,176.51-68.33,271.22-73.71,114.15,5.88,218.21,65.92,332.37,71.96"/><path class="cls-4" d="m-170.06,148.36c97.56-.31,193.32,22.61,290.62,26.36,40.4,3.33,74.97-2.36,110.4-22.63,57.6-30.29,118.38-82.65,187.61-60.56,39.19,13.1,70.02,42.54,102.51,66.95,55.99,43.87,110.94,92.14,177.73,118.82,21.05,7.58,43.79,14.23,66.32,11.28,37.82-7.01,74.4-19.45,109.93-34.02,77.11-30.02,152.32-77.71,237.05-79.29,112.73,12.62,209.15,87.11,322.52,96.65"/><path class="cls-4" d="m-176.94,159.97c99.5-.78,197.79,18.56,297.14,20.87,45.44,3.25,79.76-4.5,119.71-26.23,72.28-39.16,139.9-79.77,216.57-23.45,87.45,62.33,164.49,152.32,271.47,180.16,59.72,16.36,162.93-45.16,217.13-72.84,53.92-27.65,109.97-60.3,171.73-63.18,116.22,15.09,207.29,107.7,324.06,120.63"/><path class="cls-4" d="m-183.93,171.77c104.62-1.11,208.48,15.64,313.06,15.87,47.11,4.27,90.81-14.46,131.89-35.37,81.83-42.63,143.61-49.47,215.74,15.42,78.65,62.72,162.66,152.26,265.18,169.57,82.61,6.85,203.3-90.89,278.58-127.29,31.82-15.88,65.73-30.95,101.58-33.36,119.89,16.99,204.88,126.57,325.12,142.39"/><path class="cls-4" d="m-191.03,183.77c97.8-1.1,195.23,9.72,292.97,11.19,18.64-.08,37.34.81,55.94-.09,19.54-1.59,38.52-7.12,56.79-14.03,107.73-46.24,168.47-80.4,266.31,10.7,77.45,64.78,163.49,153.59,267.42,167.75,91.52,1.87,209.2-109.18,292.16-150.19,20.57-10.79,42.05-20.18,64.67-25.68,15.55-4.83,31.5-4.19,46.94.75,109.56,31.03,187.26,139.75,301.54,156.57"/><path class="cls-4" d="m-198.26,195.98c99.59-.9,199,6.82,298.56,7.64,42.08,1.24,77.65.71,117.22-15.89,108.74-45.95,169.87-66.82,263.57,23.04,78.07,67.29,164.44,153.68,270.85,167.43,94.62,2.75,213.1-120.38,298.13-164.19,59.45-31.56,90.56-40.61,152.3-6.54,85.21,44.09,161.24,140.51,257.99,153.35"/><path class="cls-4" d="m-205.61,208.39c101.39-.39,202.7,4.46,304.08,5.03,18.56-.32,37.23,1.09,55.72-.78,21.06-2.34,41.44-8.56,61.29-15.76,114.74-47.5,174.31-58.27,268.84,34.51,78.24,68.34,161.45,147.02,268.34,162.16,96.85,9.66,220.05-128.79,306.81-173.81,60.22-33.95,96.37-37.17,156.61-.03,80.43,46.5,157.04,148.98,251.1,159.16"/><path class="cls-4" d="m-213.09,221.02c103.18.52,206.34,2.74,309.51,3.55,38.23,2.08,76.31-2.03,112.04-16.39,122.9-50.22,179.32-55.86,278.5,41.64,77.5,67.73,162.52,140.93,267.99,155.44,99.35,16.15,220.42-128.44,308.29-175.56,66.95-40.69,113.76-33.72,176.16,11.38,71.57,48.11,145.83,147.31,234.74,153.44"/><path class="cls-4" d="m-220.7,234.33c108.35,2.68,216.75.54,325.11,2.77,41.44,3.43,81.55-8.47,119.73-23.4,71.95-29.3,139.09-45.24,207.22,3.3,28.59,20.36,53.74,45.08,81.34,66.7,73.33,58.5,153.87,120.1,250.08,130.22,58.83,8.01,110.27-28.3,155.21-61.58,51.16-38.11,98.38-82.1,153.97-113.89,69.85-42.08,124.26-22.94,185.02,24,67.23,48.28,138.05,139.71,224.31,144.87"/><path class="cls-4" d="m-228.5,250.76c111.85,4.92,223.76-4.76,335.61-.55,46.3,3.79,90.26-13.67,132.98-29.13,141.44-54.42,181.79,2.46,288.16,81.88,72.08,53.3,149.33,112.17,241.66,119.92,55.86,6.73,105.4-24.56,148.49-56.38,52.45-38.19,100.33-83.12,156.87-115.43,63-38.05,115.63-26.46,173.73,14.18,74.52,48.25,147.87,144.15,239.61,151.46"/><path class="cls-4" d="m-236.48,270.28c115.77,6.32,231.33-12.72,347.1-6.41,48.11,2.16,93.15-17.64,137.77-32.88,139.87-50.71,181.55,10.46,289.68,84.66,71.3,50.87,146.09,109.67,236.46,117.16,55.27,6.6,104.77-22.4,147.6-54.12,53.77-38.66,102.53-84.82,160.68-117.11,155.99-92.88,266.02,151.17,413.32,161.45"/><path class="cls-4" d="m-244.65,292.51c119.58,6.64,238.12-22.52,357.72-14.89,48.25.05,93.1-20.08,138.03-35.24,71.55-26.72,140.8-27.31,203.04,21.47,31.58,19.52,62.39,39.96,92.18,62.18,70.99,50.11,144.19,110.57,234.09,117.87,55.13,6.23,103.91-21.85,146.76-53.46,53.37-38.21,101.77-83.83,159.3-115.98,155.44-92.48,269.36,142.44,417.37,152.31"/><path class="cls-4" d="m-253,317.06c123.61,5.86,244.64-33.78,368.4-25.78,45.1-1.93,87.16-20.02,129.2-34.77,68.08-26.29,139.75-34.54,202.81,9.04,36.81,21.84,73.33,44.04,107.29,70.34,70.23,50.05,141.64,112.38,231.03,120.08,54.86,6.17,103.48-21.68,146.19-53.08,53.11-37.93,101.28-83.17,158.34-115.34,154.87-92.43,272.73,132.12,421.46,140.87"/><path class="cls-4" d="m-261.53,343.51c126.23,4.7,247.63-46.25,374.17-38.36,36.94-2.16,72.1-14.95,106.51-27.66,80.21-32.03,160.21-54.34,237.23-.85,27.2,12.48,52.16,29,76.41,46.46,79.66,55.25,157,135.63,257.76,145.86,54.46,6.34,103.46-21.86,145.87-52.96,51.35-36.7,98.14-79.99,152.63-112.21,157.12-99.67,278.91,117,430.73,124.64"/><path class="cls-4" d="m-270.24,371.48c81.52,2.85,160.02-23.02,239.05-39.11,46.32-10.7,93.64-13.62,141-13.19,35.53-2.75,69.39-14.92,102.48-27.44,128.71-51.42,178.66-57.73,298.42,18.78,88.82,57.12,175.41,160.27,284.18,172.28,54.41,6.59,103.38-22.21,145.78-53.08,49.68-35.56,95.15-77.07,147.23-109.24,155.27-106.75,287.04,100.58,440.09,106.76"/><path class="cls-4" d="m-279.12,400.57c89.85,1.75,174.07-34.56,260.42-54.02,25.91-5.92,52.21-10.47,78.77-11.94,32.21-.15,64.54-.71,95.44-11.06,144.65-47.5,205.7-106.01,352.7-12.03,91.26,57.88,177.89,169.75,287.76,185.64,56.06,8.07,106.7-22.49,150.27-54.24,47.86-34.48,91.94-74.21,141.73-105.99,153.88-112.06,293.56,84.36,448.39,88.44"/><path class="cls-4" d="m-288.17,430.37c93.03.27,178.04-43.25,266.39-66.47,25.81-6.9,52.12-12.27,78.8-14.14,30.66-.59,61.43-1.46,90.86-11.22,137.85-44.66,217.26-116.15,359.62-24.77,92.92,58.96,177.53,176.49,287.35,198.04,57.64,10.64,110.44-21.45,155.25-54.04,46.29-33.42,89.11-71.6,136.78-103.13,156.67-118.05,298,66.35,458.07,68.62"/><path class="cls-4" d="m-297.39,460.51c94.21-1.31,178.24-50.13,266.37-77.34,27.34-8.61,55.39-15.51,84.01-17.98,30.75-.96,61.58-2.45,91-12.48,128.89-42.2,226.5-123.31,360.86-37.55,95.98,59.85,183.4,190.74,295.11,212.87,57.85,10.29,110.43-23.65,155.33-56.01,42.89-31.18,82.93-66.2,126.52-96.44,29.49-20.09,61-39.41,96.51-46.09,133.25-15.43,243.7,92.39,375.33,91.91"/><path class="cls-4" d="m-306.78,490.57c97.41-2.96,181.79-58.75,271.75-89.62,25.54-8.97,51.8-16.31,78.72-19.55,30.73-2.32,61.77-2.54,91.31-12.66,123.17-38.64,238.29-132.81,367.08-51.58,99.38,60.98,184.92,199.81,298.06,226.89,94.46,19.57,193.45-88.77,266.32-139.26,35.65-25.91,73.29-52.39,117.15-61.49,132.32-16.96,247.74,79.48,378.9,76.98"/><path class="cls-4" d="m-316.34,520.16c117.84-5.69,212.73-88.93,324.67-116.85,26.79-7.91,54.72-6.77,82.12-10.23,31.35-4.8,61.37-15.7,90.55-27.82,98.09-42.23,214.8-109.9,318.17-45.25,103.06,61.94,186.23,208.22,300.95,240.39,85.13,19.3,167.12-62.12,230.52-109.21,48.53-37.05,97.45-79.44,158.25-93.69,131.71-18.04,251.64,66.95,382.64,62.79"/><path class="cls-4" d="m-326.05,548.88c117.51-7.06,209.75-93.18,319.59-126.12,29.93-10.62,61.48-10.15,92.54-13.95,33.31-5.41,65.1-17.43,96.02-30.63,96.51-40.81,210.38-112.93,313.99-54.11,106.76,62.88,183.79,210.15,299.31,251.7,81.27,24.67,159.19-47.95,219.82-93.11,52.8-40.48,104.27-87.32,168.77-107.85,42.29-11.14,87.24-4.6,129.87,1.62,88.87,15.37,175.53,48.85,266.85,45.57"/><path class="cls-4" d="m-335.92,576.34c118.96-8.06,209.82-98.93,319.78-135.25,31.4-12.3,64.84-12.1,97.73-16.16,35.27-5.93,68.85-19,101.51-33.23,95.02-39.74,211.78-116.99,314.07-59.65,70.69,43.63,120.33,112.65,178.17,170.86,35.06,35.37,72.12,72.34,119.82,89.66,78.81,26.54,155.45-42.29,214.69-86.12,55.06-42.05,107.95-90.9,174.12-114.65,45.06-14.23,93.79-6.95,139.89-1.96,88.61,12.51,175.88,39.48,266.15,35.99"/><path class="cls-4" d="m-345.95,602.13c49.96-1.75,96.37-23.51,139.7-46.77,63.1-33.9,122.37-76.53,190.78-99.44,31.4-12.07,65-9.72,97.56-15.34,39.04-7.46,75.98-22.88,112.07-39.13,86.91-37.42,205.62-111.76,299.5-62.23,72.03,42.21,121.04,112.77,177.8,172.24,36.1,38.05,73.74,78.43,123.43,98.15,76.14,28.1,151.68-36.67,209.53-79.08,57.35-43.42,111.67-94.15,179.4-120.9,47.81-17.54,100.41-9.19,149.99-5.42,88.46,10.05,176.13,31.23,265.66,28.04"/><path class="cls-4" d="m-356.14,625.87c50.05-1.33,96.38-23.7,139.39-47.54,61.58-34.24,119.06-76.92,185.33-102.02,18.33-6.78,37.38-11.9,56.85-13.88,16.99-1.3,34.12-1.11,50.9-4.6,39.06-7.16,76.12-22.21,112.26-38.28,84.92-35.78,212.72-116.4,303.85-69.75,70.95,40.08,118.62,109.41,172.83,168.34,37.25,40.83,75.34,84.6,126.69,107.64,75.4,31.77,150.34-30.09,208.46-72.12,60.85-45.39,117.72-99.55,189.24-127.78,22.57-9.06,46.88-10.9,70.96-10.23,27.94.07,55.85,1.66,83.66,4.15,88.18,8.09,175.92,24.22,264.78,21.92"/><path class="cls-4" d="m-366.47,647.16c116.66-4.59,213.54-108.93,319.74-150.47,19.94-8.07,40.77-14.31,62.18-16.69,16.94-1.69,34.06-.64,50.88-3.71,39.14-6.06,76.43-20.29,112.66-35.86,84.91-34.19,224.17-122.65,313.74-76.9,71.6,39.66,118.94,109.94,172.78,169.51,37.12,41.49,74.86,86.08,126.18,110.13,76.75,33.55,153.85-29.87,213.21-72.65,63.75-47.1,123.32-104.75,199.59-130.82,21.22-7.26,43.72-7.46,65.88-6.84,29.53.42,59.03,2.02,88.47,4.27,86.57,6.78,172.93,18.41,259.92,17.64"/><path class="cls-4" d="m-376.96,665.59c116.43-3.39,214.41-108.2,320.01-150.25,19.96-8.25,40.81-14.71,62.29-17.37,18.63-2.24,37.52-.49,56.08-3.77,39.13-5.73,76.54-19.45,112.87-34.66,84.62-32.92,230.21-124.22,318.17-79.29,73.75,40.36,121.96,113.02,177.4,173.99,36.94,41.03,74.67,85.32,126.15,108.12,74.66,30.1,150.28-29.78,208.32-71.05,68.43-49.39,131.91-112.45,214.77-136.35,21.43-5.95,43.78-4.38,65.74-3.81,27.86.83,55.68,2.37,83.48,4.29,86.71,6.12,173.28,15.46,260.29,16.22"/><path class="cls-4" d="m-387.59,681.05c49.88-.95,96.41-22.37,139.57-45.68,62.17-33.73,120.06-75.93,185.96-102.45,20.03-7.91,40.86-14.1,62.26-16.77,18.73-2.26,37.73-.82,56.38-4.15,38.93-5.82,76.22-19.26,112.45-34.27,84.25-32.53,228.96-121.68,316.74-79.68,72,37.13,120.6,105.59,174.57,163.83,40.21,43.77,80.55,91.45,135.56,116.72,74.29,32.24,154.1-29.64,212.71-70.4,68.46-48.48,132.41-109.56,214.53-133.59,21.41-6.19,43.78-5.15,65.79-4.39,29.54.88,59.06,2.48,88.54,4.48,87.01,6,173.88,14.87,261.16,15.83"/><path class="cls-4" d="m-398.39,693.9c51.74-1.53,100.11-23.22,145.34-46.73,63.5-33.11,123.3-74.28,190.99-98.72,20.07-7.1,40.87-12.45,62.09-14.45,17.13-1.3,34.41-.77,51.41-3.75,40.36-6.1,78.99-20.13,116.55-35.72,83.93-32.64,226.32-118.54,313.81-75.55,71.72,36.93,121.75,103.49,176.68,160.6,41.01,42.98,82.21,89.39,137,114.74,73.25,33.05,153.2-25.97,212.2-65.5,71.73-48.89,138.61-111.82,224.3-134.61,21.5-5.57,43.77-4.02,65.72-3.4,29.62.92,59.2,2.51,88.77,4.45,87.41,5.8,174.72,14.16,262.38,15.25"/><path class="cls-4" d="m-409.37,704.56c126.29-7.71,224.74-101.04,341.9-138.55,18.53-6.05,37.58-10.67,56.97-12.79,18.81-1.89,37.83-.95,56.52-4.28,39.83-6.02,78.04-19.61,115.18-34.84,84.48-32.6,221.79-114.46,310.73-75.29,74.09,35.37,126.64,101.94,183.9,158.66,43.09,43.03,86.45,89.72,143.41,114.04,72.65,30.02,153.23-27.2,212.33-65.51,71.7-47.35,139.09-107.67,223.87-129.84,21.53-5.59,43.82-4.38,65.82-3.68,29.74.88,59.46,2.37,89.16,4.19,89.58,5.55,179.04,13.64,268.84,14.81"/><path class="cls-4" d="m-420.55,713.46c130.39-7.09,234.53-100.34,357.98-132.68,33.52-10.47,68.57-8.03,102.91-12.67,40.92-6.15,80.15-20.13,118.3-35.76,84.84-32.95,216.82-110.01,306.64-70.83,74.21,34.57,128.61,98.92,187.24,154.12,44.21,41.94,88.79,87.06,145.82,111,74.26,30.54,155.61-24.97,216.99-63.15,71.66-45.56,139.54-103.12,223.38-124.35,23.22-5.91,47.24-4.36,70.93-3.69,29.89.88,59.75,2.32,89.6,4.03,90.18,5.25,180.27,12.73,270.64,13.92"/><path class="cls-4" d="m-431.94,721.01c132.5-5.78,241.71-95.47,368.86-123.13,31.98-8.26,65.07-5.39,97.47-10.12,40.16-5.94,78.73-19.37,116.25-34.52,85.84-33.09,210.52-105,302.44-70.07,67.07,27.88,118.94,81.4,172.08,129.25,53.14,47.85,105.01,101.38,172.08,129.25,76.51,30.61,157.55-22.28,221.76-60.37,73.06-44.34,142.84-100.77,227.97-119.37,21.7-4.68,43.95-3.18,65.95-2.68,31.74.86,63.45,2.28,95.16,3.97,90.85,4.9,181.63,11.76,272.65,12.94"/><path class="cls-4" d="m-443.56,727.63c132.52-4.04,245.61-86.67,373.79-110.82,31.94-7.18,64.76-4.21,96.97-8.8,39.27-5.56,77.09-18.29,113.84-32.85,87.58-33.32,202.09-99.19,297.08-70.1,57.61,20.35,104.76,61.38,150.99,100.03,64.83,53.87,125.4,117.3,204.16,150.65,76.08,31.4,155.43-14.56,220.99-51.3,74.94-42.72,146.13-97.7,231.69-117.01,23.33-5.31,47.31-4.04,71.04-3.45,31.87.79,63.72,2.08,95.56,3.61,93.07,4.53,186.07,10.95,279.27,12.1"/><path class="cls-4" d="m-455.44,733.76c150.09-2.13,281.12-99.15,431.07-102.21,55.73.8,109.81-15.76,161.12-36.14,89.11-33.9,195.04-93.85,292.28-65.48,56,18.92,103.17,56.44,149.21,92.41,68.35,53.01,132.34,115.86,213.6,148.74,75.44,30.26,154.8-10.34,221.14-45.58,76.69-40.99,149.62-94.46,236.04-112.73,23.42-5.01,47.42-3.85,71.19-3.32,32.08.7,64.15,1.86,96.21,3.24,95.55,4.15,191.04,10.11,286.7,11.2"/><path class="cls-4" d="m-467.57,739.8c155.52-.45,296-92.12,452.21-87.49,49.42-1.85,97.22-16.51,143.02-34.3,90.82-34.22,187.53-88.37,287.25-64.06,54.45,16.14,101.47,49.84,147.02,82.74,72.47,52.08,140.07,114.36,223.64,148.33,74.14,31.14,154.1-2.29,221.34-35.85,78.74-38.86,153.21-90.72,240.17-109.49,25.11-5.58,50.9-4.68,76.43-4.09,32.3.62,64.6,1.64,96.88,2.87,98.09,3.75,196.13,9.22,294.31,10.24"/><path class="cls-4" d="m-480,746.19c155.88,1.56,300.82-78.22,457.21-72.34,46.78-1.55,92.29-14.42,135.88-30.75,89.53-33.34,182.41-83.13,280.79-65.97,56.63,12.68,106.21,45.21,153.9,76.97,76.24,50.77,147.39,112.1,233.33,146.15,73.29,30.48,153.25,3.36,221.37-28.32,80.46-36.51,156.43-86.47,243.82-105.1,26.77-5.95,54.26-5.12,81.5-4.53,32.46.55,64.9,1.45,97.35,2.52,100.46,3.35,200.88,8.29,301.41,9.23"/><path class="cls-4" d="m-492.72,753.34c158.1,2.98,308.66-64.98,467.22-57.65,44.1-1.96,87.07-13.68,128.35-28.75,86.59-32.13,175-76.66,269.99-65.38,58.62,9.13,110.77,40.39,160.61,70.96,78.52,48.47,151.97,107.19,238.19,141.76,72.15,31.18,152.46,11.96,221.81-17.62,83.95-34.22,162.71-83.65,252.29-102.37,28.44-6.27,57.62-5.47,86.55-4.89,32.61.48,65.21,1.26,97.81,2.19,102.86,2.96,205.68,7.36,308.59,8.23"/><path class="cls-4" d="m-504.02,760.49c101.57,3.55,201.17-20.17,301.1-34.55,56.75-9.22,114.21-11.49,171.59-10.74,43.3-1.89,85.58-13,126.22-27.56,85.23-31.4,172-73.12,265.26-63.47,60.78,7.89,115.42,38.89,167.68,69.14,78.34,45.8,152.28,100.73,237.08,134.38,73.43,31.72,155.6,16.38,227.41-12.3,85.52-32.29,165.98-80.13,256.5-97.71,26.82-5.49,54.22-5.16,81.45-4.58,34.47.42,68.93,1.12,103.39,1.98,105.25,2.63,210.47,6.58,315.76,7.4"/><path class="cls-4" d="m-515.57,768.81c108.24,4.48,215.04-17.32,322.29-28.13,33.14-3.36,66.41-5.69,99.73-5.87,38.22.87,76.68,1.59,114.17-7.18,109.34-24.16,209.57-91.09,325.34-80.69,62.65,6.06,119.61,36.47,174.05,66.12,78.03,43.11,152.12,94.43,235.23,127.62,74.51,32.76,158.48,22.42,232.92-5.09,87.04-30.02,168.93-76.14,260.01-93.6,28.44-5.81,57.49-5.56,86.37-4.94,34.54.37,69.08.99,103.62,1.73,107.42,2.32,214.83,5.81,322.28,6.59"/><path class="cls-4" d="m-527.38,778.57c109.81,4.98,218.84-12.34,328.1-20.12,33.2-2.37,66.47-3.87,99.76-3.6,37.97,1.4,76.19,1.72,113.48-6.67,59.69-12,115.07-38.19,172.76-56.77,45.96-15.16,94.26-23.52,142.74-21.54,64.4,3.37,123.71,33.01,180.19,61.86,79.5,41.36,155.16,90.85,238.79,123.78,74.82,32.4,158.28,26.39,234.2.92,90.38-28.15,175.35-74,269.12-90.79,28.5-5.46,57.53-5.2,86.42-4.61,36.43.35,72.86.93,109.29,1.61,108.06,2.04,216.1,5.01,324.18,5.77"/><path class="cls-4" d="m-539.46,790.05c109.51,5.07,218.72-7.38,327.99-12.6,34.96-1.67,69.97-2.62,104.96-2.01,36.33,1.53,72.88,1.95,108.69-5.35,60.13-10.94,115.94-36.78,173.87-55.26,45.31-14.74,92.8-23.07,140.53-21.6,64.01,1.64,123.74,29.28,180.54,56.49,80.79,39.54,157.77,87.24,241.63,120.3,77.65,33.44,160.25,31.35,240.16,7.04,91.85-26.02,178.33-70.2,272.79-86.98,30.12-5.76,60.81-5.72,91.35-5.04,36.49.33,72.98.83,109.47,1.42,110.2,1.79,220.39,4.35,330.61,5.12"/><path class="cls-4" d="m-551.82,803.53c158.01,6.77,315.89-12.88,473.91-5.85,54.01.91,107.14-11.58,157.82-29.42,98.37-37,204.18-72.36,308.63-37.89,94.77,29.6,180.28,81.66,269.65,123.85,71.47,34.15,148.18,66.44,229.05,58.97,128.72-9.51,243.34-78.81,369.77-99.49,30.14-5.4,60.77-5.39,91.27-4.74,36.54.32,73.07.77,109.61,1.28,112.31,1.58,224.62,3.76,336.94,4.57"/><path class="cls-4" d="m-564.48,819.27c158.05,5.89,316.2-5.94,474.25-.06,55.3,1.48,109.92-10.42,161.96-28.36,97.16-35.75,202.18-70.26,305.4-38.89,99.01,28.71,188.58,81.52,282.07,123.75,72,32.86,148.85,64.16,229.55,57.03,129.64-9.02,246.39-75.6,373.92-95.43,68-9.72,137.68-2.46,206.24-3.37,112.62,1.41,225.23,3.19,337.86,4.08"/><path class="cls-4" d="m-577.45,837.57c158.18,4.2,316.44-.44,474.61,3.59,55.56,1.93,110.7-8.88,163.25-26.35,43.53-14.15,86.3-31.02,131.08-40.95,59.19-13.19,121.79-15.8,180.47,1.3,99.06,28,189.42,78.99,283.23,120.24,72.73,31.88,149.67,64.17,230.69,58.29,132.44-7.66,252.66-73.19,382.9-92.78,70.04-9.79,141.13-2.5,211.6-3.46,112.87,1.28,225.74,2.74,338.61,3.75"/><path class="cls-4" d="m-590.73,858.68c158.37,1.76,316.74,3.26,475.11,5.01,56.09,1.85,111.92-7.66,165.2-24.86,99.93-34.29,207.41-71.96,313.3-41.83,102.92,27.69,196.97,79.66,294.53,121.34,72.88,30.75,149.68,63.17,230.38,57.27,133.67-8.22,255.96-71.58,387.57-91.21,70.04-10.09,141.13-2.87,211.62-3.79,114.84,1.22,229.67,2.44,344.51,3.64"/></g></svg>