<svg width="489" height="159" viewBox="0 0 489 159" fill="none" xmlns="http://www.w3.org/2000/svg">
<g clip-path="url(#clip0_274_24)">
<rect width="489" height="159" rx="32" fill="white"/>
<rect width="510" height="159" rx="32" fill="#D9D9D9"/>
<path d="M171.869 70.9766V39.4766H187.244L199.525 55.2266L211.83 39.4766H227.182V70.9766H214.9V54.1719L202.596 70.9766H196.455L184.15 54.1719V70.9766H171.869ZM252.33 48.6406L247.994 57.9453H256.643L252.33 48.6406ZM228.119 71.0234L245.018 39.5234H259.619L276.518 71.0234H262.689L260.205 65.6328H244.432L241.947 71.0234H228.119ZM277.479 39.5H307.83C314.322 39.4297 319.83 44.8906 319.736 51.4062C319.736 53.7734 319.104 55.9297 317.838 57.8516C316.596 59.75 314.932 61.2031 312.869 62.1641L319.736 71H306.658L300.729 63.3125H289.76V71H277.479V39.5ZM304.736 48.7109H289.76V54.0781H304.736C305.486 54.0781 306.119 53.8203 306.635 53.3047C307.174 52.7656 307.432 52.1328 307.432 51.4062C307.432 49.9062 306.236 48.7109 304.736 48.7109ZM353.041 57.9219H365.627C364.854 68.5625 355.525 71.75 344.182 71.75C332.369 71.7266 322.619 68.3047 322.666 56.375V54.0781C322.619 42.1719 332.369 38.75 344.182 38.7031C355.525 38.7266 364.854 41.9141 365.627 52.5312H353.041C351.893 49.4375 348.4 48.7109 344.182 48.7109C339.166 48.7812 334.9 49.6719 334.971 54.8516V55.625C334.9 60.7578 339.166 61.6953 344.182 61.7656C348.4 61.7656 351.916 61.0156 353.041 57.9219ZM399.705 55.625V39.4766H412.01V56.3984C412.057 68.3047 402.307 71.7266 390.494 71.75C378.682 71.7266 368.932 68.3047 368.979 56.3984V39.4766H381.26V55.625C381.213 60.8047 385.455 61.6953 390.494 61.7656C395.51 61.6953 399.775 60.8047 399.705 55.625ZM428.393 49.8594C428.393 51.2422 432.213 51.4297 437.158 51.6641C445.947 52.1094 458.299 52.7188 458.275 60.6172C458.275 69.6172 447.963 71.75 436.9 71.75C425.861 71.7266 416.697 70.3906 415.525 60.6172H428.393C429.799 63.0547 433.057 63.6875 436.9 63.6875C440.721 63.6875 445.408 63.0547 445.408 60.6172C445.408 59.2344 441.588 59.0234 436.643 58.7891C427.854 58.3438 415.502 57.7344 415.525 49.8594C415.525 40.8594 425.838 38.7031 436.9 38.7031C447.939 38.7734 457.104 40.0156 458.275 49.8594H445.408C444.002 47.375 440.744 46.7891 436.9 46.7891C433.08 46.7891 428.393 47.3516 428.393 49.8594ZM202.596 110.273C202.596 107.086 200.791 104.508 197.604 104.508H184.15V116.039H197.604C200.791 116.039 202.596 113.438 202.596 110.273ZM171.869 94.5234H199.9C208.549 94.4062 214.971 101.672 214.9 110.273C214.971 118.828 208.549 126.141 199.9 126.023H171.869V94.5234ZM218.557 126.023V94.5234H255.424V102.586H230.838V106.617H255.424V113.906H230.838V117.938H255.424V126.023H218.557ZM270.213 94.5234L279.822 116.391L289.432 94.5234H303.26L287.111 126.023H272.51L256.385 94.5234H270.213ZM304.197 116.789H316.479V126H304.197V116.789ZM347.791 112.922H360.377C359.604 123.562 350.275 126.75 338.932 126.75C327.119 126.727 317.369 123.305 317.416 111.375V109.078C317.369 97.1719 327.119 93.75 338.932 93.7031C350.275 93.7266 359.604 96.9141 360.377 107.531H347.791C346.643 104.438 343.15 103.711 338.932 103.711C333.916 103.781 329.65 104.672 329.721 109.852V110.625C329.65 115.758 333.916 116.695 338.932 116.766C343.15 116.766 346.666 116.016 347.791 112.922ZM384.963 93.7031C396.822 93.7031 406.455 97.1719 406.455 109.078V111.375C406.502 123.281 396.799 126.727 384.963 126.75C373.104 126.727 363.4 123.281 363.447 111.375V109.078C363.4 97.1484 373.104 93.7266 384.963 93.7031ZM394.174 110.602V109.828C394.244 104.695 389.979 103.758 384.963 103.688C379.924 103.758 375.658 104.695 375.729 109.828V110.602C375.658 115.758 379.924 116.695 384.963 116.766C389.979 116.695 394.244 115.758 394.174 110.602ZM410.135 125.977V94.4766H425.51L437.791 110.227L450.096 94.4766H465.447V125.977H453.166V109.172L440.861 125.977H434.721L422.416 109.172V125.977H410.135Z" fill="black"/>
<path d="M128.072 17C127.877 17 127.707 17 127.512 17.025H96.6178H72.8326H41.1109C40.9405 17 40.7458 17 40.5753 17C30.3017 17 22 25.5432 22 36.0598V67.3098V91.6902V122.94C22 133.457 30.3017 142 40.5753 142H72.4431H96.2283H128.096C138.345 142 146.671 133.482 146.671 122.94V91.6902V67.2848V36.0598C146.647 25.5432 138.345 17 128.072 17Z" fill="black"/>
<path d="M101.146 58.6415L84.324 75.9027L67.5015 58.6415L50.7033 41.4053L33.8809 58.6415L50.7033 75.9027L67.5015 93.1389L84.324 110.4L101.146 93.1389L117.945 75.9027L101.146 58.6415Z" fill="white"/>
<path d="M116.946 117.619V93.2139V80.7988L93.1611 105.654V117.619H116.946Z" fill="white"/>
<path d="M51.9932 117.619V93.2139V80.7988L75.7784 105.654V117.619H51.9932Z" fill="white"/>
</g>
<defs>
<clipPath id="clip0_274_24">
<rect width="489" height="159" rx="32" fill="white"/>
</clipPath>
</defs>
</svg>
